<?xml version="1.0" encoding="utf-8"?>
<!-- generated at drububu.com  -->
<!DOCTYPE svg PUBLIC "-//W3C//DTD SVG 1.1//EN" "http://www.w3.org/Graphics/SVG/1.1/DTD/svg11.dtd">
<svg version="1.1" preserveAspectRatio="xMinYMin meet" xmlns="http://www.w3.org/2000/svg" xmlns:="htxlinktp://www.w3.org/1999/xlink" x="0px" y="0px" width="850px" height="850px" viewBox="0 0 850 850">
<path d="M0 0h850v850h-850v-850z" fill="rgb(0,0,0)"/>
<path d="M34 34h782v782h-782v-782z" fill="rgb(255,255,255)"/>
<path d="M68 68h34v34h-34v-34z" fill="rgb(50,71,251)"/>
<path d="M136 68h34v34h-34v-34z" fill="rgb(50,71,251)"/>
<path d="M204 68h34v34h-34v-34z" fill="rgb(50,71,251)"/>
<path d="M272 68h34v34h-34v-34z" fill="rgb(50,71,251)"/>
<path d="M340 68h34v34h-34v-34z" fill="rgb(50,71,251)"/>
<path d="M408 68h34v34h-34v-34z" fill="rgb(50,71,251)"/>
<path d="M476 68h34v34h-34v-34z" fill="rgb(50,71,251)"/>
<path d="M544 68h34v34h-34v-34z" fill="rgb(50,71,251)"/>
<path d="M612 68h34v34h-34v-34z" fill="rgb(50,71,251)"/>
<path d="M680 68h34v34h-34v-34z" fill="rgb(50,71,251)"/>
<path d="M748 68h34v34h-34v-34z" fill="rgb(50,71,251)"/>
<path d="M102 102h34v34h-34v-34z" fill="rgb(50,71,251)"/>
<path d="M136 102h34v34h-34v-34z" fill="rgb(255,255,255)"/>
<path d="M170 102h34v34h-34v-34z" fill="rgb(50,71,251)"/>
<path d="M204 102h34v34h-34v-34z" fill="rgb(255,255,255)"/>
<path d="M238 102h34v34h-34v-34z" fill="rgb(50,71,251)"/>
<path d="M272 102h34v34h-34v-34z" fill="rgb(255,255,255)"/>
<path d="M306 102h34v34h-34v-34z" fill="rgb(50,71,251)"/>
<path d="M340 102h34v34h-34v-34z" fill="rgb(255,255,255)"/>
<path d="M374 102h34v34h-34v-34z" fill="rgb(50,71,251)"/>
<path d="M408 102h34v34h-34v-34z" fill="rgb(255,255,255)"/>
<path d="M442 102h34v34h-34v-34z" fill="rgb(50,71,251)"/>
<path d="M476 102h34v34h-34v-34z" fill="rgb(255,255,255)"/>
<path d="M510 102h34v34h-34v-34z" fill="rgb(50,71,251)"/>
<path d="M544 102h34v34h-34v-34z" fill="rgb(255,255,255)"/>
<path d="M578 102h34v34h-34v-34z" fill="rgb(50,71,251)"/>
<path d="M612 102h34v34h-34v-34z" fill="rgb(255,255,255)"/>
<path d="M646 102h34v34h-34v-34z" fill="rgb(50,71,251)"/>
<path d="M680 102h34v34h-34v-34z" fill="rgb(255,255,255)"/>
<path d="M714 102h34v34h-34v-34z" fill="rgb(50,71,251)"/>
<path d="M68 136h34v34h-34v-34z" fill="rgb(50,71,251)"/>
<path d="M102 136h34v34h-34v-34z" fill="rgb(255,255,255)"/>
<path d="M136 136h34v34h-34v-34z" fill="rgb(50,71,251)"/>
<path d="M170 136h34v34h-34v-34z" fill="rgb(255,255,255)"/>
<path d="M204 136h34v34h-34v-34z" fill="rgb(50,71,251)"/>
<path d="M238 136h34v34h-34v-34z" fill="rgb(255,255,255)"/>
<path d="M272 136h34v34h-34v-34z" fill="rgb(50,71,251)"/>
<path d="M306 136h34v34h-34v-34z" fill="rgb(255,255,255)"/>
<path d="M340 136h34v34h-34v-34z" fill="rgb(50,71,251)"/>
<path d="M374 136h34v34h-34v-34z" fill="rgb(255,255,255)"/>
<path d="M408 136h34v34h-34v-34z" fill="rgb(50,71,251)"/>
<path d="M442 136h34v34h-34v-34z" fill="rgb(255,255,255)"/>
<path d="M476 136h34v34h-34v-34z" fill="rgb(50,71,251)"/>
<path d="M510 136h34v34h-34v-34z" fill="rgb(255,255,255)"/>
<path d="M544 136h34v34h-34v-34z" fill="rgb(50,71,251)"/>
<path d="M578 136h34v34h-34v-34z" fill="rgb(255,255,255)"/>
<path d="M612 136h34v34h-34v-34z" fill="rgb(50,71,251)"/>
<path d="M646 136h34v34h-34v-34z" fill="rgb(255,255,255)"/>
<path d="M680 136h34v34h-34v-34z" fill="rgb(50,71,251)"/>
<path d="M714 136h34v34h-34v-34z" fill="rgb(255,255,255)"/>
<path d="M748 136h34v34h-34v-34z" fill="rgb(50,71,251)"/>
<path d="M102 170h34v34h-34v-34z" fill="rgb(50,71,251)"/>
<path d="M136 170h34v34h-34v-34z" fill="rgb(255,255,255)"/>
<path d="M170 170h34v34h-34v-34z" fill="rgb(50,71,251)"/>
<path d="M204 170h34v34h-34v-34z" fill="rgb(255,255,255)"/>
<path d="M238 170h34v34h-34v-34z" fill="rgb(50,71,251)"/>
<path d="M272 170h34v34h-34v-34z" fill="rgb(255,255,255)"/>
<path d="M306 170h34v34h-34v-34z" fill="rgb(50,71,251)"/>
<path d="M340 170h34v34h-34v-34z" fill="rgb(255,255,255)"/>
<path d="M374 170h34v34h-34v-34z" fill="rgb(50,71,251)"/>
<path d="M408 170h34v34h-34v-34z" fill="rgb(255,255,255)"/>
<path d="M442 170h34v34h-34v-34z" fill="rgb(50,71,251)"/>
<path d="M476 170h34v34h-34v-34z" fill="rgb(255,255,255)"/>
<path d="M510 170h34v34h-34v-34z" fill="rgb(50,71,251)"/>
<path d="M544 170h34v34h-34v-34z" fill="rgb(255,255,255)"/>
<path d="M578 170h34v34h-34v-34z" fill="rgb(50,71,251)"/>
<path d="M612 170h34v34h-34v-34z" fill="rgb(255,255,255)"/>
<path d="M646 170h34v34h-34v-34z" fill="rgb(50,71,251)"/>
<path d="M680 170h34v34h-34v-34z" fill="rgb(255,255,255)"/>
<path d="M714 170h34v34h-34v-34z" fill="rgb(50,71,251)"/>
<path d="M68 204h34v34h-34v-34z" fill="rgb(50,71,251)"/>
<path d="M102 204h34v34h-34v-34z" fill="rgb(255,255,255)"/>
<path d="M136 204h34v34h-34v-34z" fill="rgb(50,71,251)"/>
<path d="M170 204h34v34h-34v-34z" fill="rgb(255,255,255)"/>
<path d="M204 204h34v34h-34v-34z" fill="rgb(50,71,251)"/>
<path d="M238 204h34v34h-34v-34z" fill="rgb(255,255,255)"/>
<path d="M272 204h34v34h-34v-34z" fill="rgb(50,71,251)"/>
<path d="M306 204h34v34h-34v-34z" fill="rgb(255,255,255)"/>
<path d="M340 204h34v34h-34v-34z" fill="rgb(50,71,251)"/>
<path d="M374 204h34v34h-34v-34z" fill="rgb(255,255,255)"/>
<path d="M408 204h34v34h-34v-34z" fill="rgb(50,71,251)"/>
<path d="M442 204h34v34h-34v-34z" fill="rgb(255,255,255)"/>
<path d="M476 204h34v34h-34v-34z" fill="rgb(50,71,251)"/>
<path d="M510 204h34v34h-34v-34z" fill="rgb(255,255,255)"/>
<path d="M544 204h34v34h-34v-34z" fill="rgb(50,71,251)"/>
<path d="M578 204h34v34h-34v-34z" fill="rgb(255,255,255)"/>
<path d="M612 204h34v34h-34v-34z" fill="rgb(50,71,251)"/>
<path d="M646 204h34v34h-34v-34z" fill="rgb(255,255,255)"/>
<path d="M680 204h34v34h-34v-34z" fill="rgb(50,71,251)"/>
<path d="M714 204h34v34h-34v-34z" fill="rgb(255,255,255)"/>
<path d="M748 204h34v34h-34v-34z" fill="rgb(50,71,251)"/>
<path d="M102 238h34v34h-34v-34z" fill="rgb(50,71,251)"/>
<path d="M136 238h34v34h-34v-34z" fill="rgb(255,255,255)"/>
<path d="M170 238h34v34h-34v-34z" fill="rgb(50,71,251)"/>
<path d="M204 238h34v34h-34v-34z" fill="rgb(255,255,255)"/>
<path d="M238 238h34v34h-34v-34z" fill="rgb(50,71,251)"/>
<path d="M272 238h34v34h-34v-34z" fill="rgb(255,255,255)"/>
<path d="M306 238h34v34h-34v-34z" fill="rgb(50,71,251)"/>
<path d="M340 238h34v34h-34v-34z" fill="rgb(255,255,255)"/>
<path d="M374 238h34v34h-34v-34z" fill="rgb(50,71,251)"/>
<path d="M408 238h34v34h-34v-34z" fill="rgb(255,255,255)"/>
<path d="M442 238h34v34h-34v-34z" fill="rgb(50,71,251)"/>
<path d="M476 238h34v34h-34v-34z" fill="rgb(255,255,255)"/>
<path d="M510 238h34v34h-34v-34z" fill="rgb(50,71,251)"/>
<path d="M544 238h34v34h-34v-34z" fill="rgb(255,255,255)"/>
<path d="M578 238h34v34h-34v-34z" fill="rgb(50,71,251)"/>
<path d="M612 238h34v34h-34v-34z" fill="rgb(255,255,255)"/>
<path d="M646 238h34v34h-34v-34z" fill="rgb(50,71,251)"/>
<path d="M680 238h34v34h-34v-34z" fill="rgb(255,255,255)"/>
<path d="M714 238h34v34h-34v-34z" fill="rgb(50,71,251)"/>
<path d="M68 272h34v34h-34v-34z" fill="rgb(50,71,251)"/>
<path d="M102 272h34v34h-34v-34z" fill="rgb(255,255,255)"/>
<path d="M136 272h34v34h-34v-34z" fill="rgb(50,71,251)"/>
<path d="M170 272h34v34h-34v-34z" fill="rgb(255,255,255)"/>
<path d="M204 272h34v34h-34v-34z" fill="rgb(50,71,251)"/>
<path d="M238 272h34v34h-34v-34z" fill="rgb(255,255,255)"/>
<path d="M272 272h34v34h-34v-34z" fill="rgb(50,71,251)"/>
<path d="M306 272h34v34h-34v-34z" fill="rgb(255,255,255)"/>
<path d="M340 272h34v34h-34v-34z" fill="rgb(50,71,251)"/>
<path d="M374 272h34v34h-34v-34z" fill="rgb(255,255,255)"/>
<path d="M408 272h34v34h-34v-34z" fill="rgb(50,71,251)"/>
<path d="M442 272h34v34h-34v-34z" fill="rgb(255,255,255)"/>
<path d="M476 272h34v34h-34v-34z" fill="rgb(50,71,251)"/>
<path d="M510 272h34v34h-34v-34z" fill="rgb(255,255,255)"/>
<path d="M544 272h34v34h-34v-34z" fill="rgb(50,71,251)"/>
<path d="M578 272h34v34h-34v-34z" fill="rgb(255,255,255)"/>
<path d="M612 272h34v34h-34v-34z" fill="rgb(50,71,251)"/>
<path d="M646 272h34v34h-34v-34z" fill="rgb(255,255,255)"/>
<path d="M680 272h34v34h-34v-34z" fill="rgb(50,71,251)"/>
<path d="M714 272h34v34h-34v-34z" fill="rgb(255,255,255)"/>
<path d="M748 272h34v34h-34v-34z" fill="rgb(50,71,251)"/>
<path d="M102 306h34v34h-34v-34z" fill="rgb(50,71,251)"/>
<path d="M136 306h34v34h-34v-34z" fill="rgb(255,255,255)"/>
<path d="M170 306h34v34h-34v-34z" fill="rgb(50,71,251)"/>
<path d="M204 306h34v34h-34v-34z" fill="rgb(255,255,255)"/>
<path d="M238 306h34v34h-34v-34z" fill="rgb(50,71,251)"/>
<path d="M272 306h34v34h-34v-34z" fill="rgb(255,255,255)"/>
<path d="M306 306h34v34h-34v-34z" fill="rgb(50,71,251)"/>
<path d="M340 306h34v34h-34v-34z" fill="rgb(255,255,255)"/>
<path d="M374 306h34v34h-34v-34z" fill="rgb(50,71,251)"/>
<path d="M408 306h34v34h-34v-34z" fill="rgb(255,255,255)"/>
<path d="M442 306h34v34h-34v-34z" fill="rgb(50,71,251)"/>
<path d="M476 306h34v34h-34v-34z" fill="rgb(255,255,255)"/>
<path d="M510 306h34v34h-34v-34z" fill="rgb(50,71,251)"/>
<path d="M544 306h34v34h-34v-34z" fill="rgb(255,255,255)"/>
<path d="M578 306h34v34h-34v-34z" fill="rgb(50,71,251)"/>
<path d="M612 306h34v34h-34v-34z" fill="rgb(255,255,255)"/>
<path d="M646 306h34v34h-34v-34z" fill="rgb(50,71,251)"/>
<path d="M680 306h34v34h-34v-34z" fill="rgb(255,255,255)"/>
<path d="M714 306h34v34h-34v-34z" fill="rgb(50,71,251)"/>
<path d="M68 340h34v34h-34v-34z" fill="rgb(50,71,251)"/>
<path d="M102 340h34v34h-34v-34z" fill="rgb(255,255,255)"/>
<path d="M136 340h34v34h-34v-34z" fill="rgb(50,71,251)"/>
<path d="M170 340h34v34h-34v-34z" fill="rgb(255,255,255)"/>
<path d="M204 340h34v34h-34v-34z" fill="rgb(50,71,251)"/>
<path d="M238 340h34v34h-34v-34z" fill="rgb(255,255,255)"/>
<path d="M272 340h34v34h-34v-34z" fill="rgb(50,71,251)"/>
<path d="M306 340h34v34h-34v-34z" fill="rgb(255,255,255)"/>
<path d="M340 340h34v34h-34v-34z" fill="rgb(50,71,251)"/>
<path d="M374 340h34v34h-34v-34z" fill="rgb(255,255,255)"/>
<path d="M408 340h34v34h-34v-34z" fill="rgb(50,71,251)"/>
<path d="M442 340h34v34h-34v-34z" fill="rgb(255,255,255)"/>
<path d="M476 340h34v34h-34v-34z" fill="rgb(50,71,251)"/>
<path d="M510 340h34v34h-34v-34z" fill="rgb(255,255,255)"/>
<path d="M544 340h34v34h-34v-34z" fill="rgb(50,71,251)"/>
<path d="M578 340h34v34h-34v-34z" fill="rgb(255,255,255)"/>
<path d="M612 340h34v34h-34v-34z" fill="rgb(50,71,251)"/>
<path d="M646 340h34v34h-34v-34z" fill="rgb(255,255,255)"/>
<path d="M680 340h34v34h-34v-34z" fill="rgb(50,71,251)"/>
<path d="M714 340h34v34h-34v-34z" fill="rgb(255,255,255)"/>
<path d="M748 340h34v34h-34v-34z" fill="rgb(50,71,251)"/>
<path d="M102 374h34v34h-34v-34z" fill="rgb(50,71,251)"/>
<path d="M136 374h34v34h-34v-34z" fill="rgb(255,255,255)"/>
<path d="M170 374h34v34h-34v-34z" fill="rgb(50,71,251)"/>
<path d="M204 374h34v34h-34v-34z" fill="rgb(255,255,255)"/>
<path d="M238 374h34v34h-34v-34z" fill="rgb(50,71,251)"/>
<path d="M272 374h34v34h-34v-34z" fill="rgb(255,255,255)"/>
<path d="M306 374h34v34h-34v-34z" fill="rgb(50,71,251)"/>
<path d="M340 374h34v34h-34v-34z" fill="rgb(255,255,255)"/>
<path d="M374 374h34v34h-34v-34z" fill="rgb(50,71,251)"/>
<path d="M408 374h34v34h-34v-34z" fill="rgb(255,255,255)"/>
<path d="M442 374h34v34h-34v-34z" fill="rgb(50,71,251)"/>
<path d="M476 374h34v34h-34v-34z" fill="rgb(255,255,255)"/>
<path d="M510 374h34v34h-34v-34z" fill="rgb(50,71,251)"/>
<path d="M544 374h34v34h-34v-34z" fill="rgb(255,255,255)"/>
<path d="M578 374h34v34h-34v-34z" fill="rgb(50,71,251)"/>
<path d="M612 374h34v34h-34v-34z" fill="rgb(255,255,255)"/>
<path d="M646 374h34v34h-34v-34z" fill="rgb(50,71,251)"/>
<path d="M680 374h34v34h-34v-34z" fill="rgb(255,255,255)"/>
<path d="M714 374h34v34h-34v-34z" fill="rgb(50,71,251)"/>
<path d="M68 408h34v34h-34v-34z" fill="rgb(50,71,251)"/>
<path d="M102 408h34v34h-34v-34z" fill="rgb(255,255,255)"/>
<path d="M136 408h34v34h-34v-34z" fill="rgb(50,71,251)"/>
<path d="M170 408h34v34h-34v-34z" fill="rgb(255,255,255)"/>
<path d="M204 408h34v34h-34v-34z" fill="rgb(50,71,251)"/>
<path d="M238 408h34v34h-34v-34z" fill="rgb(255,255,255)"/>
<path d="M272 408h34v34h-34v-34z" fill="rgb(50,71,251)"/>
<path d="M306 408h34v34h-34v-34z" fill="rgb(255,255,255)"/>
<path d="M340 408h34v34h-34v-34z" fill="rgb(50,71,251)"/>
<path d="M374 408h34v34h-34v-34z" fill="rgb(255,255,255)"/>
<path d="M408 408h34v34h-34v-34z" fill="rgb(50,71,251)"/>
<path d="M442 408h34v34h-34v-34z" fill="rgb(255,255,255)"/>
<path d="M476 408h34v34h-34v-34z" fill="rgb(50,71,251)"/>
<path d="M510 408h34v34h-34v-34z" fill="rgb(255,255,255)"/>
<path d="M544 408h34v34h-34v-34z" fill="rgb(50,71,251)"/>
<path d="M578 408h34v34h-34v-34z" fill="rgb(255,255,255)"/>
<path d="M612 408h34v34h-34v-34z" fill="rgb(50,71,251)"/>
<path d="M646 408h34v34h-34v-34z" fill="rgb(255,255,255)"/>
<path d="M680 408h34v34h-34v-34z" fill="rgb(50,71,251)"/>
<path d="M714 408h34v34h-34v-34z" fill="rgb(255,255,255)"/>
<path d="M748 408h34v34h-34v-34z" fill="rgb(50,71,251)"/>
<path d="M102 442h34v34h-34v-34z" fill="rgb(50,71,251)"/>
<path d="M136 442h34v34h-34v-34z" fill="rgb(255,255,255)"/>
<path d="M170 442h34v34h-34v-34z" fill="rgb(50,71,251)"/>
<path d="M204 442h34v34h-34v-34z" fill="rgb(255,255,255)"/>
<path d="M238 442h34v34h-34v-34z" fill="rgb(50,71,251)"/>
<path d="M272 442h34v34h-34v-34z" fill="rgb(255,255,255)"/>
<path d="M306 442h34v34h-34v-34z" fill="rgb(50,71,251)"/>
<path d="M340 442h34v34h-34v-34z" fill="rgb(255,255,255)"/>
<path d="M374 442h34v34h-34v-34z" fill="rgb(50,71,251)"/>
<path d="M408 442h34v34h-34v-34z" fill="rgb(255,255,255)"/>
<path d="M442 442h34v34h-34v-34z" fill="rgb(50,71,251)"/>
<path d="M476 442h34v34h-34v-34z" fill="rgb(255,255,255)"/>
<path d="M510 442h34v34h-34v-34z" fill="rgb(50,71,251)"/>
<path d="M544 442h34v34h-34v-34z" fill="rgb(255,255,255)"/>
<path d="M578 442h34v34h-34v-34z" fill="rgb(50,71,251)"/>
<path d="M612 442h34v34h-34v-34z" fill="rgb(255,255,255)"/>
<path d="M646 442h34v34h-34v-34z" fill="rgb(50,71,251)"/>
<path d="M680 442h34v34h-34v-34z" fill="rgb(255,255,255)"/>
<path d="M714 442h34v34h-34v-34z" fill="rgb(50,71,251)"/>
<path d="M68 476h34v34h-34v-34z" fill="rgb(50,71,251)"/>
<path d="M102 476h34v34h-34v-34z" fill="rgb(255,255,255)"/>
<path d="M136 476h34v34h-34v-34z" fill="rgb(50,71,251)"/>
<path d="M170 476h34v34h-34v-34z" fill="rgb(255,255,255)"/>
<path d="M204 476h34v34h-34v-34z" fill="rgb(50,71,251)"/>
<path d="M238 476h34v34h-34v-34z" fill="rgb(255,255,255)"/>
<path d="M272 476h34v34h-34v-34z" fill="rgb(50,71,251)"/>
<path d="M306 476h34v34h-34v-34z" fill="rgb(255,255,255)"/>
<path d="M340 476h34v34h-34v-34z" fill="rgb(50,71,251)"/>
<path d="M374 476h34v34h-34v-34z" fill="rgb(255,255,255)"/>
<path d="M408 476h34v34h-34v-34z" fill="rgb(50,71,251)"/>
<path d="M442 476h34v34h-34v-34z" fill="rgb(255,255,255)"/>
<path d="M476 476h34v34h-34v-34z" fill="rgb(50,71,251)"/>
<path d="M510 476h34v34h-34v-34z" fill="rgb(255,255,255)"/>
<path d="M544 476h34v34h-34v-34z" fill="rgb(50,71,251)"/>
<path d="M578 476h34v34h-34v-34z" fill="rgb(255,255,255)"/>
<path d="M612 476h34v34h-34v-34z" fill="rgb(50,71,251)"/>
<path d="M646 476h34v34h-34v-34z" fill="rgb(255,255,255)"/>
<path d="M680 476h34v34h-34v-34z" fill="rgb(50,71,251)"/>
<path d="M714 476h34v34h-34v-34z" fill="rgb(255,255,255)"/>
<path d="M748 476h34v34h-34v-34z" fill="rgb(50,71,251)"/>
<path d="M102 510h34v34h-34v-34z" fill="rgb(50,71,251)"/>
<path d="M136 510h34v34h-34v-34z" fill="rgb(255,255,255)"/>
<path d="M170 510h34v34h-34v-34z" fill="rgb(50,71,251)"/>
<path d="M204 510h34v34h-34v-34z" fill="rgb(255,255,255)"/>
<path d="M238 510h34v34h-34v-34z" fill="rgb(50,71,251)"/>
<path d="M272 510h34v34h-34v-34z" fill="rgb(255,255,255)"/>
<path d="M306 510h34v34h-34v-34z" fill="rgb(50,71,251)"/>
<path d="M340 510h34v34h-34v-34z" fill="rgb(255,255,255)"/>
<path d="M374 510h34v34h-34v-34z" fill="rgb(50,71,251)"/>
<path d="M408 510h34v34h-34v-34z" fill="rgb(255,255,255)"/>
<path d="M442 510h34v34h-34v-34z" fill="rgb(50,71,251)"/>
<path d="M476 510h34v34h-34v-34z" fill="rgb(255,255,255)"/>
<path d="M510 510h34v34h-34v-34z" fill="rgb(50,71,251)"/>
<path d="M544 510h34v34h-34v-34z" fill="rgb(255,255,255)"/>
<path d="M578 510h34v34h-34v-34z" fill="rgb(50,71,251)"/>
<path d="M612 510h34v34h-34v-34z" fill="rgb(255,255,255)"/>
<path d="M646 510h34v34h-34v-34z" fill="rgb(50,71,251)"/>
<path d="M680 510h34v34h-34v-34z" fill="rgb(255,255,255)"/>
<path d="M714 510h34v34h-34v-34z" fill="rgb(50,71,251)"/>
<path d="M68 544h34v34h-34v-34z" fill="rgb(50,71,251)"/>
<path d="M102 544h34v34h-34v-34z" fill="rgb(255,255,255)"/>
<path d="M136 544h34v34h-34v-34z" fill="rgb(50,71,251)"/>
<path d="M170 544h34v34h-34v-34z" fill="rgb(255,255,255)"/>
<path d="M204 544h34v34h-34v-34z" fill="rgb(50,71,251)"/>
<path d="M238 544h34v34h-34v-34z" fill="rgb(255,255,255)"/>
<path d="M272 544h34v34h-34v-34z" fill="rgb(50,71,251)"/>
<path d="M306 544h34v34h-34v-34z" fill="rgb(255,255,255)"/>
<path d="M340 544h34v34h-34v-34z" fill="rgb(50,71,251)"/>
<path d="M374 544h34v34h-34v-34z" fill="rgb(255,255,255)"/>
<path d="M408 544h34v34h-34v-34z" fill="rgb(50,71,251)"/>
<path d="M442 544h34v34h-34v-34z" fill="rgb(255,255,255)"/>
<path d="M476 544h34v34h-34v-34z" fill="rgb(50,71,251)"/>
<path d="M510 544h34v34h-34v-34z" fill="rgb(255,255,255)"/>
<path d="M544 544h34v34h-34v-34z" fill="rgb(50,71,251)"/>
<path d="M578 544h34v34h-34v-34z" fill="rgb(255,255,255)"/>
<path d="M612 544h34v34h-34v-34z" fill="rgb(50,71,251)"/>
<path d="M646 544h34v34h-34v-34z" fill="rgb(255,255,255)"/>
<path d="M680 544h34v34h-34v-34z" fill="rgb(50,71,251)"/>
<path d="M714 544h34v34h-34v-34z" fill="rgb(255,255,255)"/>
<path d="M748 544h34v34h-34v-34z" fill="rgb(50,71,251)"/>
<path d="M102 578h34v34h-34v-34z" fill="rgb(50,71,251)"/>
<path d="M136 578h34v34h-34v-34z" fill="rgb(255,255,255)"/>
<path d="M170 578h34v34h-34v-34z" fill="rgb(50,71,251)"/>
<path d="M204 578h34v34h-34v-34z" fill="rgb(255,255,255)"/>
<path d="M238 578h34v34h-34v-34z" fill="rgb(50,71,251)"/>
<path d="M272 578h34v34h-34v-34z" fill="rgb(255,255,255)"/>
<path d="M306 578h34v34h-34v-34z" fill="rgb(50,71,251)"/>
<path d="M340 578h34v34h-34v-34z" fill="rgb(255,255,255)"/>
<path d="M374 578h34v34h-34v-34z" fill="rgb(50,71,251)"/>
<path d="M408 578h34v34h-34v-34z" fill="rgb(255,255,255)"/>
<path d="M442 578h34v34h-34v-34z" fill="rgb(50,71,251)"/>
<path d="M476 578h34v34h-34v-34z" fill="rgb(255,255,255)"/>
<path d="M510 578h34v34h-34v-34z" fill="rgb(50,71,251)"/>
<path d="M544 578h34v34h-34v-34z" fill="rgb(255,255,255)"/>
<path d="M578 578h34v34h-34v-34z" fill="rgb(50,71,251)"/>
<path d="M612 578h34v34h-34v-34z" fill="rgb(255,255,255)"/>
<path d="M646 578h34v34h-34v-34z" fill="rgb(50,71,251)"/>
<path d="M680 578h34v34h-34v-34z" fill="rgb(255,255,255)"/>
<path d="M714 578h34v34h-34v-34z" fill="rgb(50,71,251)"/>
<path d="M68 612h34v34h-34v-34z" fill="rgb(50,71,251)"/>
<path d="M102 612h34v34h-34v-34z" fill="rgb(255,255,255)"/>
<path d="M136 612h34v34h-34v-34z" fill="rgb(50,71,251)"/>
<path d="M170 612h34v34h-34v-34z" fill="rgb(255,255,255)"/>
<path d="M204 612h34v34h-34v-34z" fill="rgb(50,71,251)"/>
<path d="M238 612h34v34h-34v-34z" fill="rgb(255,255,255)"/>
<path d="M272 612h34v34h-34v-34z" fill="rgb(50,71,251)"/>
<path d="M306 612h34v34h-34v-34z" fill="rgb(255,255,255)"/>
<path d="M340 612h34v34h-34v-34z" fill="rgb(50,71,251)"/>
<path d="M374 612h34v34h-34v-34z" fill="rgb(255,255,255)"/>
<path d="M408 612h34v34h-34v-34z" fill="rgb(50,71,251)"/>
<path d="M442 612h34v34h-34v-34z" fill="rgb(255,255,255)"/>
<path d="M476 612h34v34h-34v-34z" fill="rgb(50,71,251)"/>
<path d="M510 612h34v34h-34v-34z" fill="rgb(255,255,255)"/>
<path d="M544 612h34v34h-34v-34z" fill="rgb(50,71,251)"/>
<path d="M578 612h34v34h-34v-34z" fill="rgb(255,255,255)"/>
<path d="M612 612h34v34h-34v-34z" fill="rgb(50,71,251)"/>
<path d="M646 612h34v34h-34v-34z" fill="rgb(255,255,255)"/>
<path d="M680 612h34v34h-34v-34z" fill="rgb(50,71,251)"/>
<path d="M714 612h34v34h-34v-34z" fill="rgb(255,255,255)"/>
<path d="M748 612h34v34h-34v-34z" fill="rgb(50,71,251)"/>
<path d="M102 646h34v34h-34v-34z" fill="rgb(50,71,251)"/>
<path d="M136 646h34v34h-34v-34z" fill="rgb(255,255,255)"/>
<path d="M170 646h34v34h-34v-34z" fill="rgb(50,71,251)"/>
<path d="M204 646h34v34h-34v-34z" fill="rgb(255,255,255)"/>
<path d="M238 646h34v34h-34v-34z" fill="rgb(50,71,251)"/>
<path d="M272 646h34v34h-34v-34z" fill="rgb(255,255,255)"/>
<path d="M306 646h34v34h-34v-34z" fill="rgb(50,71,251)"/>
<path d="M340 646h34v34h-34v-34z" fill="rgb(255,255,255)"/>
<path d="M374 646h34v34h-34v-34z" fill="rgb(50,71,251)"/>
<path d="M408 646h34v34h-34v-34z" fill="rgb(255,255,255)"/>
<path d="M442 646h34v34h-34v-34z" fill="rgb(50,71,251)"/>
<path d="M476 646h34v34h-34v-34z" fill="rgb(255,255,255)"/>
<path d="M510 646h34v34h-34v-34z" fill="rgb(50,71,251)"/>
<path d="M544 646h34v34h-34v-34z" fill="rgb(255,255,255)"/>
<path d="M578 646h34v34h-34v-34z" fill="rgb(50,71,251)"/>
<path d="M612 646h34v34h-34v-34z" fill="rgb(255,255,255)"/>
<path d="M646 646h34v34h-34v-34z" fill="rgb(50,71,251)"/>
<path d="M680 646h34v34h-34v-34z" fill="rgb(255,255,255)"/>
<path d="M714 646h34v34h-34v-34z" fill="rgb(50,71,251)"/>
<path d="M68 680h34v34h-34v-34z" fill="rgb(50,71,251)"/>
<path d="M102 680h34v34h-34v-34z" fill="rgb(255,255,255)"/>
<path d="M136 680h34v34h-34v-34z" fill="rgb(50,71,251)"/>
<path d="M170 680h34v34h-34v-34z" fill="rgb(255,255,255)"/>
<path d="M204 680h34v34h-34v-34z" fill="rgb(50,71,251)"/>
<path d="M238 680h34v34h-34v-34z" fill="rgb(255,255,255)"/>
<path d="M272 680h34v34h-34v-34z" fill="rgb(50,71,251)"/>
<path d="M306 680h34v34h-34v-34z" fill="rgb(255,255,255)"/>
<path d="M340 680h34v34h-34v-34z" fill="rgb(50,71,251)"/>
<path d="M374 680h34v34h-34v-34z" fill="rgb(255,255,255)"/>
<path d="M408 680h34v34h-34v-34z" fill="rgb(50,71,251)"/>
<path d="M442 680h34v34h-34v-34z" fill="rgb(255,255,255)"/>
<path d="M476 680h34v34h-34v-34z" fill="rgb(50,71,251)"/>
<path d="M510 680h34v34h-34v-34z" fill="rgb(255,255,255)"/>
<path d="M544 680h34v34h-34v-34z" fill="rgb(50,71,251)"/>
<path d="M578 680h34v34h-34v-34z" fill="rgb(255,255,255)"/>
<path d="M612 680h34v34h-34v-34z" fill="rgb(50,71,251)"/>
<path d="M646 680h34v34h-34v-34z" fill="rgb(255,255,255)"/>
<path d="M680 680h34v34h-34v-34z" fill="rgb(50,71,251)"/>
<path d="M714 680h34v34h-34v-34z" fill="rgb(255,255,255)"/>
<path d="M748 680h34v34h-34v-34z" fill="rgb(50,71,251)"/>
<path d="M102 714h34v34h-34v-34z" fill="rgb(50,71,251)"/>
<path d="M136 714h34v34h-34v-34z" fill="rgb(255,255,255)"/>
<path d="M170 714h34v34h-34v-34z" fill="rgb(50,71,251)"/>
<path d="M204 714h34v34h-34v-34z" fill="rgb(255,255,255)"/>
<path d="M238 714h34v34h-34v-34z" fill="rgb(50,71,251)"/>
<path d="M272 714h34v34h-34v-34z" fill="rgb(255,255,255)"/>
<path d="M306 714h34v34h-34v-34z" fill="rgb(50,71,251)"/>
<path d="M340 714h34v34h-34v-34z" fill="rgb(255,255,255)"/>
<path d="M374 714h34v34h-34v-34z" fill="rgb(50,71,251)"/>
<path d="M408 714h34v34h-34v-34z" fill="rgb(255,255,255)"/>
<path d="M442 714h34v34h-34v-34z" fill="rgb(50,71,251)"/>
<path d="M476 714h34v34h-34v-34z" fill="rgb(255,255,255)"/>
<path d="M510 714h34v34h-34v-34z" fill="rgb(50,71,251)"/>
<path d="M544 714h34v34h-34v-34z" fill="rgb(255,255,255)"/>
<path d="M578 714h34v34h-34v-34z" fill="rgb(50,71,251)"/>
<path d="M612 714h34v34h-34v-34z" fill="rgb(255,255,255)"/>
<path d="M646 714h34v34h-34v-34z" fill="rgb(50,71,251)"/>
<path d="M680 714h34v34h-34v-34z" fill="rgb(255,255,255)"/>
<path d="M714 714h34v34h-34v-34z" fill="rgb(50,71,251)"/>
<path d="M68 748h34v34h-34v-34z" fill="rgb(50,71,251)"/>
<path d="M136 748h34v34h-34v-34z" fill="rgb(50,71,251)"/>
<path d="M204 748h34v34h-34v-34z" fill="rgb(50,71,251)"/>
<path d="M272 748h34v34h-34v-34z" fill="rgb(50,71,251)"/>
<path d="M340 748h34v34h-34v-34z" fill="rgb(50,71,251)"/>
<path d="M408 748h34v34h-34v-34z" fill="rgb(50,71,251)"/>
<path d="M476 748h34v34h-34v-34z" fill="rgb(50,71,251)"/>
<path d="M544 748h34v34h-34v-34z" fill="rgb(50,71,251)"/>
<path d="M612 748h34v34h-34v-34z" fill="rgb(50,71,251)"/>
<path d="M680 748h34v34h-34v-34z" fill="rgb(50,71,251)"/>
<path d="M748 748h34v34h-34v-34z" fill="rgb(50,71,251)"/>
</svg>