<svg xmlns="http://www.w3.org/2000/svg" viewBox="0 -0.5 850 714" shape-rendering="crispEdges">
<metadata>Made with Pixels to Svg https://codepen.io/shshaw/pen/XbxvNj</metadata>
<path stroke="#4e2d05" d="M68 0h102M68 1h102M68 2h102M68 3h102M68 4h102M68 5h102M68 6h102M68 7h102M68 8h102M68 9h102M68 10h102M68 11h102M68 12h102M68 13h102M68 14h102M68 15h102M68 16h102M68 17h102M68 18h102M68 19h102M68 20h102M68 21h102M68 22h102M68 23h102M68 24h102M68 25h102M68 26h102M68 27h102M68 28h102M68 29h102M68 30h102M68 31h102M68 32h102M68 33h102M68 34h102M68 35h102M68 36h102M68 37h102M68 38h102M68 39h102M68 40h102M68 41h102M68 42h102M68 43h102M68 44h102M68 45h102M68 46h102M68 47h102M68 48h102M68 49h102M68 50h102M68 51h102M68 52h102M68 53h102M68 54h102M68 55h102M68 56h102M68 57h102M68 58h102M68 59h102M68 60h102M68 61h102M68 62h102M68 63h102M68 64h102M68 65h102M68 66h102M68 67h102M68 68h102M68 69h102M68 70h102M68 71h102M68 72h102M68 73h102M68 74h102M68 75h102M68 76h102M68 77h102M68 78h102M68 79h102M68 80h102M68 81h102M68 82h102M68 83h102M68 84h102M68 85h102M68 86h102M68 87h102M68 88h102M68 89h102M68 90h102M68 91h102M68 92h102M68 93h102M68 94h102M68 95h102M68 96h102M68 97h102M68 98h102M68 99h102M68 100h102M68 101h102" />
<path stroke="#eddd31" d="M34 102h34M102 102h34M170 102h34M34 103h34M102 103h34M170 103h34M34 104h34M102 104h34M170 104h34M34 105h34M102 105h34M170 105h34M34 106h34M102 106h34M170 106h34M34 107h34M102 107h34M170 107h34M34 108h34M102 108h34M170 108h34M34 109h34M102 109h34M170 109h34M34 110h34M102 110h34M170 110h34M34 111h34M102 111h34M170 111h34M34 112h34M102 112h34M170 112h34M34 113h34M102 113h34M170 113h34M34 114h34M102 114h34M170 114h34M34 115h34M102 115h34M170 115h34M34 116h34M102 116h34M170 116h34M34 117h34M102 117h34M170 117h34M34 118h34M102 118h34M170 118h34M34 119h34M102 119h34M170 119h34M34 120h34M102 120h34M170 120h34M34 121h34M102 121h34M170 121h34M34 122h34M102 122h34M170 122h34M34 123h34M102 123h34M170 123h34M34 124h34M102 124h34M170 124h34M34 125h34M102 125h34M170 125h34M34 126h34M102 126h34M170 126h34M34 127h34M102 127h34M170 127h34M34 128h34M102 128h34M170 128h34M34 129h34M102 129h34M170 129h34M34 130h34M102 130h34M170 130h34M34 131h34M102 131h34M170 131h34M34 132h34M102 132h34M170 132h34M34 133h34M102 133h34M170 133h34M34 134h34M102 134h34M170 134h34M34 135h34M102 135h34M170 135h34M34 136h34M102 136h34M170 136h34M34 137h34M102 137h34M170 137h34M34 138h34M102 138h34M170 138h34M34 139h34M102 139h34M170 139h34M34 140h34M102 140h34M170 140h34M34 141h34M102 141h34M170 141h34M34 142h34M102 142h34M170 142h34M34 143h34M102 143h34M170 143h34M34 144h34M102 144h34M170 144h34M34 145h34M102 145h34M170 145h34M34 146h34M102 146h34M170 146h34M34 147h34M102 147h34M170 147h34M34 148h34M102 148h34M170 148h34M34 149h34M102 149h34M170 149h34M34 150h34M102 150h34M170 150h34M34 151h34M102 151h34M170 151h34M34 152h34M102 152h34M170 152h34M34 153h34M102 153h34M170 153h34M34 154h34M102 154h34M170 154h34M34 155h34M102 155h34M170 155h34M34 156h34M102 156h34M170 156h34M34 157h34M102 157h34M170 157h34M34 158h34M102 158h34M170 158h34M34 159h34M102 159h34M170 159h34M34 160h34M102 160h34M170 160h34M34 161h34M102 161h34M170 161h34M34 162h34M102 162h34M170 162h34M34 163h34M102 163h34M170 163h34M34 164h34M102 164h34M170 164h34M34 165h34M102 165h34M170 165h34M34 166h34M102 166h34M170 166h34M34 167h34M102 167h34M170 167h34M34 168h34M102 168h34M170 168h34M34 169h34M102 169h34M170 169h34M0 170h34M102 170h34M170 170h68M0 171h34M102 171h34M170 171h68M0 172h34M102 172h34M170 172h68M0 173h34M102 173h34M170 173h68M0 174h34M102 174h34M170 174h68M0 175h34M102 175h34M170 175h68M0 176h34M102 176h34M170 176h68M0 177h34M102 177h34M170 177h68M0 178h34M102 178h34M170 178h68M0 179h34M102 179h34M170 179h68M0 180h34M102 180h34M170 180h68M0 181h34M102 181h34M170 181h68M0 182h34M102 182h34M170 182h68M0 183h34M102 183h34M170 183h68M0 184h34M102 184h34M170 184h68M0 185h34M102 185h34M170 185h68M0 186h34M102 186h34M170 186h68M0 187h34M102 187h34M170 187h68M0 188h34M102 188h34M170 188h68M0 189h34M102 189h34M170 189h68M0 190h34M102 190h34M170 190h68M0 191h34M102 191h34M170 191h68M0 192h34M102 192h34M170 192h68M0 193h34M102 193h34M170 193h68M0 194h34M102 194h34M170 194h68M0 195h34M102 195h34M170 195h68M0 196h34M102 196h34M170 196h68M0 197h34M102 197h34M170 197h68M0 198h34M102 198h34M170 198h68M0 199h34M102 199h34M170 199h68M0 200h34M102 200h34M170 200h68M0 201h34M102 201h34M170 201h68M0 202h34M102 202h34M170 202h68M0 203h34M102 203h34M170 203h68M0 204h34M102 204h34M204 204h68M0 205h34M102 205h34M204 205h68M0 206h34M102 206h34M204 206h68M0 207h34M102 207h34M204 207h68M0 208h34M102 208h34M204 208h68M0 209h34M102 209h34M204 209h68M0 210h34M102 210h34M204 210h68M0 211h34M102 211h34M204 211h68M0 212h34M102 212h34M204 212h68M0 213h34M102 213h34M204 213h68M0 214h34M102 214h34M204 214h68M0 215h34M102 215h34M204 215h68M0 216h34M102 216h34M204 216h68M0 217h34M102 217h34M204 217h68M0 218h34M102 218h34M204 218h68M0 219h34M102 219h34M204 219h68M0 220h34M102 220h34M204 220h68M0 221h34M102 221h34M204 221h68M0 222h34M102 222h34M204 222h68M0 223h34M102 223h34M204 223h68M0 224h34M102 224h34M204 224h68M0 225h34M102 225h34M204 225h68M0 226h34M102 226h34M204 226h68M0 227h34M102 227h34M204 227h68M0 228h34M102 228h34M204 228h68M0 229h34M102 229h34M204 229h68M0 230h34M102 230h34M204 230h68M0 231h34M102 231h34M204 231h68M0 232h34M102 232h34M204 232h68M0 233h34M102 233h34M204 233h68M0 234h34M102 234h34M204 234h68M0 235h34M102 235h34M204 235h68M0 236h34M102 236h34M204 236h68M0 237h34M102 237h34M204 237h68M0 238h34M102 238h68M238 238h34M0 239h34M102 239h68M238 239h34M0 240h34M102 240h68M238 240h34M0 241h34M102 241h68M238 241h34M0 242h34M102 242h68M238 242h34M0 243h34M102 243h68M238 243h34M0 244h34M102 244h68M238 244h34M0 245h34M102 245h68M238 245h34M0 246h34M102 246h68M238 246h34M0 247h34M102 247h68M238 247h34M0 248h34M102 248h68M238 248h34M0 249h34M102 249h68M238 249h34M0 250h34M102 250h68M238 250h34M0 251h34M102 251h68M238 251h34M0 252h34M102 252h68M238 252h34M0 253h34M102 253h68M238 253h34M0 254h34M102 254h68M238 254h34M0 255h34M102 255h68M238 255h34M0 256h34M102 256h68M238 256h34M0 257h34M102 257h68M238 257h34M0 258h34M102 258h68M238 258h34M0 259h34M102 259h68M238 259h34M0 260h34M102 260h68M238 260h34M0 261h34M102 261h68M238 261h34M0 262h34M102 262h68M238 262h34M0 263h34M102 263h68M238 263h34M0 264h34M102 264h68M238 264h34M0 265h34M102 265h68M238 265h34M0 266h34M102 266h68M238 266h34M0 267h34M102 267h68M238 267h34M0 268h34M102 268h68M238 268h34M0 269h34M102 269h68M238 269h34M0 270h34M102 270h68M238 270h34M0 271h34M102 271h68M238 271h34M0 272h34M136 272h34M272 272h34M0 273h34M136 273h34M272 273h34M0 274h34M136 274h34M272 274h34M0 275h34M136 275h34M272 275h34M0 276h34M136 276h34M272 276h34M0 277h34M136 277h34M272 277h34M0 278h34M136 278h34M272 278h34M0 279h34M136 279h34M272 279h34M0 280h34M136 280h34M272 280h34M0 281h34M136 281h34M272 281h34M0 282h34M136 282h34M272 282h34M0 283h34M136 283h34M272 283h34M0 284h34M136 284h34M272 284h34M0 285h34M136 285h34M272 285h34M0 286h34M136 286h34M272 286h34M0 287h34M136 287h34M272 287h34M0 288h34M136 288h34M272 288h34M0 289h34M136 289h34M272 289h34M0 290h34M136 290h34M272 290h34M0 291h34M136 291h34M272 291h34M0 292h34M136 292h34M272 292h34M0 293h34M136 293h34M272 293h34M0 294h34M136 294h34M272 294h34M0 295h34M136 295h34M272 295h34M0 296h34M136 296h34M272 296h34M0 297h34M136 297h34M272 297h34M0 298h34M136 298h34M272 298h34M0 299h34M136 299h34M272 299h34M0 300h34M136 300h34M272 300h34M0 301h34M136 301h34M272 301h34M0 302h34M136 302h34M272 302h34M0 303h34M136 303h34M272 303h34M0 304h34M136 304h34M272 304h34M0 305h34M136 305h34M272 305h34M0 306h34M136 306h34M306 306h34M0 307h34M136 307h34M306 307h34M0 308h34M136 308h34M306 308h34M0 309h34M136 309h34M306 309h34M0 310h34M136 310h34M306 310h34M0 311h34M136 311h34M306 311h34M0 312h34M136 312h34M306 312h34M0 313h34M136 313h34M306 313h34M0 314h34M136 314h34M306 314h34M0 315h34M136 315h34M306 315h34M0 316h34M136 316h34M306 316h34M0 317h34M136 317h34M306 317h34M0 318h34M136 318h34M306 318h34M0 319h34M136 319h34M306 319h34M0 320h34M136 320h34M306 320h34M0 321h34M136 321h34M306 321h34M0 322h34M136 322h34M306 322h34M0 323h34M136 323h34M306 323h34M0 324h34M136 324h34M306 324h34M0 325h34M136 325h34M306 325h34M0 326h34M136 326h34M306 326h34M0 327h34M136 327h34M306 327h34M0 328h34M136 328h34M306 328h34M0 329h34M136 329h34M306 329h34M0 330h34M136 330h34M306 330h34M0 331h34M136 331h34M306 331h34M0 332h34M136 332h34M306 332h34M0 333h34M136 333h34M306 333h34M0 334h34M136 334h34M306 334h34M0 335h34M136 335h34M306 335h34M0 336h34M136 336h34M306 336h34M0 337h34M136 337h34M306 337h34M0 338h34M136 338h34M306 338h34M0 339h34M136 339h34M306 339h34M0 340h34M170 340h34M340 340h34M0 341h34M170 341h34M340 341h34M0 342h34M170 342h34M340 342h34M0 343h34M170 343h34M340 343h34M0 344h34M170 344h34M340 344h34M0 345h34M170 345h34M340 345h34M0 346h34M170 346h34M340 346h34M0 347h34M170 347h34M340 347h34M0 348h34M170 348h34M340 348h34M0 349h34M170 349h34M340 349h34M0 350h34M170 350h34M340 350h34M0 351h34M170 351h34M340 351h34M0 352h34M170 352h34M340 352h34M0 353h34M170 353h34M340 353h34M0 354h34M170 354h34M340 354h34M0 355h34M170 355h34M340 355h34M0 356h34M170 356h34M340 356h34M0 357h34M170 357h34M340 357h34M0 358h34M170 358h34M340 358h34M0 359h34M170 359h34M340 359h34M0 360h34M170 360h34M340 360h34M0 361h34M170 361h34M340 361h34M0 362h34M170 362h34M340 362h34M0 363h34M170 363h34M340 363h34M0 364h34M170 364h34M340 364h34M0 365h34M170 365h34M340 365h34M0 366h34M170 366h34M340 366h34M0 367h34M170 367h34M340 367h34M0 368h34M170 368h34M340 368h34M0 369h34M170 369h34M340 369h34M0 370h34M170 370h34M340 370h34M0 371h34M170 371h34M340 371h34M0 372h34M170 372h34M340 372h34M0 373h34M170 373h34M340 373h34M0 374h34M170 374h68M374 374h68M680 374h170M0 375h34M170 375h68M374 375h68M680 375h170M0 376h34M170 376h68M374 376h68M680 376h170M0 377h34M170 377h68M374 377h68M680 377h170M0 378h34M170 378h68M374 378h68M680 378h170M0 379h34M170 379h68M374 379h68M680 379h170M0 380h34M170 380h68M374 380h68M680 380h170M0 381h34M170 381h68M374 381h68M680 381h170M0 382h34M170 382h68M374 382h68M680 382h170M0 383h34M170 383h68M374 383h68M680 383h170M0 384h34M170 384h68M374 384h68M680 384h170M0 385h34M170 385h68M374 385h68M680 385h170M0 386h34M170 386h68M374 386h68M680 386h170M0 387h34M170 387h68M374 387h68M680 387h170M0 388h34M170 388h68M374 388h68M680 388h170M0 389h34M170 389h68M374 389h68M680 389h170M0 390h34M170 390h68M374 390h68M680 390h170M0 391h34M170 391h68M374 391h68M680 391h170M0 392h34M170 392h68M374 392h68M680 392h170M0 393h34M170 393h68M374 393h68M680 393h170M0 394h34M170 394h68M374 394h68M680 394h170M0 395h34M170 395h68M374 395h68M680 395h170M0 396h34M170 396h68M374 396h68M680 396h170M0 397h34M170 397h68M374 397h68M680 397h170M0 398h34M170 398h68M374 398h68M680 398h170M0 399h34M170 399h68M374 399h68M680 399h170M0 400h34M170 400h68M374 400h68M680 400h170M0 401h34M170 401h68M374 401h68M680 401h170M0 402h34M170 402h68M374 402h68M680 402h170M0 403h34M170 403h68M374 403h68M680 403h170M0 404h34M170 404h68M374 404h68M680 404h170M0 405h34M170 405h68M374 405h68M680 405h170M0 406h34M170 406h68M374 406h68M680 406h170M0 407h34M170 407h68M374 407h68M680 407h170M34 408h34M238 408h68M408 408h136M612 408h68M782 408h68M34 409h34M238 409h68M408 409h136M612 409h68M782 409h68M34 410h34M238 410h68M408 410h136M612 410h68M782 410h68M34 411h34M238 411h68M408 411h136M612 411h68M782 411h68M34 412h34M238 412h68M408 412h136M612 412h68M782 412h68M34 413h34M238 413h68M408 413h136M612 413h68M782 413h68M34 414h34M238 414h68M408 414h136M612 414h68M782 414h68M34 415h34M238 415h68M408 415h136M612 415h68M782 415h68M34 416h34M238 416h68M408 416h136M612 416h68M782 416h68M34 417h34M238 417h68M408 417h136M612 417h68M782 417h68M34 418h34M238 418h68M408 418h136M612 418h68M782 418h68M34 419h34M238 419h68M408 419h136M612 419h68M782 419h68M34 420h34M238 420h68M408 420h136M612 420h68M782 420h68M34 421h34M238 421h68M408 421h136M612 421h68M782 421h68M34 422h34M238 422h68M408 422h136M612 422h68M782 422h68M34 423h34M238 423h68M408 423h136M612 423h68M782 423h68M34 424h34M238 424h68M408 424h136M612 424h68M782 424h68M34 425h34M238 425h68M408 425h136M612 425h68M782 425h68M34 426h34M238 426h68M408 426h136M612 426h68M782 426h68M34 427h34M238 427h68M408 427h136M612 427h68M782 427h68M34 428h34M238 428h68M408 428h136M612 428h68M782 428h68M34 429h34M238 429h68M408 429h136M612 429h68M782 429h68M34 430h34M238 430h68M408 430h136M612 430h68M782 430h68M34 431h34M238 431h68M408 431h136M612 431h68M782 431h68M34 432h34M238 432h68M408 432h136M612 432h68M782 432h68M34 433h34M238 433h68M408 433h136M612 433h68M782 433h68M34 434h34M238 434h68M408 434h136M612 434h68M782 434h68M34 435h34M238 435h68M408 435h136M612 435h68M782 435h68M34 436h34M238 436h68M408 436h136M612 436h68M782 436h68M34 437h34M238 437h68M408 437h136M612 437h68M782 437h68M34 438h34M238 438h68M408 438h136M612 438h68M782 438h68M34 439h34M238 439h68M408 439h136M612 439h68M782 439h68M34 440h34M238 440h68M408 440h136M612 440h68M782 440h68M34 441h34M238 441h68M408 441h136M612 441h68M782 441h68M34 442h68M272 442h68M510 442h136M748 442h34M816 442h34M34 443h68M272 443h68M510 443h136M748 443h34M816 443h34M34 444h68M272 444h68M510 444h136M748 444h34M816 444h34M34 445h68M272 445h68M510 445h136M748 445h34M816 445h34M34 446h68M272 446h68M510 446h136M748 446h34M816 446h34M34 447h68M272 447h68M510 447h136M748 447h34M816 447h34M34 448h68M272 448h68M510 448h136M748 448h34M816 448h34M34 449h68M272 449h68M510 449h136M748 449h34M816 449h34M34 450h68M272 450h68M510 450h136M748 450h34M816 450h34M34 451h68M272 451h68M510 451h136M748 451h34M816 451h34M34 452h68M272 452h68M510 452h136M748 452h34M816 452h34M34 453h68M272 453h68M510 453h136M748 453h34M816 453h34M34 454h68M272 454h68M510 454h136M748 454h34M816 454h34M34 455h68M272 455h68M510 455h136M748 455h34M816 455h34M34 456h68M272 456h68M510 456h136M748 456h34M816 456h34M34 457h68M272 457h68M510 457h136M748 457h34M816 457h34M34 458h68M272 458h68M510 458h136M748 458h34M816 458h34M34 459h68M272 459h68M510 459h136M748 459h34M816 459h34M34 460h68M272 460h68M510 460h136M748 460h34M816 460h34M34 461h68M272 461h68M510 461h136M748 461h34M816 461h34M34 462h68M272 462h68M510 462h136M748 462h34M816 462h34M34 463h68M272 463h68M510 463h136M748 463h34M816 463h34M34 464h68M272 464h68M510 464h136M748 464h34M816 464h34M34 465h68M272 465h68M510 465h136M748 465h34M816 465h34M34 466h68M272 466h68M510 466h136M748 466h34M816 466h34M34 467h68M272 467h68M510 467h136M748 467h34M816 467h34M34 468h68M272 468h68M510 468h136M748 468h34M816 468h34M34 469h68M272 469h68M510 469h136M748 469h34M816 469h34M34 470h68M272 470h68M510 470h136M748 470h34M816 470h34M34 471h68M272 471h68M510 471h136M748 471h34M816 471h34M34 472h68M272 472h68M510 472h136M748 472h34M816 472h34M34 473h68M272 473h68M510 473h136M748 473h34M816 473h34M34 474h68M272 474h68M510 474h136M748 474h34M816 474h34M34 475h68M272 475h68M510 475h136M748 475h34M816 475h34M68 476h68M306 476h68M714 476h34M816 476h34M68 477h68M306 477h68M714 477h34M816 477h34M68 478h68M306 478h68M714 478h34M816 478h34M68 479h68M306 479h68M714 479h34M816 479h34M68 480h68M306 480h68M714 480h34M816 480h34M68 481h68M306 481h68M714 481h34M816 481h34M68 482h68M306 482h68M714 482h34M816 482h34M68 483h68M306 483h68M714 483h34M816 483h34M68 484h68M306 484h68M714 484h34M816 484h34M68 485h68M306 485h68M714 485h34M816 485h34M68 486h68M306 486h68M714 486h34M816 486h34M68 487h68M306 487h68M714 487h34M816 487h34M68 488h68M306 488h68M714 488h34M816 488h34M68 489h68M306 489h68M714 489h34M816 489h34M68 490h68M306 490h68M714 490h34M816 490h34M68 491h68M306 491h68M714 491h34M816 491h34M68 492h68M306 492h68M714 492h34M816 492h34M68 493h68M306 493h68M714 493h34M816 493h34M68 494h68M306 494h68M714 494h34M816 494h34M68 495h68M306 495h68M714 495h34M816 495h34M68 496h68M306 496h68M714 496h34M816 496h34M68 497h68M306 497h68M714 497h34M816 497h34M68 498h68M306 498h68M714 498h34M816 498h34M68 499h68M306 499h68M714 499h34M816 499h34M68 500h68M306 500h68M714 500h34M816 500h34M68 501h68M306 501h68M714 501h34M816 501h34M68 502h68M306 502h68M714 502h34M816 502h34M68 503h68M306 503h68M714 503h34M816 503h34M68 504h68M306 504h68M714 504h34M816 504h34M68 505h68M306 505h68M714 505h34M816 505h34M68 506h68M306 506h68M714 506h34M816 506h34M68 507h68M306 507h68M714 507h34M816 507h34M68 508h68M306 508h68M714 508h34M816 508h34M68 509h68M306 509h68M714 509h34M816 509h34M102 510h68M374 510h68M578 510h136M782 510h68M102 511h68M374 511h68M578 511h136M782 511h68M102 512h68M374 512h68M578 512h136M782 512h68M102 513h68M374 513h68M578 513h136M782 513h68M102 514h68M374 514h68M578 514h136M782 514h68M102 515h68M374 515h68M578 515h136M782 515h68M102 516h68M374 516h68M578 516h136M782 516h68M102 517h68M374 517h68M578 517h136M782 517h68M102 518h68M374 518h68M578 518h136M782 518h68M102 519h68M374 519h68M578 519h136M782 519h68M102 520h68M374 520h68M578 520h136M782 520h68M102 521h68M374 521h68M578 521h136M782 521h68M102 522h68M374 522h68M578 522h136M782 522h68M102 523h68M374 523h68M578 523h136M782 523h68M102 524h68M374 524h68M578 524h136M782 524h68M102 525h68M374 525h68M578 525h136M782 525h68M102 526h68M374 526h68M578 526h136M782 526h68M102 527h68M374 527h68M578 527h136M782 527h68M102 528h68M374 528h68M578 528h136M782 528h68M102 529h68M374 529h68M578 529h136M782 529h68M102 530h68M374 530h68M578 530h136M782 530h68M102 531h68M374 531h68M578 531h136M782 531h68M102 532h68M374 532h68M578 532h136M782 532h68M102 533h68M374 533h68M578 533h136M782 533h68M102 534h68M374 534h68M578 534h136M782 534h68M102 535h68M374 535h68M578 535h136M782 535h68M102 536h68M374 536h68M578 536h136M782 536h68M102 537h68M374 537h68M578 537h136M782 537h68M102 538h68M374 538h68M578 538h136M782 538h68M102 539h68M374 539h68M578 539h136M782 539h68M102 540h68M374 540h68M578 540h136M782 540h68M102 541h68M374 541h68M578 541h136M782 541h68M102 542h68M374 542h68M578 542h136M782 542h68M102 543h68M374 543h68M578 543h136M782 543h68M136 544h68M408 544h204M748 544h68M136 545h68M408 545h204M748 545h68M136 546h68M408 546h204M748 546h68M136 547h68M408 547h204M748 547h68M136 548h68M408 548h204M748 548h68M136 549h68M408 549h204M748 549h68M136 550h68M408 550h204M748 550h68M136 551h68M408 551h204M748 551h68M136 552h68M408 552h204M748 552h68M136 553h68M408 553h204M748 553h68M136 554h68M408 554h204M748 554h68M136 555h68M408 555h204M748 555h68M136 556h68M408 556h204M748 556h68M136 557h68M408 557h204M748 557h68M136 558h68M408 558h204M748 558h68M136 559h68M408 559h204M748 559h68M136 560h68M408 560h204M748 560h68M136 561h68M408 561h204M748 561h68M136 562h68M408 562h204M748 562h68M136 563h68M408 563h204M748 563h68M136 564h68M408 564h204M748 564h68M136 565h68M408 565h204M748 565h68M136 566h68M408 566h204M748 566h68M136 567h68M408 567h204M748 567h68M136 568h68M408 568h204M748 568h68M136 569h68M408 569h204M748 569h68M136 570h68M408 570h204M748 570h68M136 571h68M408 571h204M748 571h68M136 572h68M408 572h204M748 572h68M136 573h68M408 573h204M748 573h68M136 574h68M408 574h204M748 574h68M136 575h68M408 575h204M748 575h68M136 576h68M408 576h204M748 576h68M136 577h68M408 577h204M748 577h68M170 578h102M714 578h68M170 579h102M714 579h68M170 580h102M714 580h68M170 581h102M714 581h68M170 582h102M714 582h68M170 583h102M714 583h68M170 584h102M714 584h68M170 585h102M714 585h68M170 586h102M714 586h68M170 587h102M714 587h68M170 588h102M714 588h68M170 589h102M714 589h68M170 590h102M714 590h68M170 591h102M714 591h68M170 592h102M714 592h68M170 593h102M714 593h68M170 594h102M714 594h68M170 595h102M714 595h68M170 596h102M714 596h68M170 597h102M714 597h68M170 598h102M714 598h68M170 599h102M714 599h68M170 600h102M714 600h68M170 601h102M714 601h68M170 602h102M714 602h68M170 603h102M714 603h68M170 604h102M714 604h68M170 605h102M714 605h68M170 606h102M714 606h68M170 607h102M714 607h68M170 608h102M714 608h68M170 609h102M714 609h68M170 610h102M714 610h68M170 611h102M714 611h68M238 612h102M646 612h102M238 613h102M646 613h102M238 614h102M646 614h102M238 615h102M646 615h102M238 616h102M646 616h102M238 617h102M646 617h102M238 618h102M646 618h102M238 619h102M646 619h102M238 620h102M646 620h102M238 621h102M646 621h102M238 622h102M646 622h102M238 623h102M646 623h102M238 624h102M646 624h102M238 625h102M646 625h102M238 626h102M646 626h102M238 627h102M646 627h102M238 628h102M646 628h102M238 629h102M646 629h102M238 630h102M646 630h102M238 631h102M646 631h102M238 632h102M646 632h102M238 633h102M646 633h102M238 634h102M646 634h102M238 635h102M646 635h102M238 636h102M646 636h102M238 637h102M646 637h102M238 638h102M646 638h102M238 639h102M646 639h102M238 640h102M646 640h102M238 641h102M646 641h102M238 642h102M646 642h102M238 643h102M646 643h102M238 644h102M646 644h102M238 645h102M646 645h102M306 646h204M544 646h136M306 647h204M544 647h136M306 648h204M544 648h136M306 649h204M544 649h136M306 650h204M544 650h136M306 651h204M544 651h136M306 652h204M544 652h136M306 653h204M544 653h136M306 654h204M544 654h136M306 655h204M544 655h136M306 656h204M544 656h136M306 657h204M544 657h136M306 658h204M544 658h136M306 659h204M544 659h136M306 660h204M544 660h136M306 661h204M544 661h136M306 662h204M544 662h136M306 663h204M544 663h136M306 664h204M544 664h136M306 665h204M544 665h136M306 666h204M544 666h136M306 667h204M544 667h136M306 668h204M544 668h136M306 669h204M544 669h136M306 670h204M544 670h136M306 671h204M544 671h136M306 672h204M544 672h136M306 673h204M544 673h136M306 674h204M544 674h136M306 675h204M544 675h136M306 676h204M544 676h136M306 677h204M544 677h136M306 678h204M544 678h136M306 679h204M544 679h136M476 680h102M476 681h102M476 682h102M476 683h102M476 684h102M476 685h102M476 686h102M476 687h102M476 688h102M476 689h102M476 690h102M476 691h102M476 692h102M476 693h102M476 694h102M476 695h102M476 696h102M476 697h102M476 698h102M476 699h102M476 700h102M476 701h102M476 702h102M476 703h102M476 704h102M476 705h102M476 706h102M476 707h102M476 708h102M476 709h102M476 710h102M476 711h102M476 712h102M476 713h102" />
<path stroke="#feef47" d="M68 102h34M136 102h34M68 103h34M136 103h34M68 104h34M136 104h34M68 105h34M136 105h34M68 106h34M136 106h34M68 107h34M136 107h34M68 108h34M136 108h34M68 109h34M136 109h34M68 110h34M136 110h34M68 111h34M136 111h34M68 112h34M136 112h34M68 113h34M136 113h34M68 114h34M136 114h34M68 115h34M136 115h34M68 116h34M136 116h34M68 117h34M136 117h34M68 118h34M136 118h34M68 119h34M136 119h34M68 120h34M136 120h34M68 121h34M136 121h34M68 122h34M136 122h34M68 123h34M136 123h34M68 124h34M136 124h34M68 125h34M136 125h34M68 126h34M136 126h34M68 127h34M136 127h34M68 128h34M136 128h34M68 129h34M136 129h34M68 130h34M136 130h34M68 131h34M136 131h34M68 132h34M136 132h34M68 133h34M136 133h34M68 134h34M136 134h34M68 135h34M136 135h34M68 136h34M136 136h34M68 137h34M136 137h34M68 138h34M136 138h34M68 139h34M136 139h34M68 140h34M136 140h34M68 141h34M136 141h34M68 142h34M136 142h34M68 143h34M136 143h34M68 144h34M136 144h34M68 145h34M136 145h34M68 146h34M136 146h34M68 147h34M136 147h34M68 148h34M136 148h34M68 149h34M136 149h34M68 150h34M136 150h34M68 151h34M136 151h34M68 152h34M136 152h34M68 153h34M136 153h34M68 154h34M136 154h34M68 155h34M136 155h34M68 156h34M136 156h34M68 157h34M136 157h34M68 158h34M136 158h34M68 159h34M136 159h34M68 160h34M136 160h34M68 161h34M136 161h34M68 162h34M136 162h34M68 163h34M136 163h34M68 164h34M136 164h34M68 165h34M136 165h34M68 166h34M136 166h34M68 167h34M136 167h34M68 168h34M136 168h34M68 169h34M136 169h34M34 170h68M136 170h34M34 171h68M136 171h34M34 172h68M136 172h34M34 173h68M136 173h34M34 174h68M136 174h34M34 175h68M136 175h34M34 176h68M136 176h34M34 177h68M136 177h34M34 178h68M136 178h34M34 179h68M136 179h34M34 180h68M136 180h34M34 181h68M136 181h34M34 182h68M136 182h34M34 183h68M136 183h34M34 184h68M136 184h34M34 185h68M136 185h34M34 186h68M136 186h34M34 187h68M136 187h34M34 188h68M136 188h34M34 189h68M136 189h34M34 190h68M136 190h34M34 191h68M136 191h34M34 192h68M136 192h34M34 193h68M136 193h34M34 194h68M136 194h34M34 195h68M136 195h34M34 196h68M136 196h34M34 197h68M136 197h34M34 198h68M136 198h34M34 199h68M136 199h34M34 200h68M136 200h34M34 201h68M136 201h34M34 202h68M136 202h34M34 203h68M136 203h34M34 204h68M136 204h68M34 205h68M136 205h68M34 206h68M136 206h68M34 207h68M136 207h68M34 208h68M136 208h68M34 209h68M136 209h68M34 210h68M136 210h68M34 211h68M136 211h68M34 212h68M136 212h68M34 213h68M136 213h68M34 214h68M136 214h68M34 215h68M136 215h68M34 216h68M136 216h68M34 217h68M136 217h68M34 218h68M136 218h68M34 219h68M136 219h68M34 220h68M136 220h68M34 221h68M136 221h68M34 222h68M136 222h68M34 223h68M136 223h68M34 224h68M136 224h68M34 225h68M136 225h68M34 226h68M136 226h68M34 227h68M136 227h68M34 228h68M136 228h68M34 229h68M136 229h68M34 230h68M136 230h68M34 231h68M136 231h68M34 232h68M136 232h68M34 233h68M136 233h68M34 234h68M136 234h68M34 235h68M136 235h68M34 236h68M136 236h68M34 237h68M136 237h68M34 238h68M170 238h68M34 239h68M170 239h68M34 240h68M170 240h68M34 241h68M170 241h68M34 242h68M170 242h68M34 243h68M170 243h68M34 244h68M170 244h68M34 245h68M170 245h68M34 246h68M170 246h68M34 247h68M170 247h68M34 248h68M170 248h68M34 249h68M170 249h68M34 250h68M170 250h68M34 251h68M170 251h68M34 252h68M170 252h68M34 253h68M170 253h68M34 254h68M170 254h68M34 255h68M170 255h68M34 256h68M170 256h68M34 257h68M170 257h68M34 258h68M170 258h68M34 259h68M170 259h68M34 260h68M170 260h68M34 261h68M170 261h68M34 262h68M170 262h68M34 263h68M170 263h68M34 264h68M170 264h68M34 265h68M170 265h68M34 266h68M170 266h68M34 267h68M170 267h68M34 268h68M170 268h68M34 269h68M170 269h68M34 270h68M170 270h68M34 271h68M170 271h68M34 272h102M170 272h102M34 273h102M170 273h102M34 274h102M170 274h102M34 275h102M170 275h102M34 276h102M170 276h102M34 277h102M170 277h102M34 278h102M170 278h102M34 279h102M170 279h102M34 280h102M170 280h102M34 281h102M170 281h102M34 282h102M170 282h102M34 283h102M170 283h102M34 284h102M170 284h102M34 285h102M170 285h102M34 286h102M170 286h102M34 287h102M170 287h102M34 288h102M170 288h102M34 289h102M170 289h102M34 290h102M170 290h102M34 291h102M170 291h102M34 292h102M170 292h102M34 293h102M170 293h102M34 294h102M170 294h102M34 295h102M170 295h102M34 296h102M170 296h102M34 297h102M170 297h102M34 298h102M170 298h102M34 299h102M170 299h102M34 300h102M170 300h102M34 301h102M170 301h102M34 302h102M170 302h102M34 303h102M170 303h102M34 304h102M170 304h102M34 305h102M170 305h102M34 306h102M170 306h136M34 307h102M170 307h136M34 308h102M170 308h136M34 309h102M170 309h136M34 310h102M170 310h136M34 311h102M170 311h136M34 312h102M170 312h136M34 313h102M170 313h136M34 314h102M170 314h136M34 315h102M170 315h136M34 316h102M170 316h136M34 317h102M170 317h136M34 318h102M170 318h136M34 319h102M170 319h136M34 320h102M170 320h136M34 321h102M170 321h136M34 322h102M170 322h136M34 323h102M170 323h136M34 324h102M170 324h136M34 325h102M170 325h136M34 326h102M170 326h136M34 327h102M170 327h136M34 328h102M170 328h136M34 329h102M170 329h136M34 330h102M170 330h136M34 331h102M170 331h136M34 332h102M170 332h136M34 333h102M170 333h136M34 334h102M170 334h136M34 335h102M170 335h136M34 336h102M170 336h136M34 337h102M170 337h136M34 338h102M170 338h136M34 339h102M170 339h136M34 340h136M204 340h136M34 341h136M204 341h136M34 342h136M204 342h136M34 343h136M204 343h136M34 344h136M204 344h136M34 345h136M204 345h136M34 346h136M204 346h136M34 347h136M204 347h136M34 348h136M204 348h136M34 349h136M204 349h136M34 350h136M204 350h136M34 351h136M204 351h136M34 352h136M204 352h136M34 353h136M204 353h136M34 354h136M204 354h136M34 355h136M204 355h136M34 356h136M204 356h136M34 357h136M204 357h136M34 358h136M204 358h136M34 359h136M204 359h136M34 360h136M204 360h136M34 361h136M204 361h136M34 362h136M204 362h136M34 363h136M204 363h136M34 364h136M204 364h136M34 365h136M204 365h136M34 366h136M204 366h136M34 367h136M204 367h136M34 368h136M204 368h136M34 369h136M204 369h136M34 370h136M204 370h136M34 371h136M204 371h136M34 372h136M204 372h136M34 373h136M204 373h136M34 374h136M238 374h136M34 375h136M238 375h136M34 376h136M238 376h136M34 377h136M238 377h136M34 378h136M238 378h136M34 379h136M238 379h136M34 380h136M238 380h136M34 381h136M238 381h136M34 382h136M238 382h136M34 383h136M238 383h136M34 384h136M238 384h136M34 385h136M238 385h136M34 386h136M238 386h136M34 387h136M238 387h136M34 388h136M238 388h136M34 389h136M238 389h136M34 390h136M238 390h136M34 391h136M238 391h136M34 392h136M238 392h136M34 393h136M238 393h136M34 394h136M238 394h136M34 395h136M238 395h136M34 396h136M238 396h136M34 397h136M238 397h136M34 398h136M238 398h136M34 399h136M238 399h136M34 400h136M238 400h136M34 401h136M238 401h136M34 402h136M238 402h136M34 403h136M238 403h136M34 404h136M238 404h136M34 405h136M238 405h136M34 406h136M238 406h136M34 407h136M238 407h136M68 408h170M306 408h102M680 408h102M68 409h170M306 409h102M680 409h102M68 410h170M306 410h102M680 410h102M68 411h170M306 411h102M680 411h102M68 412h170M306 412h102M680 412h102M68 413h170M306 413h102M680 413h102M68 414h170M306 414h102M680 414h102M68 415h170M306 415h102M680 415h102M68 416h170M306 416h102M680 416h102M68 417h170M306 417h102M680 417h102M68 418h170M306 418h102M680 418h102M68 419h170M306 419h102M680 419h102M68 420h170M306 420h102M680 420h102M68 421h170M306 421h102M680 421h102M68 422h170M306 422h102M680 422h102M68 423h170M306 423h102M680 423h102M68 424h170M306 424h102M680 424h102M68 425h170M306 425h102M680 425h102M68 426h170M306 426h102M680 426h102M68 427h170M306 427h102M680 427h102M68 428h170M306 428h102M680 428h102M68 429h170M306 429h102M680 429h102M68 430h170M306 430h102M680 430h102M68 431h170M306 431h102M680 431h102M68 432h170M306 432h102M680 432h102M68 433h170M306 433h102M680 433h102M68 434h170M306 434h102M680 434h102M68 435h170M306 435h102M680 435h102M68 436h170M306 436h102M680 436h102M68 437h170M306 437h102M680 437h102M68 438h170M306 438h102M680 438h102M68 439h170M306 439h102M680 439h102M68 440h170M306 440h102M680 440h102M68 441h170M306 441h102M680 441h102M102 442h170M340 442h170M646 442h102M782 442h34M102 443h170M340 443h170M646 443h102M782 443h34M102 444h170M340 444h170M646 444h102M782 444h34M102 445h170M340 445h170M646 445h102M782 445h34M102 446h170M340 446h170M646 446h102M782 446h34M102 447h170M340 447h170M646 447h102M782 447h34M102 448h170M340 448h170M646 448h102M782 448h34M102 449h170M340 449h170M646 449h102M782 449h34M102 450h170M340 450h170M646 450h102M782 450h34M102 451h170M340 451h170M646 451h102M782 451h34M102 452h170M340 452h170M646 452h102M782 452h34M102 453h170M340 453h170M646 453h102M782 453h34M102 454h170M340 454h170M646 454h102M782 454h34M102 455h170M340 455h170M646 455h102M782 455h34M102 456h170M340 456h170M646 456h102M782 456h34M102 457h170M340 457h170M646 457h102M782 457h34M102 458h170M340 458h170M646 458h102M782 458h34M102 459h170M340 459h170M646 459h102M782 459h34M102 460h170M340 460h170M646 460h102M782 460h34M102 461h170M340 461h170M646 461h102M782 461h34M102 462h170M340 462h170M646 462h102M782 462h34M102 463h170M340 463h170M646 463h102M782 463h34M102 464h170M340 464h170M646 464h102M782 464h34M102 465h170M340 465h170M646 465h102M782 465h34M102 466h170M340 466h170M646 466h102M782 466h34M102 467h170M340 467h170M646 467h102M782 467h34M102 468h170M340 468h170M646 468h102M782 468h34M102 469h170M340 469h170M646 469h102M782 469h34M102 470h170M340 470h170M646 470h102M782 470h34M102 471h170M340 471h170M646 471h102M782 471h34M102 472h170M340 472h170M646 472h102M782 472h34M102 473h170M340 473h170M646 473h102M782 473h34M102 474h170M340 474h170M646 474h102M782 474h34M102 475h170M340 475h170M646 475h102M782 475h34M136 476h170M374 476h340M748 476h68M136 477h170M374 477h340M748 477h68M136 478h170M374 478h340M748 478h68M136 479h170M374 479h340M748 479h68M136 480h170M374 480h340M748 480h68M136 481h170M374 481h340M748 481h68M136 482h170M374 482h340M748 482h68M136 483h170M374 483h340M748 483h68M136 484h170M374 484h340M748 484h68M136 485h170M374 485h340M748 485h68M136 486h170M374 486h340M748 486h68M136 487h170M374 487h340M748 487h68M136 488h170M374 488h340M748 488h68M136 489h170M374 489h340M748 489h68M136 490h170M374 490h340M748 490h68M136 491h170M374 491h340M748 491h68M136 492h170M374 492h340M748 492h68M136 493h170M374 493h340M748 493h68M136 494h170M374 494h340M748 494h68M136 495h170M374 495h340M748 495h68M136 496h170M374 496h340M748 496h68M136 497h170M374 497h340M748 497h68M136 498h170M374 498h340M748 498h68M136 499h170M374 499h340M748 499h68M136 500h170M374 500h340M748 500h68M136 501h170M374 501h340M748 501h68M136 502h170M374 502h340M748 502h68M136 503h170M374 503h340M748 503h68M136 504h170M374 504h340M748 504h68M136 505h170M374 505h340M748 505h68M136 506h170M374 506h340M748 506h68M136 507h170M374 507h340M748 507h68M136 508h170M374 508h340M748 508h68M136 509h170M374 509h340M748 509h68M170 510h204M442 510h136M714 510h68M170 511h204M442 511h136M714 511h68M170 512h204M442 512h136M714 512h68M170 513h204M442 513h136M714 513h68M170 514h204M442 514h136M714 514h68M170 515h204M442 515h136M714 515h68M170 516h204M442 516h136M714 516h68M170 517h204M442 517h136M714 517h68M170 518h204M442 518h136M714 518h68M170 519h204M442 519h136M714 519h68M170 520h204M442 520h136M714 520h68M170 521h204M442 521h136M714 521h68M170 522h204M442 522h136M714 522h68M170 523h204M442 523h136M714 523h68M170 524h204M442 524h136M714 524h68M170 525h204M442 525h136M714 525h68M170 526h204M442 526h136M714 526h68M170 527h204M442 527h136M714 527h68M170 528h204M442 528h136M714 528h68M170 529h204M442 529h136M714 529h68M170 530h204M442 530h136M714 530h68M170 531h204M442 531h136M714 531h68M170 532h204M442 532h136M714 532h68M170 533h204M442 533h136M714 533h68M170 534h204M442 534h136M714 534h68M170 535h204M442 535h136M714 535h68M170 536h204M442 536h136M714 536h68M170 537h204M442 537h136M714 537h68M170 538h204M442 538h136M714 538h68M170 539h204M442 539h136M714 539h68M170 540h204M442 540h136M714 540h68M170 541h204M442 541h136M714 541h68M170 542h204M442 542h136M714 542h68M170 543h204M442 543h136M714 543h68M204 544h204M612 544h136M204 545h204M612 545h136M204 546h204M612 546h136M204 547h204M612 547h136M204 548h204M612 548h136M204 549h204M612 549h136M204 550h204M612 550h136M204 551h204M612 551h136M204 552h204M612 552h136M204 553h204M612 553h136M204 554h204M612 554h136M204 555h204M612 555h136M204 556h204M612 556h136M204 557h204M612 557h136M204 558h204M612 558h136M204 559h204M612 559h136M204 560h204M612 560h136M204 561h204M612 561h136M204 562h204M612 562h136M204 563h204M612 563h136M204 564h204M612 564h136M204 565h204M612 565h136M204 566h204M612 566h136M204 567h204M612 567h136M204 568h204M612 568h136M204 569h204M612 569h136M204 570h204M612 570h136M204 571h204M612 571h136M204 572h204M612 572h136M204 573h204M612 573h136M204 574h204M612 574h136M204 575h204M612 575h136M204 576h204M612 576h136M204 577h204M612 577h136M272 578h442M272 579h442M272 580h442M272 581h442M272 582h442M272 583h442M272 584h442M272 585h442M272 586h442M272 587h442M272 588h442M272 589h442M272 590h442M272 591h442M272 592h442M272 593h442M272 594h442M272 595h442M272 596h442M272 597h442M272 598h442M272 599h442M272 600h442M272 601h442M272 602h442M272 603h442M272 604h442M272 605h442M272 606h442M272 607h442M272 608h442M272 609h442M272 610h442M272 611h442M340 612h306M340 613h306M340 614h306M340 615h306M340 616h306M340 617h306M340 618h306M340 619h306M340 620h306M340 621h306M340 622h306M340 623h306M340 624h306M340 625h306M340 626h306M340 627h306M340 628h306M340 629h306M340 630h306M340 631h306M340 632h306M340 633h306M340 634h306M340 635h306M340 636h306M340 637h306M340 638h306M340 639h306M340 640h306M340 641h306M340 642h306M340 643h306M340 644h306M340 645h306M510 646h34M510 647h34M510 648h34M510 649h34M510 650h34M510 651h34M510 652h34M510 653h34M510 654h34M510 655h34M510 656h34M510 657h34M510 658h34M510 659h34M510 660h34M510 661h34M510 662h34M510 663h34M510 664h34M510 665h34M510 666h34M510 667h34M510 668h34M510 669h34M510 670h34M510 671h34M510 672h34M510 673h34M510 674h34M510 675h34M510 676h34M510 677h34M510 678h34M510 679h34" />
</svg>