<?xml version="1.0" encoding="UTF-8" standalone="no"?>
<!DOCTYPE svg PUBLIC "-//W3C//DTD SVG 1.1//EN" "http://www.w3.org/Graphics/SVG/1.1/DTD/svg11.dtd">
<svg version="1.1" xmlns="http://www.w3.org/2000/svg" xmlns:xlink="http://www.w3.org/1999/xlink" preserveAspectRatio="xMidYMid meet" viewBox="0 0 500 330" width="500" height="330"><defs><path d="M207.77 276.94L198.27 295.95" id="dabZfEDwbB"></path><path d="M220.03 250.83L227.25 254.17" id="a6ldWyuqx"></path><path d="M228.4 312.28L234.51 317.28" id="i30Jjqwvzb"></path><path d="M28.12 89.24L33.55 109.6L37.63 129.97L44.42 151.7L55.28 173.42L64.78 196.5L74.29 216.87L83.79 235.88L93.3 253.53L106.88 269.83L123.17 283.4L140.82 295.62L161.19 307.84L182.91 314.63L203.28 317.35L225.01 317.35L246.73 317.35L271.17 317.35L294.25 315.99L317.34 314.63L336.35 309.2L355.35 301.06L375.72 290.19L397.45 282.05L416.46 272.54L435.47 261.68L454.47 252.17L468.05 237.24L478.92 219.59L487.06 201.94L492.49 182.93L496.57 162.56" id="e4uqxtINLb"></path><path d="M214.56 301.38L232.21 309.53" id="a7b1UhQqoX"></path><path d="M230.85 309.53L222.71 291.88" id="d6W43QC75"></path><path d="M10.28 32.71L29.29 40.86L41.51 25.92" id="a3aBKlRRtf"></path><path d="M57.09 149.81L54.31 142.03" id="b2qHuRrFtp"></path><path d="M47.37 58.05L58.24 68.26L64.43 84.55L87.57 122.57L124.77 157.87L160.07 180.95L192.66 197.25L261.91 218.97L328.44 217.61L369.18 205.39L399.05 193.05L428.92 168.73L466.94 148.37L496.81 164.66L485.95 212.33L457.85 250.9C443.58 259.9 434.65 265.52 431.09 267.77C418.1 275.95 404.34 282.83 390 288.3C375.8 293.71 375.16 293.96 366.06 297.43C334.87 309.32 302.03 316.29 268.7 318.09C268.7 318.09 268.7 318.09 268.7 318.09L192.66 318.09C182.74 313.52 176.54 310.65 174.07 309.51C151.24 298.98 129.78 285.71 110.16 270.01C107.76 268.09 101.77 263.3 92.18 255.63L46.02 151.08L24.29 77.34L47.37 58.05Z" id="gEh5dKWuM"></path><path d="M81.04 100.45L104.73 130.47L128.43 139.02L167.8 158.3L209.51 165.77L259.57 177.59L294.33 177.59L326.32 177.59L365.43 165.77L425.05 154.91L447.29 149.47L472.32 139.02L463.98 154.91L445.9 161.7L404.19 192.92L345.78 216.16L265.13 222.8L238.71 216.16L185.87 196.87L141.38 177.59L120.52 158.3L81.04 129.11L57.34 85.66L50.99 61.88L81.04 100.45Z" id="a6v3TXF8mS"></path><path d="M491.5 156.74L495.03 165.8L468.83 149.24L473.69 136.34L491.5 156.74Z" id="b2P0iOblVm"></path><path d="M48.44 13.23L25.96 10.14L5.76 29.58L14.52 52.79L25.42 78.05L46.41 56.92L48.44 13.23Z" id="d3rsUHMLeE"></path></defs><g><g><g><g><use xlink:href="#dabZfEDwbB" opacity="1" fill-opacity="0" stroke="#000000" stroke-width="1" stroke-opacity="1"></use></g></g><g><g><use xlink:href="#a6ldWyuqx" opacity="1" fill-opacity="0" stroke="#000000" stroke-width="1" stroke-opacity="1"></use></g></g><g><g><use xlink:href="#i30Jjqwvzb" opacity="1" fill-opacity="0" stroke="#000000" stroke-width="1" stroke-opacity="1"></use></g></g><g><g><use xlink:href="#e4uqxtINLb" opacity="1" fill-opacity="0" stroke="#000000" stroke-width="1" stroke-opacity="1"></use></g></g><g><g><use xlink:href="#a7b1UhQqoX" opacity="1" fill-opacity="0" stroke="#000000" stroke-width="1" stroke-opacity="1"></use></g></g><g><g><use xlink:href="#d6W43QC75" opacity="1" fill-opacity="0" stroke="#000000" stroke-width="1" stroke-opacity="1"></use></g></g><g><g><use xlink:href="#a3aBKlRRtf" opacity="1" fill-opacity="0" stroke="#000000" stroke-width="1" stroke-opacity="1"></use></g></g><g><g><use xlink:href="#b2qHuRrFtp" opacity="1" fill-opacity="0" stroke="#000000" stroke-width="1" stroke-opacity="1"></use></g></g><g><use xlink:href="#gEh5dKWuM" opacity="1" fill="#fff666" fill-opacity="1"></use><g><use xlink:href="#gEh5dKWuM" opacity="1" fill-opacity="0" stroke="#000000" stroke-width="1" stroke-opacity="1"></use></g></g><g><use xlink:href="#a6v3TXF8mS" opacity="1" fill="#fff666" fill-opacity="1"></use><g><use xlink:href="#a6v3TXF8mS" opacity="1" fill-opacity="0" stroke="#000000" stroke-width="1" stroke-opacity="1"></use></g></g><g><use xlink:href="#b2P0iOblVm" opacity="1" fill="#635a41" fill-opacity="1"></use><g><use xlink:href="#b2P0iOblVm" opacity="1" fill-opacity="0" stroke="#000000" stroke-width="1" stroke-opacity="1"></use></g></g><g><use xlink:href="#d3rsUHMLeE" opacity="1" fill="#635a41" fill-opacity="1"></use><g><use xlink:href="#d3rsUHMLeE" opacity="1" fill-opacity="0" stroke="#000000" stroke-width="1" stroke-opacity="1"></use></g></g></g></g></svg>