<?xml version="1.0" encoding="UTF-8" standalone="no"?>
<!-- Created with Inkscape (http://www.inkscape.org/) -->

<svg
   xmlns:dc="http://purl.org/dc/elements/1.1/"
   xmlns:cc="http://creativecommons.org/ns#"
   xmlns:rdf="http://www.w3.org/1999/02/22-rdf-syntax-ns#"
   xmlns:svg="http://www.w3.org/2000/svg"
   xmlns="http://www.w3.org/2000/svg"
   xmlns:sodipodi="http://sodipodi.sourceforge.net/DTD/sodipodi-0.dtd"
   xmlns:inkscape="http://www.inkscape.org/namespaces/inkscape"
   version="1.1"
   id="svg3713"
   width="850"
   height="850"
   viewBox="0 0 850 850"
   sodipodi:docname="card.svg"
   inkscape:version="0.92.3 (2405546, 2018-03-11)">
  <metadata
     id="metadata3719">
    <rdf:RDF>
      <cc:Work
         rdf:about="">
        <dc:format>image/svg+xml</dc:format>
        <dc:type
           rdf:resource="http://purl.org/dc/dcmitype/StillImage" />
        <dc:title />
      </cc:Work>
    </rdf:RDF>
  </metadata>
  <defs
     id="defs3717" />
  <sodipodi:namedview
     pagecolor="#ffffff"
     bordercolor="#666666"
     borderopacity="1"
     objecttolerance="10"
     gridtolerance="10"
     guidetolerance="10"
     inkscape:pageopacity="0"
     inkscape:pageshadow="2"
     inkscape:window-width="1920"
     inkscape:window-height="1057"
     id="namedview3715"
     showgrid="false"
     inkscape:zoom="1.0447059"
     inkscape:cx="425"
     inkscape:cy="423.4743"
     inkscape:window-x="-8"
     inkscape:window-y="-8"
     inkscape:window-maximized="1"
     inkscape:current-layer="svg3713" />
  <g
     id="g3731"
     transform="translate(0.95721169,0.95720675)">
    <path
       style="fill:#ffffff"
       d="M 0,425 V 0 H 425 850 V 425 850 H 425 0 Z"
       id="path3737"
       inkscape:connector-curvature="0" />
    <path
       style="fill:#3146fa"
       d="M 0,425 V 0 H 425 850 V 425 850 H 425 0 Z m 816,0 V 34 H 425 34 V 425 816 H 425 816 Z M 68,765 v -17 h 17 17 V 731 714 H 85 68 v -17 -17 h 17 17 V 663 646 H 85 68 v -17 -17 h 17 17 V 595 578 H 85 68 v -17 -17 h 17 17 V 527 510 H 85 68 v -17 -17 h 17 17 V 459 442 H 85 68 v -17 -17 h 17 17 V 391 374 H 85 68 v -17 -17 h 17 17 V 323 306 H 85 68 v -17 -17 h 17 17 V 255 238 H 85 68 v -17 -17 h 17 17 V 187 170 H 85 68 v -17 -17 h 17 17 V 119 102 H 85 68 V 85 68 h 17 17 v 17 17 h 17 17 V 85 68 h 17 17 v 17 17 h 17 17 V 85 68 h 17 17 v 17 17 h 17 17 V 85 68 h 17 17 v 17 17 h 17 17 V 85 68 h 17 17 v 17 17 h 17 17 V 85 68 h 17 17 v 17 17 h 17 17 V 85 68 h 17 17 v 17 17 h 17 17 V 85 68 h 17 17 v 17 17 h 17 17 V 85 68 h 17 17 v 17 17 h 17 17 V 85 68 h 17 17 v 17 17 h 17 17 V 85 68 h 17 17 v 17 17 h -17 -17 v 17 17 h 17 17 v 17 17 h -17 -17 v 17 17 h 17 17 v 17 17 h -17 -17 v 17 17 h 17 17 v 17 17 h -17 -17 v 17 17 h 17 17 v 17 17 h -17 -17 v 17 17 h 17 17 v 17 17 h -17 -17 v 17 17 h 17 17 v 17 17 h -17 -17 v 17 17 h 17 17 v 17 17 h -17 -17 v 17 17 h 17 17 v 17 17 h -17 -17 v 17 17 h 17 17 v 17 17 h -17 -17 v 17 17 h 17 17 v 17 17 h -17 -17 v -17 -17 h -17 -17 v 17 17 h -17 -17 v -17 -17 h -17 -17 v 17 17 h -17 -17 v -17 -17 h -17 -17 v 17 17 h -17 -17 v -17 -17 h -17 -17 v 17 17 h -17 -17 v -17 -17 h -17 -17 v 17 17 h -17 -17 v -17 -17 h -17 -17 v 17 17 h -17 -17 v -17 -17 h -17 -17 v 17 17 h -17 -17 v -17 -17 h -17 -17 v 17 17 h -17 -17 v -17 -17 h -17 -17 v 17 17 h -17 -17 v -17 -17 h -17 -17 v 17 17 H 85 68 Z m 102,-34 v -17 h 17 17 v 17 17 h 17 17 v -17 -17 h 17 17 v 17 17 h 17 17 v -17 -17 h 17 17 v 17 17 h 17 17 v -17 -17 h 17 17 v 17 17 h 17 17 v -17 -17 h 17 17 v 17 17 h 17 17 v -17 -17 h 17 17 v 17 17 h 17 17 v -17 -17 h 17 17 v 17 17 h 17 17 v -17 -17 h 17 17 v 17 17 h 17 17 v -17 -17 h 17 17 v -17 -17 h -17 -17 v -17 -17 h 17 17 v -17 -17 h -17 -17 v -17 -17 h 17 17 v -17 -17 h -17 -17 v -17 -17 h 17 17 v -17 -17 h -17 -17 v -17 -17 h 17 17 v -17 -17 h -17 -17 v -17 -17 h 17 17 v -17 -17 h -17 -17 v -17 -17 h 17 17 v -17 -17 h -17 -17 v -17 -17 h 17 17 v -17 -17 h -17 -17 v -17 -17 h 17 17 v -17 -17 h -17 -17 v -17 -17 h -17 -17 v 17 17 h -17 -17 v -17 -17 h -17 -17 v 17 17 h -17 -17 v -17 -17 h -17 -17 v 17 17 h -17 -17 v -17 -17 h -17 -17 v 17 17 h -17 -17 v -17 -17 h -17 -17 v 17 17 h -17 -17 v -17 -17 h -17 -17 v 17 17 h -17 -17 v -17 -17 h -17 -17 v 17 17 h -17 -17 v -17 -17 h -17 -17 v 17 17 h -17 -17 v -17 -17 h -17 -17 v 17 17 h -17 -17 v 17 17 h 17 17 v 17 17 h -17 -17 v 17 17 h 17 17 v 17 17 h -17 -17 v 17 17 h 17 17 v 17 17 h -17 -17 v 17 17 h 17 17 v 17 17 h -17 -17 v 17 17 h 17 17 v 17 17 h -17 -17 v 17 17 h 17 17 v 17 17 h -17 -17 v 17 17 h 17 17 v 17 17 h -17 -17 v 17 17 h 17 17 v 17 17 h -17 -17 v 17 17 h 17 17 v 17 17 h 17 17 z m -34,-34 v -17 h 17 17 v -17 -17 h -17 -17 v -17 -17 h 17 17 v -17 -17 h -17 -17 v -17 -17 h 17 17 v -17 -17 h -17 -17 v -17 -17 h 17 17 v -17 -17 h -17 -17 v -17 -17 h 17 17 v -17 -17 h -17 -17 v -17 -17 h 17 17 v -17 -17 h -17 -17 v -17 -17 h 17 17 v -17 -17 h -17 -17 v -17 -17 h 17 17 v -17 -17 h -17 -17 v -17 -17 h 17 17 v 17 17 h 17 17 v -17 -17 h 17 17 v 17 17 h 17 17 v -17 -17 h 17 17 v 17 17 h 17 17 v -17 -17 h 17 17 v 17 17 h 17 17 v -17 -17 h 17 17 v 17 17 h 17 17 v -17 -17 h 17 17 v 17 17 h 17 17 v -17 -17 h 17 17 v 17 17 h 17 17 v -17 -17 h 17 17 v 17 17 h 17 17 v -17 -17 h 17 17 v 17 17 h -17 -17 v 17 17 h 17 17 v 17 17 h -17 -17 v 17 17 h 17 17 v 17 17 h -17 -17 v 17 17 h 17 17 v 17 17 h -17 -17 v 17 17 h 17 17 v 17 17 h -17 -17 v 17 17 h 17 17 v 17 17 h -17 -17 v 17 17 h 17 17 v 17 17 h -17 -17 v 17 17 h 17 17 v 17 17 h -17 -17 v 17 17 h 17 17 v 17 17 h -17 -17 v -17 -17 h -17 -17 v 17 17 h -17 -17 v -17 -17 h -17 -17 v 17 17 h -17 -17 v -17 -17 h -17 -17 v 17 17 h -17 -17 v -17 -17 h -17 -17 v 17 17 h -17 -17 v -17 -17 h -17 -17 v 17 17 h -17 -17 v -17 -17 h -17 -17 v 17 17 h -17 -17 v -17 -17 h -17 -17 v 17 17 h -17 -17 v -17 -17 h -17 -17 v 17 17 h -17 -17 z m 102,-34 v -17 h 17 17 v 17 17 h 17 17 v -17 -17 h 17 17 v 17 17 h 17 17 v -17 -17 h 17 17 v 17 17 h 17 17 v -17 -17 h 17 17 v 17 17 h 17 17 v -17 -17 h 17 17 v 17 17 h 17 17 v -17 -17 h 17 17 v 17 17 h 17 17 v -17 -17 h 17 17 v -17 -17 h -17 -17 v -17 -17 h 17 17 v -17 -17 h -17 -17 v -17 -17 h 17 17 v -17 -17 h -17 -17 v -17 -17 h 17 17 v -17 -17 h -17 -17 v -17 -17 h 17 17 v -17 -17 h -17 -17 v -17 -17 h 17 17 v -17 -17 h -17 -17 v -17 -17 h 17 17 v -17 -17 h -17 -17 v -17 -17 h -17 -17 v 17 17 h -17 -17 v -17 -17 h -17 -17 v 17 17 h -17 -17 v -17 -17 h -17 -17 v 17 17 h -17 -17 v -17 -17 h -17 -17 v 17 17 h -17 -17 v -17 -17 h -17 -17 v 17 17 h -17 -17 v -17 -17 h -17 -17 v 17 17 h -17 -17 v -17 -17 h -17 -17 v 17 17 h -17 -17 v 17 17 h 17 17 v 17 17 h -17 -17 v 17 17 h 17 17 v 17 17 h -17 -17 v 17 17 h 17 17 v 17 17 h -17 -17 v 17 17 h 17 17 v 17 17 h -17 -17 v 17 17 h 17 17 v 17 17 h -17 -17 v 17 17 h 17 17 v 17 17 h -17 -17 v 17 17 h 17 17 v 17 17 h 17 17 z m -34,-34 v -17 h 17 17 v -17 -17 h -17 -17 v -17 -17 h 17 17 v -17 -17 h -17 -17 v -17 -17 h 17 17 v -17 -17 h -17 -17 v -17 -17 h 17 17 v -17 -17 h -17 -17 v -17 -17 h 17 17 v -17 -17 h -17 -17 v -17 -17 h 17 17 v -17 -17 h -17 -17 v -17 -17 h 17 17 v 17 17 h 17 17 v -17 -17 h 17 17 v 17 17 h 17 17 v -17 -17 h 17 17 v 17 17 h 17 17 v -17 -17 h 17 17 v 17 17 h 17 17 v -17 -17 h 17 17 v 17 17 h 17 17 v -17 -17 h 17 17 v 17 17 h 17 17 v -17 -17 h 17 17 v 17 17 h -17 -17 v 17 17 h 17 17 v 17 17 h -17 -17 v 17 17 h 17 17 v 17 17 h -17 -17 v 17 17 h 17 17 v 17 17 h -17 -17 v 17 17 h 17 17 v 17 17 h -17 -17 v 17 17 h 17 17 v 17 17 h -17 -17 v 17 17 h 17 17 v 17 17 h -17 -17 v -17 -17 h -17 -17 v 17 17 h -17 -17 v -17 -17 h -17 -17 v 17 17 h -17 -17 v -17 -17 h -17 -17 v 17 17 h -17 -17 v -17 -17 h -17 -17 v 17 17 h -17 -17 v -17 -17 h -17 -17 v 17 17 h -17 -17 v -17 -17 h -17 -17 v 17 17 h -17 -17 z m 102,-34 v -17 h 17 17 v 17 17 h 17 17 v -17 -17 h 17 17 v 17 17 h 17 17 v -17 -17 h 17 17 v 17 17 h 17 17 v -17 -17 h 17 17 v 17 17 h 17 17 v -17 -17 h 17 17 v -17 -17 h -17 -17 v -17 -17 h 17 17 v -17 -17 h -17 -17 v -17 -17 h 17 17 v -17 -17 h -17 -17 v -17 -17 h 17 17 v -17 -17 h -17 -17 v -17 -17 h 17 17 v -17 -17 h -17 -17 v -17 -17 h -17 -17 v 17 17 h -17 -17 v -17 -17 h -17 -17 v 17 17 h -17 -17 v -17 -17 h -17 -17 v 17 17 h -17 -17 v -17 -17 h -17 -17 v 17 17 h -17 -17 v -17 -17 h -17 -17 v 17 17 h -17 -17 v 17 17 h 17 17 v 17 17 h -17 -17 v 17 17 h 17 17 v 17 17 h -17 -17 v 17 17 h 17 17 v 17 17 h -17 -17 v 17 17 h 17 17 v 17 17 h -17 -17 v 17 17 h 17 17 v 17 17 h 17 17 z m -34,-34 v -17 h 17 17 v -17 -17 h -17 -17 v -17 -17 h 17 17 v -17 -17 h -17 -17 v -17 -17 h 17 17 v -17 -17 h -17 -17 v -17 -17 h 17 17 v -17 -17 h -17 -17 v -17 -17 h 17 17 v 17 17 h 17 17 v -17 -17 h 17 17 v 17 17 h 17 17 v -17 -17 h 17 17 v 17 17 h 17 17 v -17 -17 h 17 17 v 17 17 h 17 17 v -17 -17 h 17 17 v 17 17 h -17 -17 v 17 17 h 17 17 v 17 17 h -17 -17 v 17 17 h 17 17 v 17 17 h -17 -17 v 17 17 h 17 17 v 17 17 h -17 -17 v 17 17 h 17 17 v 17 17 h -17 -17 v -17 -17 h -17 -17 v 17 17 h -17 -17 v -17 -17 h -17 -17 v 17 17 h -17 -17 v -17 -17 h -17 -17 v 17 17 h -17 -17 v -17 -17 h -17 -17 v 17 17 h -17 -17 z m 102,-34 v -17 h 17 17 v 17 17 h 17 17 v -17 -17 h 17 17 v 17 17 h 17 17 v -17 -17 h 17 17 v -17 -17 h -17 -17 v -17 -17 h 17 17 v -17 -17 h -17 -17 v -17 -17 h 17 17 v -17 -17 h -17 -17 v -17 -17 h -17 -17 v 17 17 h -17 -17 v -17 -17 h -17 -17 v 17 17 h -17 -17 v -17 -17 h -17 -17 v 17 17 h -17 -17 v 17 17 h 17 17 v 17 17 h -17 -17 v 17 17 h 17 17 v 17 17 h -17 -17 v 17 17 h 17 17 v 17 17 h 17 17 z m -34,-34 v -17 h 17 17 v -17 -17 h -17 -17 v -17 -17 h 17 17 v -17 -17 h -17 -17 v -17 -17 h 17 17 v 17 17 h 17 17 v -17 -17 h 17 17 v 17 17 h 17 17 v -17 -17 h 17 17 v 17 17 h -17 -17 v 17 17 h 17 17 v 17 17 h -17 -17 v 17 17 h 17 17 v 17 17 h -17 -17 v -17 -17 h -17 -17 v 17 17 h -17 -17 v -17 -17 h -17 -17 v 17 17 h -17 -17 z m 102,-34 v -17 h 17 17 v -17 -17 h -17 -17 v -17 -17 h -17 -17 v 17 17 h -17 -17 v 17 17 h 17 17 v 17 17 h 17 17 z m -34,-34 v -17 h 17 17 v 17 17 h -17 -17 z"
       id="path3735"
       inkscape:connector-curvature="0" />
    <path
       style="fill:#000000"
       d="M 0,425 V 0 H 425 850 V 425 850 H 425 0 Z m 816,0 V 34 H 425 34 v 391 391 h 391 391 z"
       id="path3733"
       inkscape:connector-curvature="0" />
  </g>
</svg>
