<svg xmlns="http://www.w3.org/2000/svg" viewBox="0 -0.5 784 756" shape-rendering="crispEdges">
<metadata>Made with Pixels to Svg https://codepen.io/shshaw/pen/XbxvNj</metadata>
<path stroke="#100200" d="M140 0h504M140 1h504M140 2h504M140 3h504M140 4h504M140 5h504M140 6h504M140 7h504M140 8h504M140 9h504M140 10h504M140 11h504M140 12h504M140 13h504M140 14h504M140 15h504M140 16h504M140 17h504M140 18h504M140 19h504M140 20h504M140 21h504M140 22h504M140 23h504M140 24h504M140 25h504M140 26h504M140 27h504M140 28h28M616 28h28M140 29h28M616 29h28M140 30h28M616 30h28M140 31h28M616 31h28M140 32h28M616 32h28M140 33h28M616 33h28M140 34h28M616 34h28M140 35h28M616 35h28M140 36h28M616 36h28M140 37h28M616 37h28M140 38h28M616 38h28M140 39h28M616 39h28M140 40h28M616 40h28M140 41h28M616 41h28M140 42h28M616 42h28M140 43h28M616 43h28M140 44h28M616 44h28M140 45h28M616 45h28M140 46h28M616 46h28M140 47h28M616 47h28M140 48h28M616 48h28M140 49h28M616 49h28M140 50h28M616 50h28M140 51h28M616 51h28M140 52h28M616 52h28M140 53h28M616 53h28M140 54h28M616 54h28M140 55h28M616 55h28M112 56h532M112 57h532M112 58h532M112 59h532M112 60h532M112 61h532M112 62h532M112 63h532M112 64h532M112 65h532M112 66h532M112 67h532M112 68h532M112 69h532M112 70h532M112 71h532M112 72h532M112 73h532M112 74h532M112 75h532M112 76h532M112 77h532M112 78h532M112 79h532M112 80h532M112 81h532M112 82h532M112 83h532M700 84h28M700 85h28M700 86h28M700 87h28M700 88h28M700 89h28M700 90h28M700 91h28M700 92h28M700 93h28M700 94h28M700 95h28M700 96h28M700 97h28M700 98h28M700 99h28M700 100h28M700 101h28M700 102h28M700 103h28M700 104h28M700 105h28M700 106h28M700 107h28M700 108h28M700 109h28M700 110h28M700 111h28M700 112h56M700 113h56M700 114h56M700 115h56M700 116h56M700 117h56M700 118h56M700 119h56M700 120h56M700 121h56M700 122h56M700 123h56M700 124h56M700 125h56M700 126h56M700 127h56M700 128h56M700 129h56M700 130h56M700 131h56M700 132h56M700 133h56M700 134h56M700 135h56M700 136h56M700 137h56M700 138h56M700 139h56M728 140h56M728 141h56M728 142h56M728 143h56M728 144h56M728 145h56M728 146h56M728 147h56M728 148h56M728 149h56M728 150h56M728 151h56M728 152h56M728 153h56M728 154h56M728 155h56M728 156h56M728 157h56M728 158h56M728 159h56M728 160h56M728 161h56M728 162h56M728 163h56M728 164h56M728 165h56M728 166h56M728 167h56M56 168h28M672 168h28M728 168h56M56 169h28M672 169h28M728 169h56M56 170h28M672 170h28M728 170h56M56 171h28M672 171h28M728 171h56M56 172h28M672 172h28M728 172h56M56 173h28M672 173h28M728 173h56M56 174h28M672 174h28M728 174h56M56 175h28M672 175h28M728 175h56M56 176h28M672 176h28M728 176h56M56 177h28M672 177h28M728 177h56M56 178h28M672 178h28M728 178h56M56 179h28M672 179h28M728 179h56M56 180h28M672 180h28M728 180h56M56 181h28M672 181h28M728 181h56M56 182h28M672 182h28M728 182h56M56 183h28M672 183h28M728 183h56M56 184h28M672 184h28M728 184h56M56 185h28M672 185h28M728 185h56M56 186h28M672 186h28M728 186h56M56 187h28M672 187h28M728 187h56M56 188h28M672 188h28M728 188h56M56 189h28M672 189h28M728 189h56M56 190h28M672 190h28M728 190h56M56 191h28M672 191h28M728 191h56M56 192h28M672 192h28M728 192h56M56 193h28M672 193h28M728 193h56M56 194h28M672 194h28M728 194h56M56 195h28M672 195h28M728 195h56M644 196h28M756 196h28M644 197h28M756 197h28M644 198h28M756 198h28M644 199h28M756 199h28M644 200h28M756 200h28M644 201h28M756 201h28M644 202h28M756 202h28M644 203h28M756 203h28M644 204h28M756 204h28M644 205h28M756 205h28M644 206h28M756 206h28M644 207h28M756 207h28M644 208h28M756 208h28M644 209h28M756 209h28M644 210h28M756 210h28M644 211h28M756 211h28M644 212h28M756 212h28M644 213h28M756 213h28M644 214h28M756 214h28M644 215h28M756 215h28M644 216h28M756 216h28M644 217h28M756 217h28M644 218h28M756 218h28M644 219h28M756 219h28M644 220h28M756 220h28M644 221h28M756 221h28M644 222h28M756 222h28M644 223h28M756 223h28M756 224h28M756 225h28M756 226h28M756 227h28M756 228h28M756 229h28M756 230h28M756 231h28M756 232h28M756 233h28M756 234h28M756 235h28M756 236h28M756 237h28M756 238h28M756 239h28M756 240h28M756 241h28M756 242h28M756 243h28M756 244h28M756 245h28M756 246h28M756 247h28M756 248h28M756 249h28M756 250h28M756 251h28M756 252h28M756 253h28M756 254h28M756 255h28M756 256h28M756 257h28M756 258h28M756 259h28M756 260h28M756 261h28M756 262h28M756 263h28M756 264h28M756 265h28M756 266h28M756 267h28M756 268h28M756 269h28M756 270h28M756 271h28M756 272h28M756 273h28M756 274h28M756 275h28M756 276h28M756 277h28M756 278h28M756 279h28M756 280h28M756 281h28M756 282h28M756 283h28M756 284h28M756 285h28M756 286h28M756 287h28M756 288h28M756 289h28M756 290h28M756 291h28M756 292h28M756 293h28M756 294h28M756 295h28M756 296h28M756 297h28M756 298h28M756 299h28M756 300h28M756 301h28M756 302h28M756 303h28M756 304h28M756 305h28M756 306h28M756 307h28M756 308h28M756 309h28M756 310h28M756 311h28M756 312h28M756 313h28M756 314h28M756 315h28M756 316h28M756 317h28M756 318h28M756 319h28M756 320h28M756 321h28M756 322h28M756 323h28M756 324h28M756 325h28M756 326h28M756 327h28M756 328h28M756 329h28M756 330h28M756 331h28M756 332h28M756 333h28M756 334h28M756 335h28M756 336h28M756 337h28M756 338h28M756 339h28M756 340h28M756 341h28M756 342h28M756 343h28M756 344h28M756 345h28M756 346h28M756 347h28M756 348h28M756 349h28M756 350h28M756 351h28M756 352h28M756 353h28M756 354h28M756 355h28M756 356h28M756 357h28M756 358h28M756 359h28M756 360h28M756 361h28M756 362h28M756 363h28M756 364h28M756 365h28M756 366h28M756 367h28M756 368h28M756 369h28M756 370h28M756 371h28M756 372h28M756 373h28M756 374h28M756 375h28M756 376h28M756 377h28M756 378h28M756 379h28M756 380h28M756 381h28M756 382h28M756 383h28M756 384h28M756 385h28M756 386h28M756 387h28M756 388h28M756 389h28M756 390h28M756 391h28M756 392h28M756 393h28M756 394h28M756 395h28M756 396h28M756 397h28M756 398h28M756 399h28M756 400h28M756 401h28M756 402h28M756 403h28M756 404h28M756 405h28M756 406h28M756 407h28M756 408h28M756 409h28M756 410h28M756 411h28M756 412h28M756 413h28M756 414h28M756 415h28M756 416h28M756 417h28M756 418h28M756 419h28M756 420h28M756 421h28M756 422h28M756 423h28M756 424h28M756 425h28M756 426h28M756 427h28M756 428h28M756 429h28M756 430h28M756 431h28M756 432h28M756 433h28M756 434h28M756 435h28M756 436h28M756 437h28M756 438h28M756 439h28M756 440h28M756 441h28M756 442h28M756 443h28M756 444h28M756 445h28M756 446h28M756 447h28M756 448h28M756 449h28M756 450h28M756 451h28M756 452h28M756 453h28M756 454h28M756 455h28M756 456h28M756 457h28M756 458h28M756 459h28M756 460h28M756 461h28M756 462h28M756 463h28M756 464h28M756 465h28M756 466h28M756 467h28M756 468h28M756 469h28M756 470h28M756 471h28M756 472h28M756 473h28M756 474h28M756 475h28M756 476h28M756 477h28M756 478h28M756 479h28M756 480h28M756 481h28M756 482h28M756 483h28M756 484h28M756 485h28M756 486h28M756 487h28M756 488h28M756 489h28M756 490h28M756 491h28M756 492h28M756 493h28M756 494h28M756 495h28M756 496h28M756 497h28M756 498h28M756 499h28M756 500h28M756 501h28M756 502h28M756 503h28M756 504h28M756 505h28M756 506h28M756 507h28M756 508h28M756 509h28M756 510h28M756 511h28M756 512h28M756 513h28M756 514h28M756 515h28M756 516h28M756 517h28M756 518h28M756 519h28M756 520h28M756 521h28M756 522h28M756 523h28M756 524h28M756 525h28M756 526h28M756 527h28M756 528h28M756 529h28M756 530h28M756 531h28M756 532h28M756 533h28M756 534h28M756 535h28M756 536h28M756 537h28M756 538h28M756 539h28M756 540h28M756 541h28M756 542h28M756 543h28M756 544h28M756 545h28M756 546h28M756 547h28M756 548h28M756 549h28M756 550h28M756 551h28M756 552h28M756 553h28M756 554h28M756 555h28M756 556h28M756 557h28M756 558h28M756 559h28M756 560h28M756 561h28M756 562h28M756 563h28M756 564h28M756 565h28M756 566h28M756 567h28M756 568h28M756 569h28M756 570h28M756 571h28M756 572h28M756 573h28M756 574h28M756 575h28M756 576h28M756 577h28M756 578h28M756 579h28M756 580h28M756 581h28M756 582h28M756 583h28M756 584h28M756 585h28M756 586h28M756 587h28M756 588h28M756 589h28M756 590h28M756 591h28M756 592h28M756 593h28M756 594h28M756 595h28M756 596h28M756 597h28M756 598h28M756 599h28M756 600h28M756 601h28M756 602h28M756 603h28M756 604h28M756 605h28M756 606h28M756 607h28M756 608h28M756 609h28M756 610h28M756 611h28M756 612h28M756 613h28M756 614h28M756 615h28M756 616h28M756 617h28M756 618h28M756 619h28M756 620h28M756 621h28M756 622h28M756 623h28M756 624h28M756 625h28M756 626h28M756 627h28M756 628h28M756 629h28M756 630h28M756 631h28M756 632h28M756 633h28M756 634h28M756 635h28M756 636h28M756 637h28M756 638h28M756 639h28M756 640h28M756 641h28M756 642h28M756 643h28M700 644h84M700 645h84M700 646h84M700 647h84M700 648h84M700 649h84M700 650h84M700 651h84M700 652h84M700 653h84M700 654h84M700 655h84M700 656h84M700 657h84M700 658h84M700 659h84M700 660h84M700 661h84M700 662h84M700 663h84M700 664h84M700 665h84M700 666h84M700 667h84M700 668h84M700 669h84M700 670h84M700 671h84M644 672h84M644 673h84M644 674h84M644 675h84M644 676h84M644 677h84M644 678h84M644 679h84M644 680h84M644 681h84M644 682h84M644 683h84M644 684h84M644 685h84M644 686h84M644 687h84M644 688h84M644 689h84M644 690h84M644 691h84M644 692h84M644 693h84M644 694h84M644 695h84M644 696h84M644 697h84M644 698h84M644 699h84M616 700h56M616 701h56M616 702h56M616 703h56M616 704h56M616 705h56M616 706h56M616 707h56M616 708h56M616 709h56M616 710h56M616 711h56M616 712h56M616 713h56M616 714h56M616 715h56M616 716h56M616 717h56M616 718h56M616 719h56M616 720h56M616 721h56M616 722h56M616 723h56M616 724h56M616 725h56M616 726h56M616 727h56M84 728h448M616 728h28M84 729h448M616 729h28M84 730h448M616 730h28M84 731h448M616 731h28M84 732h448M616 732h28M84 733h448M616 733h28M84 734h448M616 734h28M84 735h448M616 735h28M84 736h448M616 736h28M84 737h448M616 737h28M84 738h448M616 738h28M84 739h448M616 739h28M84 740h448M616 740h28M84 741h448M616 741h28M84 742h448M616 742h28M84 743h448M616 743h28M84 744h448M616 744h28M84 745h448M616 745h28M84 746h448M616 746h28M84 747h448M616 747h28M84 748h448M616 748h28M84 749h448M616 749h28M84 750h448M616 750h28M84 751h448M616 751h28M84 752h448M616 752h28M84 753h448M616 753h28M84 754h448M616 754h28M84 755h448M616 755h28" />
<path stroke="#ffffff" d="M168 28h448M168 29h448M168 30h448M168 31h448M168 32h448M168 33h448M168 34h448M168 35h448M168 36h448M168 37h448M168 38h448M168 39h448M168 40h448M168 41h448M168 42h448M168 43h448M168 44h448M168 45h448M168 46h448M168 47h448M168 48h448M168 49h448M168 50h448M168 51h448M168 52h448M168 53h448M168 54h448M168 55h448M168 84h448M168 85h448M168 86h448M168 87h448M168 88h448M168 89h448M168 90h448M168 91h448M168 92h448M168 93h448M168 94h448M168 95h448M168 96h448M168 97h448M168 98h448M168 99h448M168 100h448M168 101h448M168 102h448M168 103h448M168 104h448M168 105h448M168 106h448M168 107h448M168 108h448M168 109h448M168 110h448M168 111h448M140 112h448M644 112h56M140 113h448M644 113h56M140 114h448M644 114h56M140 115h448M644 115h56M140 116h448M644 116h56M140 117h448M644 117h56M140 118h448M644 118h56M140 119h448M644 119h56M140 120h448M644 120h56M140 121h448M644 121h56M140 122h448M644 122h56M140 123h448M644 123h56M140 124h448M644 124h56M140 125h448M644 125h56M140 126h448M644 126h56M140 127h448M644 127h56M140 128h448M644 128h56M140 129h448M644 129h56M140 130h448M644 130h56M140 131h448M644 131h56M140 132h448M644 132h56M140 133h448M644 133h56M140 134h448M644 134h56M140 135h448M644 135h56M140 136h448M644 136h56M140 137h448M644 137h56M140 138h448M644 138h56M140 139h448M644 139h56M112 140h476M616 140h112M112 141h476M616 141h112M112 142h476M616 142h112M112 143h476M616 143h112M112 144h476M616 144h112M112 145h476M616 145h112M112 146h476M616 146h112M112 147h476M616 147h112M112 148h476M616 148h112M112 149h476M616 149h112M112 150h476M616 150h112M112 151h476M616 151h112M112 152h476M616 152h112M112 153h476M616 153h112M112 154h476M616 154h112M112 155h476M616 155h112M112 156h476M616 156h112M112 157h476M616 157h112M112 158h476M616 158h112M112 159h476M616 159h112M112 160h476M616 160h112M112 161h476M616 161h112M112 162h476M616 162h112M112 163h476M616 163h112M112 164h476M616 164h112M112 165h476M616 165h112M112 166h476M616 166h112M112 167h476M616 167h112M84 168h476M588 168h84M84 169h476M588 169h84M84 170h476M588 170h84M84 171h476M588 171h84M84 172h476M588 172h84M84 173h476M588 173h84M84 174h476M588 174h84M84 175h476M588 175h84M84 176h476M588 176h84M84 177h476M588 177h84M84 178h476M588 178h84M84 179h476M588 179h84M84 180h476M588 180h84M84 181h476M588 181h84M84 182h476M588 182h84M84 183h476M588 183h84M84 184h476M588 184h84M84 185h476M588 185h84M84 186h476M588 186h84M84 187h476M588 187h84M84 188h476M588 188h84M84 189h476M588 189h84M84 190h476M588 190h84M84 191h476M588 191h84M84 192h476M588 192h84M84 193h476M588 193h84M84 194h476M588 194h84M84 195h476M588 195h84M672 196h84M672 197h84M672 198h84M672 199h84M672 200h84M672 201h84M672 202h84M672 203h84M672 204h84M672 205h84M672 206h84M672 207h84M672 208h84M672 209h84M672 210h84M672 211h84M672 212h84M672 213h84M672 214h84M672 215h84M672 216h84M672 217h84M672 218h84M672 219h84M672 220h84M672 221h84M672 222h84M672 223h84M28 224h504M560 224h196M28 225h504M560 225h196M28 226h504M560 226h196M28 227h504M560 227h196M28 228h504M560 228h196M28 229h504M560 229h196M28 230h504M560 230h196M28 231h504M560 231h196M28 232h504M560 232h196M28 233h504M560 233h196M28 234h504M560 234h196M28 235h504M560 235h196M28 236h504M560 236h196M28 237h504M560 237h196M28 238h504M560 238h196M28 239h504M560 239h196M28 240h504M560 240h196M28 241h504M560 241h196M28 242h504M560 242h196M28 243h504M560 243h196M28 244h504M560 244h196M28 245h504M560 245h196M28 246h504M560 246h196M28 247h504M560 247h196M28 248h504M560 248h196M28 249h504M560 249h196M28 250h504M560 250h196M28 251h504M560 251h196M28 252h504M560 252h168M28 253h504M560 253h168M28 254h504M560 254h168M28 255h504M560 255h168M28 256h504M560 256h168M28 257h504M560 257h168M28 258h504M560 258h168M28 259h504M560 259h168M28 260h504M560 260h168M28 261h504M560 261h168M28 262h504M560 262h168M28 263h504M560 263h168M28 264h504M560 264h168M28 265h504M560 265h168M28 266h504M560 266h168M28 267h504M560 267h168M28 268h504M560 268h168M28 269h504M560 269h168M28 270h504M560 270h168M28 271h504M560 271h168M28 272h504M560 272h168M28 273h504M560 273h168M28 274h504M560 274h168M28 275h504M560 275h168M28 276h504M560 276h168M28 277h504M560 277h168M28 278h504M560 278h168M28 279h504M560 279h168M28 280h504M560 280h56M28 281h504M560 281h56M28 282h504M560 282h56M28 283h504M560 283h56M28 284h504M560 284h56M28 285h504M560 285h56M28 286h504M560 286h56M28 287h504M560 287h56M28 288h504M560 288h56M28 289h504M560 289h56M28 290h504M560 290h56M28 291h504M560 291h56M28 292h504M560 292h56M28 293h504M560 293h56M28 294h504M560 294h56M28 295h504M560 295h56M28 296h504M560 296h56M28 297h504M560 297h56M28 298h504M560 298h56M28 299h504M560 299h56M28 300h504M560 300h56M28 301h504M560 301h56M28 302h504M560 302h56M28 303h504M560 303h56M28 304h504M560 304h56M28 305h504M560 305h56M28 306h504M560 306h56M28 307h504M560 307h56M56 392h140M224 392h28M280 392h28M392 392h28M448 392h28M56 393h140M224 393h28M280 393h28M392 393h28M448 393h28M56 394h140M224 394h28M280 394h28M392 394h28M448 394h28M56 395h140M224 395h28M280 395h28M392 395h28M448 395h28M56 396h140M224 396h28M280 396h28M392 396h28M448 396h28M56 397h140M224 397h28M280 397h28M392 397h28M448 397h28M56 398h140M224 398h28M280 398h28M392 398h28M448 398h28M56 399h140M224 399h28M280 399h28M392 399h28M448 399h28M56 400h140M224 400h28M280 400h28M392 400h28M448 400h28M56 401h140M224 401h28M280 401h28M392 401h28M448 401h28M56 402h140M224 402h28M280 402h28M392 402h28M448 402h28M56 403h140M224 403h28M280 403h28M392 403h28M448 403h28M56 404h140M224 404h28M280 404h28M392 404h28M448 404h28M56 405h140M224 405h28M280 405h28M392 405h28M448 405h28M56 406h140M224 406h28M280 406h28M392 406h28M448 406h28M56 407h140M224 407h28M280 407h28M392 407h28M448 407h28M56 408h140M224 408h28M280 408h28M392 408h28M448 408h28M56 409h140M224 409h28M280 409h28M392 409h28M448 409h28M56 410h140M224 410h28M280 410h28M392 410h28M448 410h28M56 411h140M224 411h28M280 411h28M392 411h28M448 411h28M56 412h140M224 412h28M280 412h28M392 412h28M448 412h28M56 413h140M224 413h28M280 413h28M392 413h28M448 413h28M56 414h140M224 414h28M280 414h28M392 414h28M448 414h28M56 415h140M224 415h28M280 415h28M392 415h28M448 415h28M56 416h140M224 416h28M280 416h28M392 416h28M448 416h28M56 417h140M224 417h28M280 417h28M392 417h28M448 417h28M56 418h140M224 418h28M280 418h28M392 418h28M448 418h28M56 419h140M224 419h28M280 419h28M392 419h28M448 419h28M56 420h28M112 420h28M168 420h28M224 420h28M280 420h28M392 420h84M56 421h28M112 421h28M168 421h28M224 421h28M280 421h28M392 421h84M56 422h28M112 422h28M168 422h28M224 422h28M280 422h28M392 422h84M56 423h28M112 423h28M168 423h28M224 423h28M280 423h28M392 423h84M56 424h28M112 424h28M168 424h28M224 424h28M280 424h28M392 424h84M56 425h28M112 425h28M168 425h28M224 425h28M280 425h28M392 425h84M56 426h28M112 426h28M168 426h28M224 426h28M280 426h28M392 426h84M56 427h28M112 427h28M168 427h28M224 427h28M280 427h28M392 427h84M56 428h28M112 428h28M168 428h28M224 428h28M280 428h28M392 428h84M56 429h28M112 429h28M168 429h28M224 429h28M280 429h28M392 429h84M56 430h28M112 430h28M168 430h28M224 430h28M280 430h28M392 430h84M56 431h28M112 431h28M168 431h28M224 431h28M280 431h28M392 431h84M56 432h28M112 432h28M168 432h28M224 432h28M280 432h28M392 432h84M56 433h28M112 433h28M168 433h28M224 433h28M280 433h28M392 433h84M56 434h28M112 434h28M168 434h28M224 434h28M280 434h28M392 434h84M56 435h28M112 435h28M168 435h28M224 435h28M280 435h28M392 435h84M56 436h28M112 436h28M168 436h28M224 436h28M280 436h28M392 436h84M56 437h28M112 437h28M168 437h28M224 437h28M280 437h28M392 437h84M56 438h28M112 438h28M168 438h28M224 438h28M280 438h28M392 438h84M56 439h28M112 439h28M168 439h28M224 439h28M280 439h28M392 439h84M56 440h28M112 440h28M168 440h28M224 440h28M280 440h28M392 440h84M56 441h28M112 441h28M168 441h28M224 441h28M280 441h28M392 441h84M56 442h28M112 442h28M168 442h28M224 442h28M280 442h28M392 442h84M56 443h28M112 443h28M168 443h28M224 443h28M280 443h28M392 443h84M56 444h28M112 444h28M168 444h28M224 444h28M280 444h28M392 444h84M56 445h28M112 445h28M168 445h28M224 445h28M280 445h28M392 445h84M56 446h28M112 446h28M168 446h28M224 446h28M280 446h28M392 446h84M56 447h28M112 447h28M168 447h28M224 447h28M280 447h28M392 447h84M56 448h28M112 448h28M168 448h28M224 448h28M280 448h28M392 448h56M56 449h28M112 449h28M168 449h28M224 449h28M280 449h28M392 449h56M56 450h28M112 450h28M168 450h28M224 450h28M280 450h28M392 450h56M56 451h28M112 451h28M168 451h28M224 451h28M280 451h28M392 451h56M56 452h28M112 452h28M168 452h28M224 452h28M280 452h28M392 452h56M56 453h28M112 453h28M168 453h28M224 453h28M280 453h28M392 453h56M56 454h28M112 454h28M168 454h28M224 454h28M280 454h28M392 454h56M56 455h28M112 455h28M168 455h28M224 455h28M280 455h28M392 455h56M56 456h28M112 456h28M168 456h28M224 456h28M280 456h28M392 456h56M56 457h28M112 457h28M168 457h28M224 457h28M280 457h28M392 457h56M56 458h28M112 458h28M168 458h28M224 458h28M280 458h28M392 458h56M56 459h28M112 459h28M168 459h28M224 459h28M280 459h28M392 459h56M56 460h28M112 460h28M168 460h28M224 460h28M280 460h28M392 460h56M56 461h28M112 461h28M168 461h28M224 461h28M280 461h28M392 461h56M56 462h28M112 462h28M168 462h28M224 462h28M280 462h28M392 462h56M56 463h28M112 463h28M168 463h28M224 463h28M280 463h28M392 463h56M56 464h28M112 464h28M168 464h28M224 464h28M280 464h28M392 464h56M56 465h28M112 465h28M168 465h28M224 465h28M280 465h28M392 465h56M56 466h28M112 466h28M168 466h28M224 466h28M280 466h28M392 466h56M56 467h28M112 467h28M168 467h28M224 467h28M280 467h28M392 467h56M56 468h28M112 468h28M168 468h28M224 468h28M280 468h28M392 468h56M56 469h28M112 469h28M168 469h28M224 469h28M280 469h28M392 469h56M56 470h28M112 470h28M168 470h28M224 470h28M280 470h28M392 470h56M56 471h28M112 471h28M168 471h28M224 471h28M280 471h28M392 471h56M56 472h28M112 472h28M168 472h28M224 472h28M280 472h28M392 472h56M56 473h28M112 473h28M168 473h28M224 473h28M280 473h28M392 473h56M56 474h28M112 474h28M168 474h28M224 474h28M280 474h28M392 474h56M56 475h28M112 475h28M168 475h28M224 475h28M280 475h28M392 475h56M56 476h28M112 476h28M168 476h28M224 476h28M280 476h28M392 476h84M56 477h28M112 477h28M168 477h28M224 477h28M280 477h28M392 477h84M56 478h28M112 478h28M168 478h28M224 478h28M280 478h28M392 478h84M56 479h28M112 479h28M168 479h28M224 479h28M280 479h28M392 479h84M56 480h28M112 480h28M168 480h28M224 480h28M280 480h28M392 480h84M56 481h28M112 481h28M168 481h28M224 481h28M280 481h28M392 481h84M56 482h28M112 482h28M168 482h28M224 482h28M280 482h28M392 482h84M56 483h28M112 483h28M168 483h28M224 483h28M280 483h28M392 483h84M56 484h28M112 484h28M168 484h28M224 484h28M280 484h28M392 484h84M56 485h28M112 485h28M168 485h28M224 485h28M280 485h28M392 485h84M56 486h28M112 486h28M168 486h28M224 486h28M280 486h28M392 486h84M56 487h28M112 487h28M168 487h28M224 487h28M280 487h28M392 487h84M56 488h28M112 488h28M168 488h28M224 488h28M280 488h28M392 488h84M56 489h28M112 489h28M168 489h28M224 489h28M280 489h28M392 489h84M56 490h28M112 490h28M168 490h28M224 490h28M280 490h28M392 490h84M56 491h28M112 491h28M168 491h28M224 491h28M280 491h28M392 491h84M56 492h28M112 492h28M168 492h28M224 492h28M280 492h28M392 492h84M56 493h28M112 493h28M168 493h28M224 493h28M280 493h28M392 493h84M56 494h28M112 494h28M168 494h28M224 494h28M280 494h28M392 494h84M56 495h28M112 495h28M168 495h28M224 495h28M280 495h28M392 495h84M56 496h28M112 496h28M168 496h28M224 496h28M280 496h28M392 496h84M56 497h28M112 497h28M168 497h28M224 497h28M280 497h28M392 497h84M56 498h28M112 498h28M168 498h28M224 498h28M280 498h28M392 498h84M56 499h28M112 499h28M168 499h28M224 499h28M280 499h28M392 499h84M56 500h28M112 500h28M168 500h28M224 500h28M280 500h28M392 500h84M56 501h28M112 501h28M168 501h28M224 501h28M280 501h28M392 501h84M56 502h28M112 502h28M168 502h28M224 502h28M280 502h28M392 502h84M56 503h28M112 503h28M168 503h28M224 503h28M280 503h28M392 503h84M56 504h28M112 504h28M168 504h28M224 504h28M280 504h84M392 504h28M448 504h56M56 505h28M112 505h28M168 505h28M224 505h28M280 505h84M392 505h28M448 505h56M56 506h28M112 506h28M168 506h28M224 506h28M280 506h84M392 506h28M448 506h56M56 507h28M112 507h28M168 507h28M224 507h28M280 507h84M392 507h28M448 507h56M56 508h28M112 508h28M168 508h28M224 508h28M280 508h84M392 508h28M448 508h56M56 509h28M112 509h28M168 509h28M224 509h28M280 509h84M392 509h28M448 509h56M56 510h28M112 510h28M168 510h28M224 510h28M280 510h84M392 510h28M448 510h56M56 511h28M112 511h28M168 511h28M224 511h28M280 511h84M392 511h28M448 511h56M56 512h28M112 512h28M168 512h28M224 512h28M280 512h84M392 512h28M448 512h56M56 513h28M112 513h28M168 513h28M224 513h28M280 513h84M392 513h28M448 513h56M56 514h28M112 514h28M168 514h28M224 514h28M280 514h84M392 514h28M448 514h56M56 515h28M112 515h28M168 515h28M224 515h28M280 515h84M392 515h28M448 515h56M56 516h28M112 516h28M168 516h28M224 516h28M280 516h84M392 516h28M448 516h56M56 517h28M112 517h28M168 517h28M224 517h28M280 517h84M392 517h28M448 517h56M56 518h28M112 518h28M168 518h28M224 518h28M280 518h84M392 518h28M448 518h56M56 519h28M112 519h28M168 519h28M224 519h28M280 519h84M392 519h28M448 519h56M56 520h28M112 520h28M168 520h28M224 520h28M280 520h84M392 520h28M448 520h56M56 521h28M112 521h28M168 521h28M224 521h28M280 521h84M392 521h28M448 521h56M56 522h28M112 522h28M168 522h28M224 522h28M280 522h84M392 522h28M448 522h56M56 523h28M112 523h28M168 523h28M224 523h28M280 523h84M392 523h28M448 523h56M56 524h28M112 524h28M168 524h28M224 524h28M280 524h84M392 524h28M448 524h56M56 525h28M112 525h28M168 525h28M224 525h28M280 525h84M392 525h28M448 525h56M56 526h28M112 526h28M168 526h28M224 526h28M280 526h84M392 526h28M448 526h56M56 527h28M112 527h28M168 527h28M224 527h28M280 527h84M392 527h28M448 527h56M56 528h28M112 528h28M168 528h28M224 528h28M280 528h84M392 528h28M448 528h56M56 529h28M112 529h28M168 529h28M224 529h28M280 529h84M392 529h28M448 529h56M56 530h28M112 530h28M168 530h28M224 530h28M280 530h84M392 530h28M448 530h56M56 531h28M112 531h28M168 531h28M224 531h28M280 531h84M392 531h28M448 531h56M700 560h56M700 561h56M700 562h56M700 563h56M700 564h56M700 565h56M700 566h56M700 567h56M700 568h56M700 569h56M700 570h56M700 571h56M700 572h56M700 573h56M700 574h56M700 575h56M700 576h56M700 577h56M700 578h56M700 579h56M700 580h56M700 581h56M700 582h56M700 583h56M700 584h56M700 585h56M700 586h56M700 587h56M644 588h112M644 589h112M644 590h112M644 591h112M644 592h112M644 593h112M644 594h112M644 595h112M644 596h112M644 597h112M644 598h112M644 599h112M644 600h112M644 601h112M644 602h112M644 603h112M644 604h112M644 605h112M644 606h112M644 607h112M644 608h112M644 609h112M644 610h112M644 611h112M644 612h112M644 613h112M644 614h112M644 615h112M588 616h168M588 617h168M588 618h168M588 619h168M588 620h168M588 621h168M588 622h168M588 623h168M588 624h168M588 625h168M588 626h168M588 627h168M588 628h168M588 629h168M588 630h168M588 631h168M588 632h168M588 633h168M588 634h168M588 635h168M588 636h168M588 637h168M588 638h168M588 639h168M588 640h168M588 641h168M588 642h168M588 643h168M28 644h504M560 644h140M28 645h504M560 645h140M28 646h504M560 646h140M28 647h504M560 647h140M28 648h504M560 648h140M28 649h504M560 649h140M28 650h504M560 650h140M28 651h504M560 651h140M28 652h504M560 652h140M28 653h504M560 653h140M28 654h504M560 654h140M28 655h504M560 655h140M28 656h504M560 656h140M28 657h504M560 657h140M28 658h504M560 658h140M28 659h504M560 659h140M28 660h504M560 660h140M28 661h504M560 661h140M28 662h504M560 662h140M28 663h504M560 663h140M28 664h504M560 664h140M28 665h504M560 665h140M28 666h504M560 666h140M28 667h504M560 667h140M28 668h504M560 668h140M28 669h504M560 669h140M28 670h504M560 670h140M28 671h504M560 671h140M28 672h504M560 672h84M28 673h504M560 673h84M28 674h504M560 674h84M28 675h504M560 675h84M28 676h504M560 676h84M28 677h504M560 677h84M28 678h504M560 678h84M28 679h504M560 679h84M28 680h504M560 680h84M28 681h504M560 681h84M28 682h504M560 682h84M28 683h504M560 683h84M28 684h504M560 684h84M28 685h504M560 685h84M28 686h504M560 686h84M28 687h504M560 687h84M28 688h504M560 688h84M28 689h504M560 689h84M28 690h504M560 690h84M28 691h504M560 691h84M28 692h504M560 692h84M28 693h504M560 693h84M28 694h504M560 694h84M28 695h504M560 695h84M28 696h504M560 696h84M28 697h504M560 697h84M28 698h504M560 698h84M28 699h504M560 699h84M28 700h504M560 700h56M28 701h504M560 701h56M28 702h504M560 702h56M28 703h504M560 703h56M28 704h504M560 704h56M28 705h504M560 705h56M28 706h504M560 706h56M28 707h504M560 707h56M28 708h504M560 708h56M28 709h504M560 709h56M28 710h504M560 710h56M28 711h504M560 711h56M28 712h504M560 712h56M28 713h504M560 713h56M28 714h504M560 714h56M28 715h504M560 715h56M28 716h504M560 716h56M28 717h504M560 717h56M28 718h504M560 718h56M28 719h504M560 719h56M28 720h504M560 720h56M28 721h504M560 721h56M28 722h504M560 722h56M28 723h504M560 723h56M28 724h504M560 724h56M28 725h504M560 725h56M28 726h504M560 726h56M28 727h504M560 727h56" />
<path stroke="#000000" d="M644 56h28M644 57h28M644 58h28M644 59h28M644 60h28M644 61h28M644 62h28M644 63h28M644 64h28M644 65h28M644 66h28M644 67h28M644 68h28M644 69h28M644 70h28M644 71h28M644 72h28M644 73h28M644 74h28M644 75h28M644 76h28M644 77h28M644 78h28M644 79h28M644 80h28M644 81h28M644 82h28M644 83h28M112 84h56M616 84h84M112 85h56M616 85h84M112 86h56M616 86h84M112 87h56M616 87h84M112 88h56M616 88h84M112 89h56M616 89h84M112 90h56M616 90h84M112 91h56M616 91h84M112 92h56M616 92h84M112 93h56M616 93h84M112 94h56M616 94h84M112 95h56M616 95h84M112 96h56M616 96h84M112 97h56M616 97h84M112 98h56M616 98h84M112 99h56M616 99h84M112 100h56M616 100h84M112 101h56M616 101h84M112 102h56M616 102h84M112 103h56M616 103h84M112 104h56M616 104h84M112 105h56M616 105h84M112 106h56M616 106h84M112 107h56M616 107h84M112 108h56M616 108h84M112 109h56M616 109h84M112 110h56M616 110h84M112 111h56M616 111h84M84 112h56M588 112h56M84 113h56M588 113h56M84 114h56M588 114h56M84 115h56M588 115h56M84 116h56M588 116h56M84 117h56M588 117h56M84 118h56M588 118h56M84 119h56M588 119h56M84 120h56M588 120h56M84 121h56M588 121h56M84 122h56M588 122h56M84 123h56M588 123h56M84 124h56M588 124h56M84 125h56M588 125h56M84 126h56M588 126h56M84 127h56M588 127h56M84 128h56M588 128h56M84 129h56M588 129h56M84 130h56M588 130h56M84 131h56M588 131h56M84 132h56M588 132h56M84 133h56M588 133h56M84 134h56M588 134h56M84 135h56M588 135h56M84 136h56M588 136h56M84 137h56M588 137h56M84 138h56M588 138h56M84 139h56M588 139h56M56 140h56M588 140h28M56 141h56M588 141h28M56 142h56M588 142h28M56 143h56M588 143h28M56 144h56M588 144h28M56 145h56M588 145h28M56 146h56M588 146h28M56 147h56M588 147h28M56 148h56M588 148h28M56 149h56M588 149h28M56 150h56M588 150h28M56 151h56M588 151h28M56 152h56M588 152h28M56 153h56M588 153h28M56 154h56M588 154h28M56 155h56M588 155h28M56 156h56M588 156h28M56 157h56M588 157h28M56 158h56M588 158h28M56 159h56M588 159h28M56 160h56M588 160h28M56 161h56M588 161h28M56 162h56M588 162h28M56 163h56M588 163h28M56 164h56M588 164h28M56 165h56M588 165h28M56 166h56M588 166h28M56 167h56M588 167h28M28 168h28M560 168h28M700 168h28M28 169h28M560 169h28M700 169h28M28 170h28M560 170h28M700 170h28M28 171h28M560 171h28M700 171h28M28 172h28M560 172h28M700 172h28M28 173h28M560 173h28M700 173h28M28 174h28M560 174h28M700 174h28M28 175h28M560 175h28M700 175h28M28 176h28M560 176h28M700 176h28M28 177h28M560 177h28M700 177h28M28 178h28M560 178h28M700 178h28M28 179h28M560 179h28M700 179h28M28 180h28M560 180h28M700 180h28M28 181h28M560 181h28M700 181h28M28 182h28M560 182h28M700 182h28M28 183h28M560 183h28M700 183h28M28 184h28M560 184h28M700 184h28M28 185h28M560 185h28M700 185h28M28 186h28M560 186h28M700 186h28M28 187h28M560 187h28M700 187h28M28 188h28M560 188h28M700 188h28M28 189h28M560 189h28M700 189h28M28 190h28M560 190h28M700 190h28M28 191h28M560 191h28M700 191h28M28 192h28M560 192h28M700 192h28M28 193h28M560 193h28M700 193h28M28 194h28M560 194h28M700 194h28M28 195h28M560 195h28M700 195h28M28 196h616M28 197h616M28 198h616M28 199h616M28 200h616M28 201h616M28 202h616M28 203h616M28 204h616M28 205h616M28 206h616M28 207h616M28 208h616M28 209h616M28 210h616M28 211h616M28 212h616M28 213h616M28 214h616M28 215h616M28 216h616M28 217h616M28 218h616M28 219h616M28 220h616M28 221h616M28 222h616M28 223h616M0 224h28M532 224h28M0 225h28M532 225h28M0 226h28M532 226h28M0 227h28M532 227h28M0 228h28M532 228h28M0 229h28M532 229h28M0 230h28M532 230h28M0 231h28M532 231h28M0 232h28M532 232h28M0 233h28M532 233h28M0 234h28M532 234h28M0 235h28M532 235h28M0 236h28M532 236h28M0 237h28M532 237h28M0 238h28M532 238h28M0 239h28M532 239h28M0 240h28M532 240h28M0 241h28M532 241h28M0 242h28M532 242h28M0 243h28M532 243h28M0 244h28M532 244h28M0 245h28M532 245h28M0 246h28M532 246h28M0 247h28M532 247h28M0 248h28M532 248h28M0 249h28M532 249h28M0 250h28M532 250h28M0 251h28M532 251h28M0 252h28M532 252h28M0 253h28M532 253h28M0 254h28M532 254h28M0 255h28M532 255h28M0 256h28M532 256h28M0 257h28M532 257h28M0 258h28M532 258h28M0 259h28M532 259h28M0 260h28M532 260h28M0 261h28M532 261h28M0 262h28M532 262h28M0 263h28M532 263h28M0 264h28M532 264h28M0 265h28M532 265h28M0 266h28M532 266h28M0 267h28M532 267h28M0 268h28M532 268h28M0 269h28M532 269h28M0 270h28M532 270h28M0 271h28M532 271h28M0 272h28M532 272h28M0 273h28M532 273h28M0 274h28M532 274h28M0 275h28M532 275h28M0 276h28M532 276h28M0 277h28M532 277h28M0 278h28M532 278h28M0 279h28M532 279h28M0 280h28M532 280h28M0 281h28M532 281h28M0 282h28M532 282h28M0 283h28M532 283h28M0 284h28M532 284h28M0 285h28M532 285h28M0 286h28M532 286h28M0 287h28M532 287h28M0 288h28M532 288h28M0 289h28M532 289h28M0 290h28M532 290h28M0 291h28M532 291h28M0 292h28M532 292h28M0 293h28M532 293h28M0 294h28M532 294h28M0 295h28M532 295h28M0 296h28M532 296h28M0 297h28M532 297h28M0 298h28M532 298h28M0 299h28M532 299h28M0 300h28M532 300h28M0 301h28M532 301h28M0 302h28M532 302h28M0 303h28M532 303h28M0 304h28M532 304h28M0 305h28M532 305h28M0 306h28M532 306h28M0 307h28M532 307h28M0 308h28M532 308h28M0 309h28M532 309h28M0 310h28M532 310h28M0 311h28M532 311h28M0 312h28M532 312h28M0 313h28M532 313h28M0 314h28M532 314h28M0 315h28M532 315h28M0 316h28M532 316h28M0 317h28M532 317h28M0 318h28M532 318h28M0 319h28M532 319h28M0 320h28M532 320h28M0 321h28M532 321h28M0 322h28M532 322h28M0 323h28M532 323h28M0 324h28M532 324h28M0 325h28M532 325h28M0 326h28M532 326h28M0 327h28M532 327h28M0 328h28M532 328h28M0 329h28M532 329h28M0 330h28M532 330h28M0 331h28M532 331h28M0 332h28M532 332h28M0 333h28M532 333h28M0 334h28M532 334h28M0 335h28M532 335h28M0 336h28M532 336h28M0 337h28M532 337h28M0 338h28M532 338h28M0 339h28M532 339h28M0 340h28M532 340h28M0 341h28M532 341h28M0 342h28M532 342h28M0 343h28M532 343h28M0 344h28M532 344h28M0 345h28M532 345h28M0 346h28M532 346h28M0 347h28M532 347h28M0 348h28M532 348h28M0 349h28M532 349h28M0 350h28M532 350h28M0 351h28M532 351h28M0 352h28M532 352h28M0 353h28M532 353h28M0 354h28M532 354h28M0 355h28M532 355h28M0 356h28M532 356h28M0 357h28M532 357h28M0 358h28M532 358h28M0 359h28M532 359h28M0 360h28M532 360h28M0 361h28M532 361h28M0 362h28M532 362h28M0 363h28M532 363h28M0 364h28M532 364h28M0 365h28M532 365h28M0 366h28M532 366h28M0 367h28M532 367h28M0 368h28M532 368h28M0 369h28M532 369h28M0 370h28M532 370h28M0 371h28M532 371h28M0 372h28M532 372h28M0 373h28M532 373h28M0 374h28M532 374h28M0 375h28M532 375h28M0 376h28M532 376h28M0 377h28M532 377h28M0 378h28M532 378h28M0 379h28M532 379h28M0 380h28M532 380h28M0 381h28M532 381h28M0 382h28M532 382h28M0 383h28M532 383h28M0 384h28M532 384h28M0 385h28M532 385h28M0 386h28M532 386h28M0 387h28M532 387h28M0 388h28M532 388h28M0 389h28M532 389h28M0 390h28M532 390h28M0 391h28M532 391h28M0 392h28M532 392h28M0 393h28M532 393h28M0 394h28M532 394h28M0 395h28M532 395h28M0 396h28M532 396h28M0 397h28M532 397h28M0 398h28M532 398h28M0 399h28M532 399h28M0 400h28M532 400h28M0 401h28M532 401h28M0 402h28M532 402h28M0 403h28M532 403h28M0 404h28M532 404h28M0 405h28M532 405h28M0 406h28M532 406h28M0 407h28M532 407h28M0 408h28M532 408h28M0 409h28M532 409h28M0 410h28M532 410h28M0 411h28M532 411h28M0 412h28M532 412h28M0 413h28M532 413h28M0 414h28M532 414h28M0 415h28M532 415h28M0 416h28M532 416h28M0 417h28M532 417h28M0 418h28M532 418h28M0 419h28M532 419h28M0 420h28M532 420h28M0 421h28M532 421h28M0 422h28M532 422h28M0 423h28M532 423h28M0 424h28M532 424h28M0 425h28M532 425h28M0 426h28M532 426h28M0 427h28M532 427h28M0 428h28M532 428h28M0 429h28M532 429h28M0 430h28M532 430h28M0 431h28M532 431h28M0 432h28M532 432h28M0 433h28M532 433h28M0 434h28M532 434h28M0 435h28M532 435h28M0 436h28M532 436h28M0 437h28M532 437h28M0 438h28M532 438h28M0 439h28M532 439h28M0 440h28M532 440h28M0 441h28M532 441h28M0 442h28M532 442h28M0 443h28M532 443h28M0 444h28M532 444h28M0 445h28M532 445h28M0 446h28M532 446h28M0 447h28M532 447h28M0 448h28M532 448h28M0 449h28M532 449h28M0 450h28M532 450h28M0 451h28M532 451h28M0 452h28M532 452h28M0 453h28M532 453h28M0 454h28M532 454h28M0 455h28M532 455h28M0 456h28M532 456h28M0 457h28M532 457h28M0 458h28M532 458h28M0 459h28M532 459h28M0 460h28M532 460h28M0 461h28M532 461h28M0 462h28M532 462h28M0 463h28M532 463h28M0 464h28M532 464h28M0 465h28M532 465h28M0 466h28M532 466h28M0 467h28M532 467h28M0 468h28M532 468h28M0 469h28M532 469h28M0 470h28M532 470h28M0 471h28M532 471h28M0 472h28M532 472h28M0 473h28M532 473h28M0 474h28M532 474h28M0 475h28M532 475h28M0 476h28M532 476h28M0 477h28M532 477h28M0 478h28M532 478h28M0 479h28M532 479h28M0 480h28M532 480h28M0 481h28M532 481h28M0 482h28M532 482h28M0 483h28M532 483h28M0 484h28M532 484h28M0 485h28M532 485h28M0 486h28M532 486h28M0 487h28M532 487h28M0 488h28M532 488h28M0 489h28M532 489h28M0 490h28M532 490h28M0 491h28M532 491h28M0 492h28M532 492h28M0 493h28M532 493h28M0 494h28M532 494h28M0 495h28M532 495h28M0 496h28M532 496h28M0 497h28M532 497h28M0 498h28M532 498h28M0 499h28M532 499h28M0 500h28M532 500h28M0 501h28M532 501h28M0 502h28M532 502h28M0 503h28M532 503h28M0 504h28M532 504h28M0 505h28M532 505h28M0 506h28M532 506h28M0 507h28M532 507h28M0 508h28M532 508h28M0 509h28M532 509h28M0 510h28M532 510h28M0 511h28M532 511h28M0 512h28M532 512h28M0 513h28M532 513h28M0 514h28M532 514h28M0 515h28M532 515h28M0 516h28M532 516h28M0 517h28M532 517h28M0 518h28M532 518h28M0 519h28M532 519h28M0 520h28M532 520h28M0 521h28M532 521h28M0 522h28M532 522h28M0 523h28M532 523h28M0 524h28M532 524h28M0 525h28M532 525h28M0 526h28M532 526h28M0 527h28M532 527h28M0 528h28M532 528h28M0 529h28M532 529h28M0 530h28M532 530h28M0 531h28M532 531h28M0 532h28M532 532h28M0 533h28M532 533h28M0 534h28M532 534h28M0 535h28M532 535h28M0 536h28M532 536h28M0 537h28M532 537h28M0 538h28M532 538h28M0 539h28M532 539h28M0 540h28M532 540h28M0 541h28M532 541h28M0 542h28M532 542h28M0 543h28M532 543h28M0 544h28M532 544h28M0 545h28M532 545h28M0 546h28M532 546h28M0 547h28M532 547h28M0 548h28M532 548h28M0 549h28M532 549h28M0 550h28M532 550h28M0 551h28M532 551h28M0 552h28M532 552h28M0 553h28M532 553h28M0 554h28M532 554h28M0 555h28M532 555h28M0 556h28M532 556h28M0 557h28M532 557h28M0 558h28M532 558h28M0 559h28M532 559h28M0 560h28M532 560h28M0 561h28M532 561h28M0 562h28M532 562h28M0 563h28M532 563h28M0 564h28M532 564h28M0 565h28M532 565h28M0 566h28M532 566h28M0 567h28M532 567h28M0 568h28M532 568h28M0 569h28M532 569h28M0 570h28M532 570h28M0 571h28M532 571h28M0 572h28M532 572h28M0 573h28M532 573h28M0 574h28M532 574h28M0 575h28M532 575h28M0 576h28M532 576h28M0 577h28M532 577h28M0 578h28M532 578h28M0 579h28M532 579h28M0 580h28M532 580h28M0 581h28M532 581h28M0 582h28M532 582h28M0 583h28M532 583h28M0 584h28M532 584h28M0 585h28M532 585h28M0 586h28M532 586h28M0 587h28M532 587h28M0 588h28M532 588h28M0 589h28M532 589h28M0 590h28M532 590h28M0 591h28M532 591h28M0 592h28M532 592h28M0 593h28M532 593h28M0 594h28M532 594h28M0 595h28M532 595h28M0 596h28M532 596h28M0 597h28M532 597h28M0 598h28M532 598h28M0 599h28M532 599h28M0 600h28M532 600h28M0 601h28M532 601h28M0 602h28M532 602h28M0 603h28M532 603h28M0 604h28M532 604h28M0 605h28M532 605h28M0 606h28M532 606h28M0 607h28M532 607h28M0 608h28M532 608h28M0 609h28M532 609h28M0 610h28M532 610h28M0 611h28M532 611h28M0 612h28M532 612h28M0 613h28M532 613h28M0 614h28M532 614h28M0 615h28M532 615h28M0 616h28M532 616h28M0 617h28M532 617h28M0 618h28M532 618h28M0 619h28M532 619h28M0 620h28M532 620h28M0 621h28M532 621h28M0 622h28M532 622h28M0 623h28M532 623h28M0 624h28M532 624h28M0 625h28M532 625h28M0 626h28M532 626h28M0 627h28M532 627h28M0 628h28M532 628h28M0 629h28M532 629h28M0 630h28M532 630h28M0 631h28M532 631h28M0 632h28M532 632h28M0 633h28M532 633h28M0 634h28M532 634h28M0 635h28M532 635h28M0 636h28M532 636h28M0 637h28M532 637h28M0 638h28M532 638h28M0 639h28M532 639h28M0 640h28M532 640h28M0 641h28M532 641h28M0 642h28M532 642h28M0 643h28M532 643h28M0 644h28M532 644h28M0 645h28M532 645h28M0 646h28M532 646h28M0 647h28M532 647h28M0 648h28M532 648h28M0 649h28M532 649h28M0 650h28M532 650h28M0 651h28M532 651h28M0 652h28M532 652h28M0 653h28M532 653h28M0 654h28M532 654h28M0 655h28M532 655h28M0 656h28M532 656h28M0 657h28M532 657h28M0 658h28M532 658h28M0 659h28M532 659h28M0 660h28M532 660h28M0 661h28M532 661h28M0 662h28M532 662h28M0 663h28M532 663h28M0 664h28M532 664h28M0 665h28M532 665h28M0 666h28M532 666h28M0 667h28M532 667h28M0 668h28M532 668h28M0 669h28M532 669h28M0 670h28M532 670h28M0 671h28M532 671h28M0 672h28M532 672h28M0 673h28M532 673h28M0 674h28M532 674h28M0 675h28M532 675h28M0 676h28M532 676h28M0 677h28M532 677h28M0 678h28M532 678h28M0 679h28M532 679h28M0 680h28M532 680h28M0 681h28M532 681h28M0 682h28M532 682h28M0 683h28M532 683h28M0 684h28M532 684h28M0 685h28M532 685h28M0 686h28M532 686h28M0 687h28M532 687h28M0 688h28M532 688h28M0 689h28M532 689h28M0 690h28M532 690h28M0 691h28M532 691h28M0 692h28M532 692h28M0 693h28M532 693h28M0 694h28M532 694h28M0 695h28M532 695h28M0 696h28M532 696h28M0 697h28M532 697h28M0 698h28M532 698h28M0 699h28M532 699h28M0 700h28M532 700h28M0 701h28M532 701h28M0 702h28M532 702h28M0 703h28M532 703h28M0 704h28M532 704h28M0 705h28M532 705h28M0 706h28M532 706h28M0 707h28M532 707h28M0 708h28M532 708h28M0 709h28M532 709h28M0 710h28M532 710h28M0 711h28M532 711h28M0 712h28M532 712h28M0 713h28M532 713h28M0 714h28M532 714h28M0 715h28M532 715h28M0 716h28M532 716h28M0 717h28M532 717h28M0 718h28M532 718h28M0 719h28M532 719h28M0 720h28M532 720h28M0 721h28M532 721h28M0 722h28M532 722h28M0 723h28M532 723h28M0 724h28M532 724h28M0 725h28M532 725h28M0 726h28M532 726h28M0 727h28M532 727h28M0 728h84M532 728h84M0 729h84M532 729h84M0 730h84M532 730h84M0 731h84M532 731h84M0 732h84M532 732h84M0 733h84M532 733h84M0 734h84M532 734h84M0 735h84M532 735h84M0 736h84M532 736h84M0 737h84M532 737h84M0 738h84M532 738h84M0 739h84M532 739h84M0 740h84M532 740h84M0 741h84M532 741h84M0 742h84M532 742h84M0 743h84M532 743h84M0 744h84M532 744h84M0 745h84M532 745h84M0 746h84M532 746h84M0 747h84M532 747h84M0 748h84M532 748h84M0 749h84M532 749h84M0 750h84M532 750h84M0 751h84M532 751h84M0 752h84M532 752h84M0 753h84M532 753h84M0 754h84M532 754h84M0 755h84M532 755h84" />
<path stroke="#fdee39" d="M728 252h28M728 253h28M728 254h28M728 255h28M728 256h28M728 257h28M728 258h28M728 259h28M728 260h28M728 261h28M728 262h28M728 263h28M728 264h28M728 265h28M728 266h28M728 267h28M728 268h28M728 269h28M728 270h28M728 271h28M728 272h28M728 273h28M728 274h28M728 275h28M728 276h28M728 277h28M728 278h28M728 279h28M616 280h140M616 281h140M616 282h140M616 283h140M616 284h140M616 285h140M616 286h140M616 287h140M616 288h140M616 289h140M616 290h140M616 291h140M616 292h140M616 293h140M616 294h140M616 295h140M616 296h140M616 297h140M616 298h140M616 299h140M616 300h140M616 301h140M616 302h140M616 303h140M616 304h140M616 305h140M616 306h140M616 307h140M28 308h504M560 308h196M28 309h504M560 309h196M28 310h504M560 310h196M28 311h504M560 311h196M28 312h504M560 312h196M28 313h504M560 313h196M28 314h504M560 314h196M28 315h504M560 315h196M28 316h504M560 316h196M28 317h504M560 317h196M28 318h504M560 318h196M28 319h504M560 319h196M28 320h504M560 320h196M28 321h504M560 321h196M28 322h504M560 322h196M28 323h504M560 323h196M28 324h504M560 324h196M28 325h504M560 325h196M28 326h504M560 326h196M28 327h504M560 327h196M28 328h504M560 328h196M28 329h504M560 329h196M28 330h504M560 330h196M28 331h504M560 331h196M28 332h504M560 332h196M28 333h504M560 333h196M28 334h504M560 334h196M28 335h504M560 335h196M28 336h504M560 336h196M28 337h504M560 337h196M28 338h504M560 338h196M28 339h504M560 339h196M28 340h504M560 340h196M28 341h504M560 341h196M28 342h504M560 342h196M28 343h504M560 343h196M28 344h504M560 344h196M28 345h504M560 345h196M28 346h504M560 346h196M28 347h504M560 347h196M28 348h504M560 348h196M28 349h504M560 349h196M28 350h504M560 350h196M28 351h504M560 351h196M28 352h504M560 352h196M28 353h504M560 353h196M28 354h504M560 354h196M28 355h504M560 355h196M28 356h504M560 356h196M28 357h504M560 357h196M28 358h504M560 358h196M28 359h504M560 359h196M28 360h504M560 360h196M28 361h504M560 361h196M28 362h504M560 362h196M28 363h504M560 363h196M28 364h504M560 364h196M28 365h504M560 365h196M28 366h504M560 366h196M28 367h504M560 367h196M28 368h504M560 368h196M28 369h504M560 369h196M28 370h504M560 370h196M28 371h504M560 371h196M28 372h504M560 372h196M28 373h504M560 373h196M28 374h504M560 374h196M28 375h504M560 375h196M28 376h504M560 376h196M28 377h504M560 377h196M28 378h504M560 378h196M28 379h504M560 379h196M28 380h504M560 380h196M28 381h504M560 381h196M28 382h504M560 382h196M28 383h504M560 383h196M28 384h504M560 384h196M28 385h504M560 385h196M28 386h504M560 386h196M28 387h504M560 387h196M28 388h504M560 388h196M28 389h504M560 389h196M28 390h504M560 390h196M28 391h504M560 391h196M28 392h28M196 392h28M252 392h28M308 392h84M420 392h28M476 392h56M560 392h196M28 393h28M196 393h28M252 393h28M308 393h84M420 393h28M476 393h56M560 393h196M28 394h28M196 394h28M252 394h28M308 394h84M420 394h28M476 394h56M560 394h196M28 395h28M196 395h28M252 395h28M308 395h84M420 395h28M476 395h56M560 395h196M28 396h28M196 396h28M252 396h28M308 396h84M420 396h28M476 396h56M560 396h196M28 397h28M196 397h28M252 397h28M308 397h84M420 397h28M476 397h56M560 397h196M28 398h28M196 398h28M252 398h28M308 398h84M420 398h28M476 398h56M560 398h196M28 399h28M196 399h28M252 399h28M308 399h84M420 399h28M476 399h56M560 399h196M28 400h28M196 400h28M252 400h28M308 400h84M420 400h28M476 400h56M560 400h196M28 401h28M196 401h28M252 401h28M308 401h84M420 401h28M476 401h56M560 401h196M28 402h28M196 402h28M252 402h28M308 402h84M420 402h28M476 402h56M560 402h196M28 403h28M196 403h28M252 403h28M308 403h84M420 403h28M476 403h56M560 403h196M28 404h28M196 404h28M252 404h28M308 404h84M420 404h28M476 404h56M560 404h196M28 405h28M196 405h28M252 405h28M308 405h84M420 405h28M476 405h56M560 405h196M28 406h28M196 406h28M252 406h28M308 406h84M420 406h28M476 406h56M560 406h196M28 407h28M196 407h28M252 407h28M308 407h84M420 407h28M476 407h56M560 407h196M28 408h28M196 408h28M252 408h28M308 408h84M420 408h28M476 408h56M560 408h196M28 409h28M196 409h28M252 409h28M308 409h84M420 409h28M476 409h56M560 409h196M28 410h28M196 410h28M252 410h28M308 410h84M420 410h28M476 410h56M560 410h196M28 411h28M196 411h28M252 411h28M308 411h84M420 411h28M476 411h56M560 411h196M28 412h28M196 412h28M252 412h28M308 412h84M420 412h28M476 412h56M560 412h196M28 413h28M196 413h28M252 413h28M308 413h84M420 413h28M476 413h56M560 413h196M28 414h28M196 414h28M252 414h28M308 414h84M420 414h28M476 414h56M560 414h196M28 415h28M196 415h28M252 415h28M308 415h84M420 415h28M476 415h56M560 415h196M28 416h28M196 416h28M252 416h28M308 416h84M420 416h28M476 416h56M560 416h196M28 417h28M196 417h28M252 417h28M308 417h84M420 417h28M476 417h56M560 417h196M28 418h28M196 418h28M252 418h28M308 418h84M420 418h28M476 418h56M560 418h196M28 419h28M196 419h28M252 419h28M308 419h84M420 419h28M476 419h56M560 419h196M28 420h28M84 420h28M140 420h28M196 420h28M252 420h28M308 420h84M476 420h56M560 420h196M28 421h28M84 421h28M140 421h28M196 421h28M252 421h28M308 421h84M476 421h56M560 421h196M28 422h28M84 422h28M140 422h28M196 422h28M252 422h28M308 422h84M476 422h56M560 422h196M28 423h28M84 423h28M140 423h28M196 423h28M252 423h28M308 423h84M476 423h56M560 423h196M28 424h28M84 424h28M140 424h28M196 424h28M252 424h28M308 424h84M476 424h56M560 424h196M28 425h28M84 425h28M140 425h28M196 425h28M252 425h28M308 425h84M476 425h56M560 425h196M28 426h28M84 426h28M140 426h28M196 426h28M252 426h28M308 426h84M476 426h56M560 426h196M28 427h28M84 427h28M140 427h28M196 427h28M252 427h28M308 427h84M476 427h56M560 427h196M28 428h28M84 428h28M140 428h28M196 428h28M252 428h28M308 428h84M476 428h56M560 428h196M28 429h28M84 429h28M140 429h28M196 429h28M252 429h28M308 429h84M476 429h56M560 429h196M28 430h28M84 430h28M140 430h28M196 430h28M252 430h28M308 430h84M476 430h56M560 430h196M28 431h28M84 431h28M140 431h28M196 431h28M252 431h28M308 431h84M476 431h56M560 431h196M28 432h28M84 432h28M140 432h28M196 432h28M252 432h28M308 432h84M476 432h56M560 432h196M28 433h28M84 433h28M140 433h28M196 433h28M252 433h28M308 433h84M476 433h56M560 433h196M28 434h28M84 434h28M140 434h28M196 434h28M252 434h28M308 434h84M476 434h56M560 434h196M28 435h28M84 435h28M140 435h28M196 435h28M252 435h28M308 435h84M476 435h56M560 435h196M28 436h28M84 436h28M140 436h28M196 436h28M252 436h28M308 436h84M476 436h56M560 436h196M28 437h28M84 437h28M140 437h28M196 437h28M252 437h28M308 437h84M476 437h56M560 437h196M28 438h28M84 438h28M140 438h28M196 438h28M252 438h28M308 438h84M476 438h56M560 438h196M28 439h28M84 439h28M140 439h28M196 439h28M252 439h28M308 439h84M476 439h56M560 439h196M28 440h28M84 440h28M140 440h28M196 440h28M252 440h28M308 440h84M476 440h56M560 440h196M28 441h28M84 441h28M140 441h28M196 441h28M252 441h28M308 441h84M476 441h56M560 441h196M28 442h28M84 442h28M140 442h28M196 442h28M252 442h28M308 442h84M476 442h56M560 442h196M28 443h28M84 443h28M140 443h28M196 443h28M252 443h28M308 443h84M476 443h56M560 443h196M28 444h28M84 444h28M140 444h28M196 444h28M252 444h28M308 444h84M476 444h56M560 444h196M28 445h28M84 445h28M140 445h28M196 445h28M252 445h28M308 445h84M476 445h56M560 445h196M28 446h28M84 446h28M140 446h28M196 446h28M252 446h28M308 446h84M476 446h56M560 446h196M28 447h28M84 447h28M140 447h28M196 447h28M252 447h28M308 447h84M476 447h56M560 447h196M28 448h28M84 448h28M140 448h28M196 448h28M252 448h28M308 448h84M448 448h84M560 448h196M28 449h28M84 449h28M140 449h28M196 449h28M252 449h28M308 449h84M448 449h84M560 449h196M28 450h28M84 450h28M140 450h28M196 450h28M252 450h28M308 450h84M448 450h84M560 450h196M28 451h28M84 451h28M140 451h28M196 451h28M252 451h28M308 451h84M448 451h84M560 451h196M28 452h28M84 452h28M140 452h28M196 452h28M252 452h28M308 452h84M448 452h84M560 452h196M28 453h28M84 453h28M140 453h28M196 453h28M252 453h28M308 453h84M448 453h84M560 453h196M28 454h28M84 454h28M140 454h28M196 454h28M252 454h28M308 454h84M448 454h84M560 454h196M28 455h28M84 455h28M140 455h28M196 455h28M252 455h28M308 455h84M448 455h84M560 455h196M28 456h28M84 456h28M140 456h28M196 456h28M252 456h28M308 456h84M448 456h84M560 456h196M28 457h28M84 457h28M140 457h28M196 457h28M252 457h28M308 457h84M448 457h84M560 457h196M28 458h28M84 458h28M140 458h28M196 458h28M252 458h28M308 458h84M448 458h84M560 458h196M28 459h28M84 459h28M140 459h28M196 459h28M252 459h28M308 459h84M448 459h84M560 459h196M28 460h28M84 460h28M140 460h28M196 460h28M252 460h28M308 460h84M448 460h84M560 460h196M28 461h28M84 461h28M140 461h28M196 461h28M252 461h28M308 461h84M448 461h84M560 461h196M28 462h28M84 462h28M140 462h28M196 462h28M252 462h28M308 462h84M448 462h84M560 462h196M28 463h28M84 463h28M140 463h28M196 463h28M252 463h28M308 463h84M448 463h84M560 463h196M28 464h28M84 464h28M140 464h28M196 464h28M252 464h28M308 464h84M448 464h84M560 464h196M28 465h28M84 465h28M140 465h28M196 465h28M252 465h28M308 465h84M448 465h84M560 465h196M28 466h28M84 466h28M140 466h28M196 466h28M252 466h28M308 466h84M448 466h84M560 466h196M28 467h28M84 467h28M140 467h28M196 467h28M252 467h28M308 467h84M448 467h84M560 467h196M28 468h28M84 468h28M140 468h28M196 468h28M252 468h28M308 468h84M448 468h84M560 468h196M28 469h28M84 469h28M140 469h28M196 469h28M252 469h28M308 469h84M448 469h84M560 469h196M28 470h28M84 470h28M140 470h28M196 470h28M252 470h28M308 470h84M448 470h84M560 470h196M28 471h28M84 471h28M140 471h28M196 471h28M252 471h28M308 471h84M448 471h84M560 471h196M28 472h28M84 472h28M140 472h28M196 472h28M252 472h28M308 472h84M448 472h84M560 472h196M28 473h28M84 473h28M140 473h28M196 473h28M252 473h28M308 473h84M448 473h84M560 473h196M28 474h28M84 474h28M140 474h28M196 474h28M252 474h28M308 474h84M448 474h84M560 474h196M28 475h28M84 475h28M140 475h28M196 475h28M252 475h28M308 475h84M448 475h84M560 475h196M28 476h28M84 476h28M140 476h28M196 476h28M252 476h28M308 476h84M476 476h56M560 476h196M28 477h28M84 477h28M140 477h28M196 477h28M252 477h28M308 477h84M476 477h56M560 477h196M28 478h28M84 478h28M140 478h28M196 478h28M252 478h28M308 478h84M476 478h56M560 478h196M28 479h28M84 479h28M140 479h28M196 479h28M252 479h28M308 479h84M476 479h56M560 479h196M28 480h28M84 480h28M140 480h28M196 480h28M252 480h28M308 480h84M476 480h56M560 480h196M28 481h28M84 481h28M140 481h28M196 481h28M252 481h28M308 481h84M476 481h56M560 481h196M28 482h28M84 482h28M140 482h28M196 482h28M252 482h28M308 482h84M476 482h56M560 482h196M28 483h28M84 483h28M140 483h28M196 483h28M252 483h28M308 483h84M476 483h56M560 483h196M28 484h28M84 484h28M140 484h28M196 484h28M252 484h28M308 484h84M476 484h56M560 484h196M28 485h28M84 485h28M140 485h28M196 485h28M252 485h28M308 485h84M476 485h56M560 485h196M28 486h28M84 486h28M140 486h28M196 486h28M252 486h28M308 486h84M476 486h56M560 486h196M28 487h28M84 487h28M140 487h28M196 487h28M252 487h28M308 487h84M476 487h56M560 487h196M28 488h28M84 488h28M140 488h28M196 488h28M252 488h28M308 488h84M476 488h56M560 488h196M28 489h28M84 489h28M140 489h28M196 489h28M252 489h28M308 489h84M476 489h56M560 489h196M28 490h28M84 490h28M140 490h28M196 490h28M252 490h28M308 490h84M476 490h56M560 490h196M28 491h28M84 491h28M140 491h28M196 491h28M252 491h28M308 491h84M476 491h56M560 491h196M28 492h28M84 492h28M140 492h28M196 492h28M252 492h28M308 492h84M476 492h56M560 492h196M28 493h28M84 493h28M140 493h28M196 493h28M252 493h28M308 493h84M476 493h56M560 493h196M28 494h28M84 494h28M140 494h28M196 494h28M252 494h28M308 494h84M476 494h56M560 494h196M28 495h28M84 495h28M140 495h28M196 495h28M252 495h28M308 495h84M476 495h56M560 495h196M28 496h28M84 496h28M140 496h28M196 496h28M252 496h28M308 496h84M476 496h56M560 496h196M28 497h28M84 497h28M140 497h28M196 497h28M252 497h28M308 497h84M476 497h56M560 497h196M28 498h28M84 498h28M140 498h28M196 498h28M252 498h28M308 498h84M476 498h56M560 498h196M28 499h28M84 499h28M140 499h28M196 499h28M252 499h28M308 499h84M476 499h56M560 499h196M28 500h28M84 500h28M140 500h28M196 500h28M252 500h28M308 500h84M476 500h56M560 500h196M28 501h28M84 501h28M140 501h28M196 501h28M252 501h28M308 501h84M476 501h56M560 501h196M28 502h28M84 502h28M140 502h28M196 502h28M252 502h28M308 502h84M476 502h56M560 502h196M28 503h28M84 503h28M140 503h28M196 503h28M252 503h28M308 503h84M476 503h56M560 503h196M28 504h28M84 504h28M140 504h28M196 504h28M252 504h28M364 504h28M420 504h28M504 504h28M560 504h196M28 505h28M84 505h28M140 505h28M196 505h28M252 505h28M364 505h28M420 505h28M504 505h28M560 505h196M28 506h28M84 506h28M140 506h28M196 506h28M252 506h28M364 506h28M420 506h28M504 506h28M560 506h196M28 507h28M84 507h28M140 507h28M196 507h28M252 507h28M364 507h28M420 507h28M504 507h28M560 507h196M28 508h28M84 508h28M140 508h28M196 508h28M252 508h28M364 508h28M420 508h28M504 508h28M560 508h196M28 509h28M84 509h28M140 509h28M196 509h28M252 509h28M364 509h28M420 509h28M504 509h28M560 509h196M28 510h28M84 510h28M140 510h28M196 510h28M252 510h28M364 510h28M420 510h28M504 510h28M560 510h196M28 511h28M84 511h28M140 511h28M196 511h28M252 511h28M364 511h28M420 511h28M504 511h28M560 511h196M28 512h28M84 512h28M140 512h28M196 512h28M252 512h28M364 512h28M420 512h28M504 512h28M560 512h196M28 513h28M84 513h28M140 513h28M196 513h28M252 513h28M364 513h28M420 513h28M504 513h28M560 513h196M28 514h28M84 514h28M140 514h28M196 514h28M252 514h28M364 514h28M420 514h28M504 514h28M560 514h196M28 515h28M84 515h28M140 515h28M196 515h28M252 515h28M364 515h28M420 515h28M504 515h28M560 515h196M28 516h28M84 516h28M140 516h28M196 516h28M252 516h28M364 516h28M420 516h28M504 516h28M560 516h196M28 517h28M84 517h28M140 517h28M196 517h28M252 517h28M364 517h28M420 517h28M504 517h28M560 517h196M28 518h28M84 518h28M140 518h28M196 518h28M252 518h28M364 518h28M420 518h28M504 518h28M560 518h196M28 519h28M84 519h28M140 519h28M196 519h28M252 519h28M364 519h28M420 519h28M504 519h28M560 519h196M28 520h28M84 520h28M140 520h28M196 520h28M252 520h28M364 520h28M420 520h28M504 520h28M560 520h196M28 521h28M84 521h28M140 521h28M196 521h28M252 521h28M364 521h28M420 521h28M504 521h28M560 521h196M28 522h28M84 522h28M140 522h28M196 522h28M252 522h28M364 522h28M420 522h28M504 522h28M560 522h196M28 523h28M84 523h28M140 523h28M196 523h28M252 523h28M364 523h28M420 523h28M504 523h28M560 523h196M28 524h28M84 524h28M140 524h28M196 524h28M252 524h28M364 524h28M420 524h28M504 524h28M560 524h196M28 525h28M84 525h28M140 525h28M196 525h28M252 525h28M364 525h28M420 525h28M504 525h28M560 525h196M28 526h28M84 526h28M140 526h28M196 526h28M252 526h28M364 526h28M420 526h28M504 526h28M560 526h196M28 527h28M84 527h28M140 527h28M196 527h28M252 527h28M364 527h28M420 527h28M504 527h28M560 527h196M28 528h28M84 528h28M140 528h28M196 528h28M252 528h28M364 528h28M420 528h28M504 528h28M560 528h196M28 529h28M84 529h28M140 529h28M196 529h28M252 529h28M364 529h28M420 529h28M504 529h28M560 529h196M28 530h28M84 530h28M140 530h28M196 530h28M252 530h28M364 530h28M420 530h28M504 530h28M560 530h196M28 531h28M84 531h28M140 531h28M196 531h28M252 531h28M364 531h28M420 531h28M504 531h28M560 531h196M28 532h504M560 532h196M28 533h504M560 533h196M28 534h504M560 534h196M28 535h504M560 535h196M28 536h504M560 536h196M28 537h504M560 537h196M28 538h504M560 538h196M28 539h504M560 539h196M28 540h504M560 540h196M28 541h504M560 541h196M28 542h504M560 542h196M28 543h504M560 543h196M28 544h504M560 544h196M28 545h504M560 545h196M28 546h504M560 546h196M28 547h504M560 547h196M28 548h504M560 548h196M28 549h504M560 549h196M28 550h504M560 550h196M28 551h504M560 551h196M28 552h504M560 552h196M28 553h504M560 553h196M28 554h504M560 554h196M28 555h504M560 555h196M28 556h504M560 556h196M28 557h504M560 557h196M28 558h504M560 558h196M28 559h504M560 559h196M28 560h504M560 560h140M28 561h504M560 561h140M28 562h504M560 562h140M28 563h504M560 563h140M28 564h504M560 564h140M28 565h504M560 565h140M28 566h504M560 566h140M28 567h504M560 567h140M28 568h504M560 568h140M28 569h504M560 569h140M28 570h504M560 570h140M28 571h504M560 571h140M28 572h504M560 572h140M28 573h504M560 573h140M28 574h504M560 574h140M28 575h504M560 575h140M28 576h504M560 576h140M28 577h504M560 577h140M28 578h504M560 578h140M28 579h504M560 579h140M28 580h504M560 580h140M28 581h504M560 581h140M28 582h504M560 582h140M28 583h504M560 583h140M28 584h504M560 584h140M28 585h504M560 585h140M28 586h504M560 586h140M28 587h504M560 587h140M28 588h504M560 588h84M28 589h504M560 589h84M28 590h504M560 590h84M28 591h504M560 591h84M28 592h504M560 592h84M28 593h504M560 593h84M28 594h504M560 594h84M28 595h504M560 595h84M28 596h504M560 596h84M28 597h504M560 597h84M28 598h504M560 598h84M28 599h504M560 599h84M28 600h504M560 600h84M28 601h504M560 601h84M28 602h504M560 602h84M28 603h504M560 603h84M28 604h504M560 604h84M28 605h504M560 605h84M28 606h504M560 606h84M28 607h504M560 607h84M28 608h504M560 608h84M28 609h504M560 609h84M28 610h504M560 610h84M28 611h504M560 611h84M28 612h504M560 612h84M28 613h504M560 613h84M28 614h504M560 614h84M28 615h504M560 615h84M28 616h504M560 616h28M28 617h504M560 617h28M28 618h504M560 618h28M28 619h504M560 619h28M28 620h504M560 620h28M28 621h504M560 621h28M28 622h504M560 622h28M28 623h504M560 623h28M28 624h504M560 624h28M28 625h504M560 625h28M28 626h504M560 626h28M28 627h504M560 627h28M28 628h504M560 628h28M28 629h504M560 629h28M28 630h504M560 630h28M28 631h504M560 631h28M28 632h504M560 632h28M28 633h504M560 633h28M28 634h504M560 634h28M28 635h504M560 635h28M28 636h504M560 636h28M28 637h504M560 637h28M28 638h504M560 638h28M28 639h504M560 639h28M28 640h504M560 640h28M28 641h504M560 641h28M28 642h504M560 642h28M28 643h504M560 643h28" />
</svg>