<?xml version="1.0" encoding="utf-8"?>
<!-- generated at drububu.com  -->
<!DOCTYPE svg PUBLIC "-//W3C//DTD SVG 1.1//EN" "http://www.w3.org/Graphics/SVG/1.1/DTD/svg11.dtd">
<svg version="1.1" preserveAspectRatio="xMinYMin meet" xmlns="http://www.w3.org/2000/svg" xmlns:xlink="http://www.w3.org/1999/xlink" x="0px" y="0px" width="1288px" height="700px" viewBox="0 0 1288 700">
<path d="M0 0h28v56h-28v-56z" fill="rgb(255,255,255)"/>
<path d="M28 0h1204v28h-1176v56h-28v532h28v28h28v28h1092v-28h56v-28h28v-560h-28
	v-28h56v616h-28v28h-56v28h-1148v-28h-28v-28h-28v-588h28v-56z" fill="rgb(0,0,0)"/>
<path d="M1232 0h56v28h-56v-28z" fill="rgb(255,255,255)"/>
<path d="M56 28h1176v28h28v560h-28v28h-56v28h-1092v-28h-28v-28h-28v-532h28v-56z" fill="rgb(238,245,253)"/>
<path d="M0 644h28v28h28v28h-56v-56z" fill="rgb(255,255,255)"/>
<path d="M1260 644h28v56h-84v-28h56v-28z" fill="rgb(255,255,255)"/>
</svg>