<?xml version="1.0" encoding="UTF-8" standalone="no"?>
<!DOCTYPE svg PUBLIC "-//W3C//DTD SVG 1.1//EN" "http://www.w3.org/Graphics/SVG/1.1/DTD/svg11.dtd">
<svg version="1.1" xmlns="http://www.w3.org/2000/svg" xmlns:xlink="http://www.w3.org/1999/xlink" preserveAspectRatio="xMidYMid meet" viewBox="0 0 500 500" width="500" height="500"><defs><path d="M468.75 252.1C468.75 371.67 371.67 468.75 252.1 468.75C132.53 468.75 35.45 371.67 35.45 252.1C35.45 132.53 132.53 35.45 252.1 35.45C371.67 35.45 468.75 132.53 468.75 252.1Z" id="h1CJJWC7BA"></path><path d="M408.2 255.52C408.2 340.01 337.06 408.6 249.42 408.6C161.79 408.6 90.64 340.01 90.64 255.52C90.64 171.03 161.79 102.43 249.42 102.43C337.06 102.43 408.2 171.03 408.2 255.52Z" id="a26isnXC9"></path></defs><g><g><g><g><filter id="shadow2255780" x="26.45" y="26.45" width="452.3" height="452.3" filterUnits="userSpaceOnUse" primitiveUnits="userSpaceOnUse"><feFlood></feFlood><feComposite in2="SourceAlpha" operator="in"></feComposite><feGaussianBlur stdDeviation="1"></feGaussianBlur><feOffset dx="1" dy="1" result="afterOffset"></feOffset><feFlood flood-color="#000000" flood-opacity="0.5"></feFlood><feComposite in2="afterOffset" operator="in"></feComposite><feMorphology operator="dilate" radius="1"></feMorphology><feComposite in2="SourceAlpha" operator="out"></feComposite></filter><path d="M468.75 252.1C468.75 371.67 371.67 468.75 252.1 468.75C132.53 468.75 35.45 371.67 35.45 252.1C35.45 132.53 132.53 35.45 252.1 35.45C371.67 35.45 468.75 132.53 468.75 252.1Z" id="b1TPfKEaMJ" fill="white" fill-opacity="1" filter="url(#shadow2255780)"></path></g><g><use xlink:href="#h1CJJWC7BA" opacity="1" fill-opacity="0" stroke="#3b5af6" stroke-width="10" stroke-opacity="1"></use></g></g><g><g><filter id="shadow7890781" x="81.64" y="93.43" width="336.56" height="325.17" filterUnits="userSpaceOnUse" primitiveUnits="userSpaceOnUse"><feFlood></feFlood><feComposite in2="SourceAlpha" operator="in"></feComposite><feGaussianBlur stdDeviation="1"></feGaussianBlur><feOffset dx="1" dy="1" result="afterOffset"></feOffset><feFlood flood-color="#000000" flood-opacity="0.5"></feFlood><feComposite in2="afterOffset" operator="in"></feComposite><feMorphology operator="dilate" radius="1"></feMorphology><feComposite in2="SourceAlpha" operator="out"></feComposite></filter><path d="M408.2 255.52C408.2 340.01 337.06 408.6 249.42 408.6C161.79 408.6 90.64 340.01 90.64 255.52C90.64 171.03 161.79 102.43 249.42 102.43C337.06 102.43 408.2 171.03 408.2 255.52Z" id="lnkL9ULFG" fill="white" fill-opacity="1" filter="url(#shadow7890781)"></path></g><g><use xlink:href="#a26isnXC9" opacity="1" fill-opacity="0" stroke="#3b5af6" stroke-width="10" stroke-opacity="1"></use></g></g></g></g></svg>