<svg xmlns="http://www.w3.org/2000/svg" viewBox="0 -0.5 1224 680" shape-rendering="crispEdges">
<metadata>Made with Pixels to Svg https://codepen.io/shshaw/pen/XbxvNj</metadata>
<path stroke="#4e2d05" d="M68 0h170M1020 0h170M68 1h170M1020 1h170M68 2h170M1020 2h170M68 3h170M1020 3h170M68 4h170M1020 4h170M68 5h170M1020 5h170M68 6h170M1020 6h170M68 7h170M1020 7h170M68 8h170M1020 8h170M68 9h170M1020 9h170M68 10h170M1020 10h170M68 11h170M1020 11h170M68 12h170M1020 12h170M68 13h170M1020 13h170M68 14h170M1020 14h170M68 15h170M1020 15h170M68 16h170M1020 16h170M68 17h170M1020 17h170M68 18h170M1020 18h170M68 19h170M1020 19h170M68 20h170M1020 20h170M68 21h170M1020 21h170M68 22h170M1020 22h170M68 23h170M1020 23h170M68 24h170M1020 24h170M68 25h170M1020 25h170M68 26h170M1020 26h170M68 27h170M1020 27h170M68 28h170M1020 28h170M68 29h170M1020 29h170M68 30h170M1020 30h170M68 31h170M1020 31h170M68 32h170M1020 32h170M68 33h170M1020 33h170M34 34h204M306 34h646M1020 34h204M34 35h204M306 35h646M1020 35h204M34 36h204M306 36h646M1020 36h204M34 37h204M306 37h646M1020 37h204M34 38h204M306 38h646M1020 38h204M34 39h204M306 39h646M1020 39h204M34 40h204M306 40h646M1020 40h204M34 41h204M306 41h646M1020 41h204M34 42h204M306 42h646M1020 42h204M34 43h204M306 43h646M1020 43h204M34 44h204M306 44h646M1020 44h204M34 45h204M306 45h646M1020 45h204M34 46h204M306 46h646M1020 46h204M34 47h204M306 47h646M1020 47h204M34 48h204M306 48h646M1020 48h204M34 49h204M306 49h646M1020 49h204M34 50h204M306 50h646M1020 50h204M34 51h204M306 51h646M1020 51h204M34 52h204M306 52h646M1020 52h204M34 53h204M306 53h646M1020 53h204M34 54h204M306 54h646M1020 54h204M34 55h204M306 55h646M1020 55h204M34 56h204M306 56h646M1020 56h204M34 57h204M306 57h646M1020 57h204M34 58h204M306 58h646M1020 58h204M34 59h204M306 59h646M1020 59h204M34 60h204M306 60h646M1020 60h204M34 61h204M306 61h646M1020 61h204M34 62h204M306 62h646M1020 62h204M34 63h204M306 63h646M1020 63h204M34 64h204M306 64h646M1020 64h204M34 65h204M306 65h646M1020 65h204M34 66h204M306 66h646M1020 66h204M34 67h204M306 67h646M1020 67h204M0 68h102M170 68h884M1122 68h102M0 69h102M170 69h884M1122 69h102M0 70h102M170 70h884M1122 70h102M0 71h102M170 71h884M1122 71h102M0 72h102M170 72h884M1122 72h102M0 73h102M170 73h884M1122 73h102M0 74h102M170 74h884M1122 74h102M0 75h102M170 75h884M1122 75h102M0 76h102M170 76h884M1122 76h102M0 77h102M170 77h884M1122 77h102M0 78h102M170 78h884M1122 78h102M0 79h102M170 79h884M1122 79h102M0 80h102M170 80h884M1122 80h102M0 81h102M170 81h884M1122 81h102M0 82h102M170 82h884M1122 82h102M0 83h102M170 83h884M1122 83h102M0 84h102M170 84h884M1122 84h102M0 85h102M170 85h884M1122 85h102M0 86h102M170 86h884M1122 86h102M0 87h102M170 87h884M1122 87h102M0 88h102M170 88h884M1122 88h102M0 89h102M170 89h884M1122 89h102M0 90h102M170 90h884M1122 90h102M0 91h102M170 91h884M1122 91h102M0 92h102M170 92h884M1122 92h102M0 93h102M170 93h884M1122 93h102M0 94h102M170 94h884M1122 94h102M0 95h102M170 95h884M1122 95h102M0 96h102M170 96h884M1122 96h102M0 97h102M170 97h884M1122 97h102M0 98h102M170 98h884M1122 98h102M0 99h102M170 99h884M1122 99h102M0 100h102M170 100h884M1122 100h102M0 101h102M170 101h884M1122 101h102M0 102h68M170 102h884M1156 102h68M0 103h68M170 103h884M1156 103h68M0 104h68M170 104h884M1156 104h68M0 105h68M170 105h884M1156 105h68M0 106h68M170 106h884M1156 106h68M0 107h68M170 107h884M1156 107h68M0 108h68M170 108h884M1156 108h68M0 109h68M170 109h884M1156 109h68M0 110h68M170 110h884M1156 110h68M0 111h68M170 111h884M1156 111h68M0 112h68M170 112h884M1156 112h68M0 113h68M170 113h884M1156 113h68M0 114h68M170 114h884M1156 114h68M0 115h68M170 115h884M1156 115h68M0 116h68M170 116h884M1156 116h68M0 117h68M170 117h884M1156 117h68M0 118h68M170 118h884M1156 118h68M0 119h68M170 119h884M1156 119h68M0 120h68M170 120h884M1156 120h68M0 121h68M170 121h884M1156 121h68M0 122h68M170 122h884M1156 122h68M0 123h68M170 123h884M1156 123h68M0 124h68M170 124h884M1156 124h68M0 125h68M170 125h884M1156 125h68M0 126h68M170 126h884M1156 126h68M0 127h68M170 127h884M1156 127h68M0 128h68M170 128h884M1156 128h68M0 129h68M170 129h884M1156 129h68M0 130h68M170 130h884M1156 130h68M0 131h68M170 131h884M1156 131h68M0 132h68M170 132h884M1156 132h68M0 133h68M170 133h884M1156 133h68M0 134h68M170 134h884M1156 134h68M0 135h68M170 135h884M1156 135h68M0 136h68M136 136h272M544 136h136M850 136h238M1156 136h68M0 137h68M136 137h272M544 137h136M850 137h238M1156 137h68M0 138h68M136 138h272M544 138h136M850 138h238M1156 138h68M0 139h68M136 139h272M544 139h136M850 139h238M1156 139h68M0 140h68M136 140h272M544 140h136M850 140h238M1156 140h68M0 141h68M136 141h272M544 141h136M850 141h238M1156 141h68M0 142h68M136 142h272M544 142h136M850 142h238M1156 142h68M0 143h68M136 143h272M544 143h136M850 143h238M1156 143h68M0 144h68M136 144h272M544 144h136M850 144h238M1156 144h68M0 145h68M136 145h272M544 145h136M850 145h238M1156 145h68M0 146h68M136 146h272M544 146h136M850 146h238M1156 146h68M0 147h68M136 147h272M544 147h136M850 147h238M1156 147h68M0 148h68M136 148h272M544 148h136M850 148h238M1156 148h68M0 149h68M136 149h272M544 149h136M850 149h238M1156 149h68M0 150h68M136 150h272M544 150h136M850 150h238M1156 150h68M0 151h68M136 151h272M544 151h136M850 151h238M1156 151h68M0 152h68M136 152h272M544 152h136M850 152h238M1156 152h68M0 153h68M136 153h272M544 153h136M850 153h238M1156 153h68M0 154h68M136 154h272M544 154h136M850 154h238M1156 154h68M0 155h68M136 155h272M544 155h136M850 155h238M1156 155h68M0 156h68M136 156h272M544 156h136M850 156h238M1156 156h68M0 157h68M136 157h272M544 157h136M850 157h238M1156 157h68M0 158h68M136 158h272M544 158h136M850 158h238M1156 158h68M0 159h68M136 159h272M544 159h136M850 159h238M1156 159h68M0 160h68M136 160h272M544 160h136M850 160h238M1156 160h68M0 161h68M136 161h272M544 161h136M850 161h238M1156 161h68M0 162h68M136 162h272M544 162h136M850 162h238M1156 162h68M0 163h68M136 163h272M544 163h136M850 163h238M1156 163h68M0 164h68M136 164h272M544 164h136M850 164h238M1156 164h68M0 165h68M136 165h272M544 165h136M850 165h238M1156 165h68M0 166h68M136 166h272M544 166h136M850 166h238M1156 166h68M0 167h68M136 167h272M544 167h136M850 167h238M1156 167h68M0 168h68M136 168h272M544 168h136M850 168h238M1156 168h68M0 169h68M136 169h272M544 169h136M850 169h238M1156 169h68M0 170h374M884 170h340M0 171h374M884 171h340M0 172h374M884 172h340M0 173h374M884 173h340M0 174h374M884 174h340M0 175h374M884 175h340M0 176h374M884 176h340M0 177h374M884 177h340M0 178h374M884 178h340M0 179h374M884 179h340M0 180h374M884 180h340M0 181h374M884 181h340M0 182h374M884 182h340M0 183h374M884 183h340M0 184h374M884 184h340M0 185h374M884 185h340M0 186h374M884 186h340M0 187h374M884 187h340M0 188h374M884 188h340M0 189h374M884 189h340M0 190h374M884 190h340M0 191h374M884 191h340M0 192h374M884 192h340M0 193h374M884 193h340M0 194h374M884 194h340M0 195h374M884 195h340M0 196h374M884 196h340M0 197h374M884 197h340M0 198h374M884 198h340M0 199h374M884 199h340M0 200h374M884 200h340M0 201h374M884 201h340M0 202h374M884 202h340M0 203h374M884 203h340M0 204h340M884 204h340M0 205h340M884 205h340M0 206h340M884 206h340M0 207h340M884 207h340M0 208h340M884 208h340M0 209h340M884 209h340M0 210h340M884 210h340M0 211h340M884 211h340M0 212h340M884 212h340M0 213h340M884 213h340M0 214h340M884 214h340M0 215h340M884 215h340M0 216h340M884 216h340M0 217h340M884 217h340M0 218h340M884 218h340M0 219h340M884 219h340M0 220h340M884 220h340M0 221h340M884 221h340M0 222h340M884 222h340M0 223h340M884 223h340M0 224h340M884 224h340M0 225h340M884 225h340M0 226h340M884 226h340M0 227h340M884 227h340M0 228h340M884 228h340M0 229h340M884 229h340M0 230h340M884 230h340M0 231h340M884 231h340M0 232h340M884 232h340M0 233h340M884 233h340M0 234h340M884 234h340M0 235h340M884 235h340M0 236h340M884 236h340M0 237h340M884 237h340M68 238h204M408 238h68M714 238h68M918 238h204M68 239h204M408 239h68M714 239h68M918 239h204M68 240h204M408 240h68M714 240h68M918 240h204M68 241h204M408 241h68M714 241h68M918 241h204M68 242h204M408 242h68M714 242h68M918 242h204M68 243h204M408 243h68M714 243h68M918 243h204M68 244h204M408 244h68M714 244h68M918 244h204M68 245h204M408 245h68M714 245h68M918 245h204M68 246h204M408 246h68M714 246h68M918 246h204M68 247h204M408 247h68M714 247h68M918 247h204M68 248h204M408 248h68M714 248h68M918 248h204M68 249h204M408 249h68M714 249h68M918 249h204M68 250h204M408 250h68M714 250h68M918 250h204M68 251h204M408 251h68M714 251h68M918 251h204M68 252h204M408 252h68M714 252h68M918 252h204M68 253h204M408 253h68M714 253h68M918 253h204M68 254h204M408 254h68M714 254h68M918 254h204M68 255h204M408 255h68M714 255h68M918 255h204M68 256h204M408 256h68M714 256h68M918 256h204M68 257h204M408 257h68M714 257h68M918 257h204M68 258h204M408 258h68M714 258h68M918 258h204M68 259h204M408 259h68M714 259h68M918 259h204M68 260h204M408 260h68M714 260h68M918 260h204M68 261h204M408 261h68M714 261h68M918 261h204M68 262h204M408 262h68M714 262h68M918 262h204M68 263h204M408 263h68M714 263h68M918 263h204M68 264h204M408 264h68M714 264h68M918 264h204M68 265h204M408 265h68M714 265h68M918 265h204M68 266h204M408 266h68M714 266h68M918 266h204M68 267h204M408 267h68M714 267h68M918 267h204M68 268h204M408 268h68M714 268h68M918 268h204M68 269h204M408 269h68M714 269h68M918 269h204M68 270h204M408 270h68M714 270h68M918 270h204M68 271h204M408 271h68M714 271h68M918 271h204M102 272h170M408 272h68M714 272h68M952 272h136M102 273h170M408 273h68M714 273h68M952 273h136M102 274h170M408 274h68M714 274h68M952 274h136M102 275h170M408 275h68M714 275h68M952 275h136M102 276h170M408 276h68M714 276h68M952 276h136M102 277h170M408 277h68M714 277h68M952 277h136M102 278h170M408 278h68M714 278h68M952 278h136M102 279h170M408 279h68M714 279h68M952 279h136M102 280h170M408 280h68M714 280h68M952 280h136M102 281h170M408 281h68M714 281h68M952 281h136M102 282h170M408 282h68M714 282h68M952 282h136M102 283h170M408 283h68M714 283h68M952 283h136M102 284h170M408 284h68M714 284h68M952 284h136M102 285h170M408 285h68M714 285h68M952 285h136M102 286h170M408 286h68M714 286h68M952 286h136M102 287h170M408 287h68M714 287h68M952 287h136M102 288h170M408 288h68M714 288h68M952 288h136M102 289h170M408 289h68M714 289h68M952 289h136M102 290h170M408 290h68M714 290h68M952 290h136M102 291h170M408 291h68M714 291h68M952 291h136M102 292h170M408 292h68M714 292h68M952 292h136M102 293h170M408 293h68M714 293h68M952 293h136M102 294h170M408 294h68M714 294h68M952 294h136M102 295h170M408 295h68M714 295h68M952 295h136M102 296h170M408 296h68M714 296h68M952 296h136M102 297h170M408 297h68M714 297h68M952 297h136M102 298h170M408 298h68M714 298h68M952 298h136M102 299h170M408 299h68M714 299h68M952 299h136M102 300h170M408 300h68M714 300h68M952 300h136M102 301h170M408 301h68M714 301h68M952 301h136M102 302h170M408 302h68M714 302h68M952 302h136M102 303h170M408 303h68M714 303h68M952 303h136M102 304h170M408 304h68M714 304h68M952 304h136M102 305h170M408 305h68M714 305h68M952 305h136M102 306h170M952 306h136M102 307h170M952 307h136M102 308h170M952 308h136M102 309h170M952 309h136M102 310h170M952 310h136M102 311h170M952 311h136M102 312h170M952 312h136M102 313h170M952 313h136M102 314h170M952 314h136M102 315h170M952 315h136M102 316h170M952 316h136M102 317h170M952 317h136M102 318h170M952 318h136M102 319h170M952 319h136M102 320h170M952 320h136M102 321h170M952 321h136M102 322h170M952 322h136M102 323h170M952 323h136M102 324h170M952 324h136M102 325h170M952 325h136M102 326h170M952 326h136M102 327h170M952 327h136M102 328h170M952 328h136M102 329h170M952 329h136M102 330h170M952 330h136M102 331h170M952 331h136M102 332h170M952 332h136M102 333h170M952 333h136M102 334h170M952 334h136M102 335h170M952 335h136M102 336h170M952 336h136M102 337h170M952 337h136M102 338h170M952 338h136M102 339h170M952 339h136M102 340h170M544 340h34M612 340h34M952 340h136M102 341h170M544 341h34M612 341h34M952 341h136M102 342h170M544 342h34M612 342h34M952 342h136M102 343h170M544 343h34M612 343h34M952 343h136M102 344h170M544 344h34M612 344h34M952 344h136M102 345h170M544 345h34M612 345h34M952 345h136M102 346h170M544 346h34M612 346h34M952 346h136M102 347h170M544 347h34M612 347h34M952 347h136M102 348h170M544 348h34M612 348h34M952 348h136M102 349h170M544 349h34M612 349h34M952 349h136M102 350h170M544 350h34M612 350h34M952 350h136M102 351h170M544 351h34M612 351h34M952 351h136M102 352h170M544 352h34M612 352h34M952 352h136M102 353h170M544 353h34M612 353h34M952 353h136M102 354h170M544 354h34M612 354h34M952 354h136M102 355h170M544 355h34M612 355h34M952 355h136M102 356h170M544 356h34M612 356h34M952 356h136M102 357h170M544 357h34M612 357h34M952 357h136M102 358h170M544 358h34M612 358h34M952 358h136M102 359h170M544 359h34M612 359h34M952 359h136M102 360h170M544 360h34M612 360h34M952 360h136M102 361h170M544 361h34M612 361h34M952 361h136M102 362h170M544 362h34M612 362h34M952 362h136M102 363h170M544 363h34M612 363h34M952 363h136M102 364h170M544 364h34M612 364h34M952 364h136M102 365h170M544 365h34M612 365h34M952 365h136M102 366h170M544 366h34M612 366h34M952 366h136M102 367h170M544 367h34M612 367h34M952 367h136M102 368h170M544 368h34M612 368h34M952 368h136M102 369h170M544 369h34M612 369h34M952 369h136M102 370h170M544 370h34M612 370h34M952 370h136M102 371h170M544 371h34M612 371h34M952 371h136M102 372h170M544 372h34M612 372h34M952 372h136M102 373h170M544 373h34M612 373h34M952 373h136M136 374h136M952 374h136M136 375h136M952 375h136M136 376h136M952 376h136M136 377h136M952 377h136M136 378h136M952 378h136M136 379h136M952 379h136M136 380h136M952 380h136M136 381h136M952 381h136M136 382h136M952 382h136M136 383h136M952 383h136M136 384h136M952 384h136M136 385h136M952 385h136M136 386h136M952 386h136M136 387h136M952 387h136M136 388h136M952 388h136M136 389h136M952 389h136M136 390h136M952 390h136M136 391h136M952 391h136M136 392h136M952 392h136M136 393h136M952 393h136M136 394h136M952 394h136M136 395h136M952 395h136M136 396h136M952 396h136M136 397h136M952 397h136M136 398h136M952 398h136M136 399h136M952 399h136M136 400h136M952 400h136M136 401h136M952 401h136M136 402h136M952 402h136M136 403h136M952 403h136M136 404h136M952 404h136M136 405h136M952 405h136M136 406h136M952 406h136M136 407h136M952 407h136M136 408h136M408 408h34M748 408h34M952 408h136M136 409h136M408 409h34M748 409h34M952 409h136M136 410h136M408 410h34M748 410h34M952 410h136M136 411h136M408 411h34M748 411h34M952 411h136M136 412h136M408 412h34M748 412h34M952 412h136M136 413h136M408 413h34M748 413h34M952 413h136M136 414h136M408 414h34M748 414h34M952 414h136M136 415h136M408 415h34M748 415h34M952 415h136M136 416h136M408 416h34M748 416h34M952 416h136M136 417h136M408 417h34M748 417h34M952 417h136M136 418h136M408 418h34M748 418h34M952 418h136M136 419h136M408 419h34M748 419h34M952 419h136M136 420h136M408 420h34M748 420h34M952 420h136M136 421h136M408 421h34M748 421h34M952 421h136M136 422h136M408 422h34M748 422h34M952 422h136M136 423h136M408 423h34M748 423h34M952 423h136M136 424h136M408 424h34M748 424h34M952 424h136M136 425h136M408 425h34M748 425h34M952 425h136M136 426h136M408 426h34M748 426h34M952 426h136M136 427h136M408 427h34M748 427h34M952 427h136M136 428h136M408 428h34M748 428h34M952 428h136M136 429h136M408 429h34M748 429h34M952 429h136M136 430h136M408 430h34M748 430h34M952 430h136M136 431h136M408 431h34M748 431h34M952 431h136M136 432h136M408 432h34M748 432h34M952 432h136M136 433h136M408 433h34M748 433h34M952 433h136M136 434h136M408 434h34M748 434h34M952 434h136M136 435h136M408 435h34M748 435h34M952 435h136M136 436h136M408 436h34M748 436h34M952 436h136M136 437h136M408 437h34M748 437h34M952 437h136M136 438h136M408 438h34M748 438h34M952 438h136M136 439h136M408 439h34M748 439h34M952 439h136M136 440h136M408 440h34M748 440h34M952 440h136M136 441h136M408 441h34M748 441h34M952 441h136M170 442h102M408 442h374M952 442h136M170 443h102M408 443h374M952 443h136M170 444h102M408 444h374M952 444h136M170 445h102M408 445h374M952 445h136M170 446h102M408 446h374M952 446h136M170 447h102M408 447h374M952 447h136M170 448h102M408 448h374M952 448h136M170 449h102M408 449h374M952 449h136M170 450h102M408 450h374M952 450h136M170 451h102M408 451h374M952 451h136M170 452h102M408 452h374M952 452h136M170 453h102M408 453h374M952 453h136M170 454h102M408 454h374M952 454h136M170 455h102M408 455h374M952 455h136M170 456h102M408 456h374M952 456h136M170 457h102M408 457h374M952 457h136M170 458h102M408 458h374M952 458h136M170 459h102M408 459h374M952 459h136M170 460h102M408 460h374M952 460h136M170 461h102M408 461h374M952 461h136M170 462h102M408 462h374M952 462h136M170 463h102M408 463h374M952 463h136M170 464h102M408 464h374M952 464h136M170 465h102M408 465h374M952 465h136M170 466h102M408 466h374M952 466h136M170 467h102M408 467h374M952 467h136M170 468h102M408 468h374M952 468h136M170 469h102M408 469h374M952 469h136M170 470h102M408 470h374M952 470h136M170 471h102M408 471h374M952 471h136M170 472h102M408 472h374M952 472h136M170 473h102M408 473h374M952 473h136M170 474h102M408 474h374M952 474h136M170 475h102M408 475h374M952 475h136M170 476h204M884 476h170M170 477h204M884 477h170M170 478h204M884 478h170M170 479h204M884 479h170M170 480h204M884 480h170M170 481h204M884 481h170M170 482h204M884 482h170M170 483h204M884 483h170M170 484h204M884 484h170M170 485h204M884 485h170M170 486h204M884 486h170M170 487h204M884 487h170M170 488h204M884 488h170M170 489h204M884 489h170M170 490h204M884 490h170M170 491h204M884 491h170M170 492h204M884 492h170M170 493h204M884 493h170M170 494h204M884 494h170M170 495h204M884 495h170M170 496h204M884 496h170M170 497h204M884 497h170M170 498h204M884 498h170M170 499h204M884 499h170M170 500h204M884 500h170M170 501h204M884 501h170M170 502h204M884 502h170M170 503h204M884 503h170M170 504h204M884 504h170M170 505h204M884 505h170M170 506h204M884 506h170M170 507h204M884 507h170M170 508h204M884 508h170M170 509h204M884 509h170M204 510h238M748 510h272M204 511h238M748 511h272M204 512h238M748 512h272M204 513h238M748 513h272M204 514h238M748 514h272M204 515h238M748 515h272M204 516h238M748 516h272M204 517h238M748 517h272M204 518h238M748 518h272M204 519h238M748 519h272M204 520h238M748 520h272M204 521h238M748 521h272M204 522h238M748 522h272M204 523h238M748 523h272M204 524h238M748 524h272M204 525h238M748 525h272M204 526h238M748 526h272M204 527h238M748 527h272M204 528h238M748 528h272M204 529h238M748 529h272M204 530h238M748 530h272M204 531h238M748 531h272M204 532h238M748 532h272M204 533h238M748 533h272M204 534h238M748 534h272M204 535h238M748 535h272M204 536h238M748 536h272M204 537h238M748 537h272M204 538h238M748 538h272M204 539h238M748 539h272M204 540h238M748 540h272M204 541h238M748 541h272M204 542h238M748 542h272M204 543h238M748 543h272M238 544h748M238 545h748M238 546h748M238 547h748M238 548h748M238 549h748M238 550h748M238 551h748M238 552h748M238 553h748M238 554h748M238 555h748M238 556h748M238 557h748M238 558h748M238 559h748M238 560h748M238 561h748M238 562h748M238 563h748M238 564h748M238 565h748M238 566h748M238 567h748M238 568h748M238 569h748M238 570h748M238 571h748M238 572h748M238 573h748M238 574h748M238 575h748M238 576h748M238 577h748M272 578h612M272 579h612M272 580h612M272 581h612M272 582h612M272 583h612M272 584h612M272 585h612M272 586h612M272 587h612M272 588h612M272 589h612M272 590h612M272 591h612M272 592h612M272 593h612M272 594h612M272 595h612M272 596h612M272 597h612M272 598h612M272 599h612M272 600h612M272 601h612M272 602h612M272 603h612M272 604h612M272 605h612M272 606h612M272 607h612M272 608h612M272 609h612M272 610h612M272 611h612M306 612h544M306 613h544M306 614h544M306 615h544M306 616h544M306 617h544M306 618h544M306 619h544M306 620h544M306 621h544M306 622h544M306 623h544M306 624h544M306 625h544M306 626h544M306 627h544M306 628h544M306 629h544M306 630h544M306 631h544M306 632h544M306 633h544M306 634h544M306 635h544M306 636h544M306 637h544M306 638h544M306 639h544M306 640h544M306 641h544M306 642h544M306 643h544M306 644h544M306 645h544M442 646h272M442 647h272M442 648h272M442 649h272M442 650h272M442 651h272M442 652h272M442 653h272M442 654h272M442 655h272M442 656h272M442 657h272M442 658h272M442 659h272M442 660h272M442 661h272M442 662h272M442 663h272M442 664h272M442 665h272M442 666h272M442 667h272M442 668h272M442 669h272M442 670h272M442 671h272M442 672h272M442 673h272M442 674h272M442 675h272M442 676h272M442 677h272M442 678h272M442 679h272" />
<path stroke="#fedcb3" d="M102 68h68M1054 68h68M102 69h68M1054 69h68M102 70h68M1054 70h68M102 71h68M1054 71h68M102 72h68M1054 72h68M102 73h68M1054 73h68M102 74h68M1054 74h68M102 75h68M1054 75h68M102 76h68M1054 76h68M102 77h68M1054 77h68M102 78h68M1054 78h68M102 79h68M1054 79h68M102 80h68M1054 80h68M102 81h68M1054 81h68M102 82h68M1054 82h68M102 83h68M1054 83h68M102 84h68M1054 84h68M102 85h68M1054 85h68M102 86h68M1054 86h68M102 87h68M1054 87h68M102 88h68M1054 88h68M102 89h68M1054 89h68M102 90h68M1054 90h68M102 91h68M1054 91h68M102 92h68M1054 92h68M102 93h68M1054 93h68M102 94h68M1054 94h68M102 95h68M1054 95h68M102 96h68M1054 96h68M102 97h68M1054 97h68M102 98h68M1054 98h68M102 99h68M1054 99h68M102 100h68M1054 100h68M102 101h68M1054 101h68M68 102h102M1054 102h102M68 103h102M1054 103h102M68 104h102M1054 104h102M68 105h102M1054 105h102M68 106h102M1054 106h102M68 107h102M1054 107h102M68 108h102M1054 108h102M68 109h102M1054 109h102M68 110h102M1054 110h102M68 111h102M1054 111h102M68 112h102M1054 112h102M68 113h102M1054 113h102M68 114h102M1054 114h102M68 115h102M1054 115h102M68 116h102M1054 116h102M68 117h102M1054 117h102M68 118h102M1054 118h102M68 119h102M1054 119h102M68 120h102M1054 120h102M68 121h102M1054 121h102M68 122h102M1054 122h102M68 123h102M1054 123h102M68 124h102M1054 124h102M68 125h102M1054 125h102M68 126h102M1054 126h102M68 127h102M1054 127h102M68 128h102M1054 128h102M68 129h102M1054 129h102M68 130h102M1054 130h102M68 131h102M1054 131h102M68 132h102M1054 132h102M68 133h102M1054 133h102M68 134h102M1054 134h102M68 135h102M1054 135h102M68 136h68M408 136h136M680 136h170M1088 136h68M68 137h68M408 137h136M680 137h170M1088 137h68M68 138h68M408 138h136M680 138h170M1088 138h68M68 139h68M408 139h136M680 139h170M1088 139h68M68 140h68M408 140h136M680 140h170M1088 140h68M68 141h68M408 141h136M680 141h170M1088 141h68M68 142h68M408 142h136M680 142h170M1088 142h68M68 143h68M408 143h136M680 143h170M1088 143h68M68 144h68M408 144h136M680 144h170M1088 144h68M68 145h68M408 145h136M680 145h170M1088 145h68M68 146h68M408 146h136M680 146h170M1088 146h68M68 147h68M408 147h136M680 147h170M1088 147h68M68 148h68M408 148h136M680 148h170M1088 148h68M68 149h68M408 149h136M680 149h170M1088 149h68M68 150h68M408 150h136M680 150h170M1088 150h68M68 151h68M408 151h136M680 151h170M1088 151h68M68 152h68M408 152h136M680 152h170M1088 152h68M68 153h68M408 153h136M680 153h170M1088 153h68M68 154h68M408 154h136M680 154h170M1088 154h68M68 155h68M408 155h136M680 155h170M1088 155h68M68 156h68M408 156h136M680 156h170M1088 156h68M68 157h68M408 157h136M680 157h170M1088 157h68M68 158h68M408 158h136M680 158h170M1088 158h68M68 159h68M408 159h136M680 159h170M1088 159h68M68 160h68M408 160h136M680 160h170M1088 160h68M68 161h68M408 161h136M680 161h170M1088 161h68M68 162h68M408 162h136M680 162h170M1088 162h68M68 163h68M408 163h136M680 163h170M1088 163h68M68 164h68M408 164h136M680 164h170M1088 164h68M68 165h68M408 165h136M680 165h170M1088 165h68M68 166h68M408 166h136M680 166h170M1088 166h68M68 167h68M408 167h136M680 167h170M1088 167h68M68 168h68M408 168h136M680 168h170M1088 168h68M68 169h68M408 169h136M680 169h170M1088 169h68M374 170h510M374 171h510M374 172h510M374 173h510M374 174h510M374 175h510M374 176h510M374 177h510M374 178h510M374 179h510M374 180h510M374 181h510M374 182h510M374 183h510M374 184h510M374 185h510M374 186h510M374 187h510M374 188h510M374 189h510M374 190h510M374 191h510M374 192h510M374 193h510M374 194h510M374 195h510M374 196h510M374 197h510M374 198h510M374 199h510M374 200h510M374 201h510M374 202h510M374 203h510M340 204h544M340 205h544M340 206h544M340 207h544M340 208h544M340 209h544M340 210h544M340 211h544M340 212h544M340 213h544M340 214h544M340 215h544M340 216h544M340 217h544M340 218h544M340 219h544M340 220h544M340 221h544M340 222h544M340 223h544M340 224h544M340 225h544M340 226h544M340 227h544M340 228h544M340 229h544M340 230h544M340 231h544M340 232h544M340 233h544M340 234h544M340 235h544M340 236h544M340 237h544M272 238h136M476 238h238M782 238h136M272 239h136M476 239h238M782 239h136M272 240h136M476 240h238M782 240h136M272 241h136M476 241h238M782 241h136M272 242h136M476 242h238M782 242h136M272 243h136M476 243h238M782 243h136M272 244h136M476 244h238M782 244h136M272 245h136M476 245h238M782 245h136M272 246h136M476 246h238M782 246h136M272 247h136M476 247h238M782 247h136M272 248h136M476 248h238M782 248h136M272 249h136M476 249h238M782 249h136M272 250h136M476 250h238M782 250h136M272 251h136M476 251h238M782 251h136M272 252h136M476 252h238M782 252h136M272 253h136M476 253h238M782 253h136M272 254h136M476 254h238M782 254h136M272 255h136M476 255h238M782 255h136M272 256h136M476 256h238M782 256h136M272 257h136M476 257h238M782 257h136M272 258h136M476 258h238M782 258h136M272 259h136M476 259h238M782 259h136M272 260h136M476 260h238M782 260h136M272 261h136M476 261h238M782 261h136M272 262h136M476 262h238M782 262h136M272 263h136M476 263h238M782 263h136M272 264h136M476 264h238M782 264h136M272 265h136M476 265h238M782 265h136M272 266h136M476 266h238M782 266h136M272 267h136M476 267h238M782 267h136M272 268h136M476 268h238M782 268h136M272 269h136M476 269h238M782 269h136M272 270h136M476 270h238M782 270h136M272 271h136M476 271h238M782 271h136M272 272h136M476 272h238M782 272h170M272 273h136M476 273h238M782 273h170M272 274h136M476 274h238M782 274h170M272 275h136M476 275h238M782 275h170M272 276h136M476 276h238M782 276h170M272 277h136M476 277h238M782 277h170M272 278h136M476 278h238M782 278h170M272 279h136M476 279h238M782 279h170M272 280h136M476 280h238M782 280h170M272 281h136M476 281h238M782 281h170M272 282h136M476 282h238M782 282h170M272 283h136M476 283h238M782 283h170M272 284h136M476 284h238M782 284h170M272 285h136M476 285h238M782 285h170M272 286h136M476 286h238M782 286h170M272 287h136M476 287h238M782 287h170M272 288h136M476 288h238M782 288h170M272 289h136M476 289h238M782 289h170M272 290h136M476 290h238M782 290h170M272 291h136M476 291h238M782 291h170M272 292h136M476 292h238M782 292h170M272 293h136M476 293h238M782 293h170M272 294h136M476 294h238M782 294h170M272 295h136M476 295h238M782 295h170M272 296h136M476 296h238M782 296h170M272 297h136M476 297h238M782 297h170M272 298h136M476 298h238M782 298h170M272 299h136M476 299h238M782 299h170M272 300h136M476 300h238M782 300h170M272 301h136M476 301h238M782 301h170M272 302h136M476 302h238M782 302h170M272 303h136M476 303h238M782 303h170M272 304h136M476 304h238M782 304h170M272 305h136M476 305h238M782 305h170M272 306h680M272 307h680M272 308h680M272 309h680M272 310h680M272 311h680M272 312h680M272 313h680M272 314h680M272 315h680M272 316h680M272 317h680M272 318h680M272 319h680M272 320h680M272 321h680M272 322h680M272 323h680M272 324h680M272 325h680M272 326h680M272 327h680M272 328h680M272 329h680M272 330h680M272 331h680M272 332h680M272 333h680M272 334h680M272 335h680M272 336h680M272 337h680M272 338h680M272 339h680M272 340h272M578 340h34M646 340h306M272 341h272M578 341h34M646 341h306M272 342h272M578 342h34M646 342h306M272 343h272M578 343h34M646 343h306M272 344h272M578 344h34M646 344h306M272 345h272M578 345h34M646 345h306M272 346h272M578 346h34M646 346h306M272 347h272M578 347h34M646 347h306M272 348h272M578 348h34M646 348h306M272 349h272M578 349h34M646 349h306M272 350h272M578 350h34M646 350h306M272 351h272M578 351h34M646 351h306M272 352h272M578 352h34M646 352h306M272 353h272M578 353h34M646 353h306M272 354h272M578 354h34M646 354h306M272 355h272M578 355h34M646 355h306M272 356h272M578 356h34M646 356h306M272 357h272M578 357h34M646 357h306M272 358h272M578 358h34M646 358h306M272 359h272M578 359h34M646 359h306M272 360h272M578 360h34M646 360h306M272 361h272M578 361h34M646 361h306M272 362h272M578 362h34M646 362h306M272 363h272M578 363h34M646 363h306M272 364h272M578 364h34M646 364h306M272 365h272M578 365h34M646 365h306M272 366h272M578 366h34M646 366h306M272 367h272M578 367h34M646 367h306M272 368h272M578 368h34M646 368h306M272 369h272M578 369h34M646 369h306M272 370h272M578 370h34M646 370h306M272 371h272M578 371h34M646 371h306M272 372h272M578 372h34M646 372h306M272 373h272M578 373h34M646 373h306M272 374h680M272 375h680M272 376h680M272 377h680M272 378h680M272 379h680M272 380h680M272 381h680M272 382h680M272 383h680M272 384h680M272 385h680M272 386h680M272 387h680M272 388h680M272 389h680M272 390h680M272 391h680M272 392h680M272 393h680M272 394h680M272 395h680M272 396h680M272 397h680M272 398h680M272 399h680M272 400h680M272 401h680M272 402h680M272 403h680M272 404h680M272 405h680M272 406h680M272 407h680M272 408h136M442 408h306M782 408h170M272 409h136M442 409h306M782 409h170M272 410h136M442 410h306M782 410h170M272 411h136M442 411h306M782 411h170M272 412h136M442 412h306M782 412h170M272 413h136M442 413h306M782 413h170M272 414h136M442 414h306M782 414h170M272 415h136M442 415h306M782 415h170M272 416h136M442 416h306M782 416h170M272 417h136M442 417h306M782 417h170M272 418h136M442 418h306M782 418h170M272 419h136M442 419h306M782 419h170M272 420h136M442 420h306M782 420h170M272 421h136M442 421h306M782 421h170M272 422h136M442 422h306M782 422h170M272 423h136M442 423h306M782 423h170M272 424h136M442 424h306M782 424h170M272 425h136M442 425h306M782 425h170M272 426h136M442 426h306M782 426h170M272 427h136M442 427h306M782 427h170M272 428h136M442 428h306M782 428h170M272 429h136M442 429h306M782 429h170M272 430h136M442 430h306M782 430h170M272 431h136M442 431h306M782 431h170M272 432h136M442 432h306M782 432h170M272 433h136M442 433h306M782 433h170M272 434h136M442 434h306M782 434h170M272 435h136M442 435h306M782 435h170M272 436h136M442 436h306M782 436h170M272 437h136M442 437h306M782 437h170M272 438h136M442 438h306M782 438h170M272 439h136M442 439h306M782 439h170M272 440h136M442 440h306M782 440h170M272 441h136M442 441h306M782 441h170M272 442h136M782 442h170M272 443h136M782 443h170M272 444h136M782 444h170M272 445h136M782 445h170M272 446h136M782 446h170M272 447h136M782 447h170M272 448h136M782 448h170M272 449h136M782 449h170M272 450h136M782 450h170M272 451h136M782 451h170M272 452h136M782 452h170M272 453h136M782 453h170M272 454h136M782 454h170M272 455h136M782 455h170M272 456h136M782 456h170M272 457h136M782 457h170M272 458h136M782 458h170M272 459h136M782 459h170M272 460h136M782 460h170M272 461h136M782 461h170M272 462h136M782 462h170M272 463h136M782 463h170M272 464h136M782 464h170M272 465h136M782 465h170M272 466h136M782 466h170M272 467h136M782 467h170M272 468h136M782 468h170M272 469h136M782 469h170M272 470h136M782 470h170M272 471h136M782 471h170M272 472h136M782 472h170M272 473h136M782 473h170M272 474h136M782 474h170M272 475h136M782 475h170M374 476h510M374 477h510M374 478h510M374 479h510M374 480h510M374 481h510M374 482h510M374 483h510M374 484h510M374 485h510M374 486h510M374 487h510M374 488h510M374 489h510M374 490h510M374 491h510M374 492h510M374 493h510M374 494h510M374 495h510M374 496h510M374 497h510M374 498h510M374 499h510M374 500h510M374 501h510M374 502h510M374 503h510M374 504h510M374 505h510M374 506h510M374 507h510M374 508h510M374 509h510M442 510h306M442 511h306M442 512h306M442 513h306M442 514h306M442 515h306M442 516h306M442 517h306M442 518h306M442 519h306M442 520h306M442 521h306M442 522h306M442 523h306M442 524h306M442 525h306M442 526h306M442 527h306M442 528h306M442 529h306M442 530h306M442 531h306M442 532h306M442 533h306M442 534h306M442 535h306M442 536h306M442 537h306M442 538h306M442 539h306M442 540h306M442 541h306M442 542h306M442 543h306" />
</svg>